<svg width="70" height="50" viewBox="0 0 70 50" fill="none" xmlns="http://www.w3.org/2000/svg">
<g id="1" clip-path="url(#clip0_317_546)">
<g id="Black">
<path id="Vector" d="M15.2591 0.599529C11.8953 0.748726 9.56245 1.08781 7.39231 1.76598C3.97434 2.83748 1.79064 4.93981 0.827642 8.10007C0.0952205 10.4872 0.0816572 10.6635 0.0274037 22.6943C-0.0268498 34.3723 0.0274037 36.0135 0.556375 38.6041C1.15316 41.5473 2.11616 43.514 3.79802 45.223C6.51069 47.9764 9.98291 49.1021 16.6832 49.4277C18.6906 49.5226 25.7707 49.5497 37.2995 49.509C55.8407 49.4412 56.1255 49.4412 59.1366 48.8037C64.4941 47.678 67.356 44.9789 68.6173 39.8519C69.3633 36.8544 69.3769 36.5018 69.3769 23.915C69.3769 15.1259 69.3362 12.0334 69.2006 11.1247C68.4139 5.75361 66.4472 3.17657 62.0527 1.76598C59.9097 1.07425 57.6988 0.762287 53.7519 0.585964C50.456 0.436768 18.6499 0.450333 15.2591 0.599529ZM31.0333 15.7634C35.6041 18.0556 44.7187 22.8706 45.0035 23.1418C45.953 24.0099 45.9258 25.3256 44.9357 26.2343C44.4881 26.6548 30.1516 34.1689 29.4328 34.3588C28.524 34.6029 27.4932 34.1146 27.0728 33.2194C26.8829 32.8125 26.8557 31.8495 26.8557 24.6203V16.4958L27.1677 16.0346C27.3305 15.7905 27.6831 15.4379 27.9272 15.2751C28.6732 14.7732 29.2293 14.8546 31.0333 15.7634Z" fill="white"/>
</g>
</g>
<defs>
<clipPath id="clip0_317_546">
<rect width="69.4444" height="50" fill="white"/>
</clipPath>
</defs>
</svg>
