<svg width="10" height="11" viewBox="0 0 10 11" fill="none" xmlns="http://www.w3.org/2000/svg">
<path id="Vector" d="M5 9C5.09889 9 5.19556 8.97068 5.27779 8.91574C5.36001 8.86079 5.4241 8.7827 5.46194 8.69134C5.49978 8.59998 5.50969 8.49944 5.49039 8.40245C5.4711 8.30546 5.42348 8.21637 5.35355 8.14645C5.28363 8.07652 5.19454 8.0289 5.09755 8.00961C5.00055 7.99031 4.90002 8.00022 4.80866 8.03806C4.7173 8.0759 4.63921 8.13999 4.58427 8.22221C4.52932 8.30444 4.5 8.40111 4.5 8.5C4.5 8.63261 4.55268 8.75979 4.64645 8.85355C4.74021 8.94732 4.86739 9 5 9ZM7.5 9C7.59889 9 7.69556 8.97068 7.77779 8.91574C7.86001 8.86079 7.9241 8.7827 7.96194 8.69134C7.99978 8.59998 8.00969 8.49944 7.99039 8.40245C7.9711 8.30546 7.92348 8.21637 7.85355 8.14645C7.78363 8.07652 7.69454 8.0289 7.59755 8.00961C7.50056 7.99031 7.40002 8.00022 7.30866 8.03806C7.2173 8.0759 7.13921 8.13999 7.08426 8.22221C7.02932 8.30444 7 8.40111 7 8.5C7 8.63261 7.05268 8.75979 7.14645 8.85355C7.24021 8.94732 7.36739 9 7.5 9ZM7.5 7C7.59889 7 7.69556 6.97068 7.77779 6.91573C7.86001 6.86079 7.9241 6.7827 7.96194 6.69134C7.99978 6.59998 8.00969 6.49945 7.99039 6.40245C7.9711 6.30546 7.92348 6.21637 7.85355 6.14645C7.78363 6.07652 7.69454 6.0289 7.59755 6.00961C7.50056 5.99031 7.40002 6.00022 7.30866 6.03806C7.2173 6.0759 7.13921 6.13999 7.08426 6.22221C7.02932 6.30444 7 6.40111 7 6.5C7 6.63261 7.05268 6.75979 7.14645 6.85355C7.24021 6.94732 7.36739 7 7.5 7ZM5 7C5.09889 7 5.19556 6.97068 5.27779 6.91573C5.36001 6.86079 5.4241 6.7827 5.46194 6.69134C5.49978 6.59998 5.50969 6.49945 5.49039 6.40245C5.4711 6.30546 5.42348 6.21637 5.35355 6.14645C5.28363 6.07652 5.19454 6.0289 5.09755 6.00961C5.00055 5.99031 4.90002 6.00022 4.80866 6.03806C4.7173 6.0759 4.63921 6.13999 4.58427 6.22221C4.52932 6.30444 4.5 6.40111 4.5 6.5C4.5 6.63261 4.55268 6.75979 4.64645 6.85355C4.74021 6.94732 4.86739 7 5 7ZM8.5 1H8V0.5C8 0.367392 7.94732 0.240215 7.85355 0.146447C7.75979 0.0526784 7.63261 0 7.5 0C7.36739 0 7.24021 0.0526784 7.14645 0.146447C7.05268 0.240215 7 0.367392 7 0.5V1H3V0.5C3 0.367392 2.94732 0.240215 2.85355 0.146447C2.75979 0.0526784 2.63261 0 2.5 0C2.36739 0 2.24021 0.0526784 2.14645 0.146447C2.05268 0.240215 2 0.367392 2 0.5V1H1.5C1.10218 1 0.720644 1.15804 0.43934 1.43934C0.158035 1.72064 0 2.10218 0 2.5V9.5C0 9.89782 0.158035 10.2794 0.43934 10.5607C0.720644 10.842 1.10218 11 1.5 11H8.5C8.89782 11 9.27936 10.842 9.56066 10.5607C9.84196 10.2794 10 9.89782 10 9.5V2.5C10 2.10218 9.84196 1.72064 9.56066 1.43934C9.27936 1.15804 8.89782 1 8.5 1ZM9 9.5C9 9.63261 8.94732 9.75979 8.85355 9.85355C8.75979 9.94732 8.63261 10 8.5 10H1.5C1.36739 10 1.24021 9.94732 1.14645 9.85355C1.05268 9.75979 1 9.63261 1 9.5V5H9V9.5ZM9 4H1V2.5C1 2.36739 1.05268 2.24021 1.14645 2.14645C1.24021 2.05268 1.36739 2 1.5 2H2V2.5C2 2.63261 2.05268 2.75979 2.14645 2.85355C2.24021 2.94732 2.36739 3 2.5 3C2.63261 3 2.75979 2.94732 2.85355 2.85355C2.94732 2.75979 3 2.63261 3 2.5V2H7V2.5C7 2.63261 7.05268 2.75979 7.14645 2.85355C7.24021 2.94732 7.36739 3 7.5 3C7.63261 3 7.75979 2.94732 7.85355 2.85355C7.94732 2.75979 8 2.63261 8 2.5V2H8.5C8.63261 2 8.75979 2.05268 8.85355 2.14645C8.94732 2.24021 9 2.36739 9 2.5V4ZM2.5 7C2.59889 7 2.69556 6.97068 2.77779 6.91573C2.86001 6.86079 2.9241 6.7827 2.96194 6.69134C2.99978 6.59998 3.00969 6.49945 2.99039 6.40245C2.9711 6.30546 2.92348 6.21637 2.85355 6.14645C2.78363 6.07652 2.69454 6.0289 2.59755 6.00961C2.50055 5.99031 2.40002 6.00022 2.30866 6.03806C2.2173 6.0759 2.13921 6.13999 2.08427 6.22221C2.02932 6.30444 2 6.40111 2 6.5C2 6.63261 2.05268 6.75979 2.14645 6.85355C2.24021 6.94732 2.36739 7 2.5 7ZM2.5 9C2.59889 9 2.69556 8.97068 2.77779 8.91574C2.86001 8.86079 2.9241 8.7827 2.96194 8.69134C2.99978 8.59998 3.00969 8.49944 2.99039 8.40245C2.9711 8.30546 2.92348 8.21637 2.85355 8.14645C2.78363 8.07652 2.69454 8.0289 2.59755 8.00961C2.50055 7.99031 2.40002 8.00022 2.30866 8.03806C2.2173 8.0759 2.13921 8.13999 2.08427 8.22221C2.02932 8.30444 2 8.40111 2 8.5C2 8.63261 2.05268 8.75979 2.14645 8.85355C2.24021 8.94732 2.36739 9 2.5 9Z" fill="white"/>
</svg>
