<svg width="23" height="17" viewBox="0 0 23 17" fill="none" xmlns="http://www.w3.org/2000/svg">
<g id="Group 140">
<path id="Vector" d="M19.6803 16.2438H3.25833C2.39448 16.2428 1.5663 15.9013 0.955464 15.2943C0.344628 14.6872 0.00101451 13.8642 0 13.0057V3.2381C0.00101451 2.37961 0.344628 1.55657 0.955464 0.94953C1.5663 0.342487 2.39448 0.00100821 3.25833 0H19.6803C20.5442 0.00100821 21.3724 0.342487 21.9832 0.94953C22.594 1.55657 22.9377 2.37961 22.9387 3.2381V13.0057C22.9377 13.8642 22.594 14.6872 21.9832 15.2943C21.3724 15.9013 20.5442 16.2428 19.6803 16.2438ZM3.25833 1.14286C2.69917 1.14286 2.16291 1.3636 1.76752 1.75654C1.37213 2.14947 1.15 2.6824 1.15 3.2381V13.0057C1.15 13.5614 1.37213 14.0943 1.76752 14.4873C2.16291 14.8802 2.69917 15.101 3.25833 15.101H19.6803C20.2395 15.101 20.7758 14.8802 21.1712 14.4873C21.5665 14.0943 21.7887 13.5614 21.7887 13.0057V3.2381C21.7887 2.6824 21.5665 2.14947 21.1712 1.75654C20.7758 1.3636 20.2395 1.14286 19.6803 1.14286H3.25833Z" fill="#DA3743"/>
<path id="Vector_2" d="M11.4706 10.4382C10.7613 10.4393 10.0709 10.2106 9.50411 9.7868L0.553275 3.05918C0.490033 3.01507 0.436385 2.95875 0.395535 2.89357C0.354685 2.8284 0.32747 2.75571 0.315517 2.67985C0.303564 2.604 0.307116 2.52652 0.325963 2.45206C0.34481 2.3776 0.378564 2.30767 0.42521 2.24646C0.471856 2.18525 0.530436 2.13401 0.597453 2.0958C0.664469 2.05759 0.738547 2.03319 0.815262 2.02407C0.891978 2.01494 0.969756 2.02128 1.04395 2.04269C1.11815 2.06411 1.18724 2.10016 1.24711 2.1487L10.1979 8.88394C10.5655 9.15662 11.0119 9.30395 11.4706 9.30395C11.9293 9.30395 12.3757 9.15662 12.7433 8.88394L21.6941 2.1487C21.754 2.10016 21.8231 2.06411 21.8973 2.04269C21.9715 2.02128 22.0492 2.01494 22.126 2.02407C22.2027 2.03319 22.2767 2.05759 22.3438 2.0958C22.4108 2.13401 22.4694 2.18525 22.516 2.24646C22.5627 2.30767 22.5964 2.3776 22.6153 2.45206C22.6341 2.52652 22.6377 2.604 22.6257 2.67985C22.6137 2.75571 22.5865 2.8284 22.5457 2.89357C22.5048 2.95875 22.4512 3.01507 22.3879 3.05918L13.4371 9.7868C12.8703 10.2106 12.1799 10.4393 11.4706 10.4382Z" fill="#DA3743"/>
<path id="Vector_3" d="M0.802408 14.6514C0.685787 14.6516 0.571871 14.6165 0.475776 14.5509C0.37968 14.4852 0.305948 14.3921 0.264362 14.2838C0.222777 14.1755 0.215304 14.0572 0.242936 13.9446C0.270568 13.832 0.331998 13.7304 0.419074 13.6533L7.47241 7.40191C7.58627 7.30088 7.73586 7.24893 7.88827 7.25751C8.04067 7.26608 8.18341 7.33447 8.28508 7.44763C8.38674 7.56079 8.43901 7.70945 8.43038 7.8609C8.42176 8.01236 8.35294 8.15421 8.23907 8.25525L1.18574 14.5067C1.08099 14.6014 0.944013 14.6531 0.802408 14.6514ZM22.1387 14.6514C21.9971 14.6531 21.8602 14.6014 21.7554 14.5067L14.7021 8.25525C14.5882 8.15421 14.5194 8.01236 14.5108 7.8609C14.5021 7.70945 14.5544 7.56079 14.6561 7.44763C14.7577 7.33447 14.9005 7.26608 15.0529 7.25751C15.2053 7.24893 15.3549 7.30088 15.4687 7.40191L22.5182 13.6533C22.6053 13.7304 22.6667 13.832 22.6944 13.9446C22.722 14.0572 22.7145 14.1755 22.673 14.2838C22.6314 14.3921 22.5576 14.4852 22.4615 14.5509C22.3654 14.6165 22.2515 14.6516 22.1349 14.6514H22.1387Z" fill="#DA3743"/>
</g>
</svg>
