<svg width="52" height="52" viewBox="0 0 52 52" fill="none" xmlns="http://www.w3.org/2000/svg">
<g id="Shot" clip-path="url(#clip0_400_5640)">
<path id="Vector" d="M39 29.222C39 26.4107 37.6403 21.4779 36.7104 19.1864C35.1744 15.3984 36.7104 9 36.7104 9H34.2915L37.985 -2.58521C38.018 -2.68992 38.0369 -2.80104 38.0369 -2.91692C38.0369 -3.51513 37.5554 -4 36.9622 -4C36.4838 -4 36.0778 -3.68424 35.9393 -3.24782V-3.24853L35.9377 -3.24457C35.9377 -3.24142 35.936 -3.23827 35.9345 -3.23502L32.0348 9.0001H25.0375C23.5519 6.41428 20.7759 4.67337 17.5939 4.67337C12.8476 4.67337 9 8.54774 9 13.3268H18.5035C18.6341 15.2637 18.5633 17.4877 17.874 19.1865C16.9455 21.478 15.5858 26.4108 15.5858 29.2221C15.5858 35.8118 20.2566 38.9697 26.2184 39.303V45.8331H20.8466C20.2534 45.8331 19.7718 46.3187 19.7718 46.917C19.7718 47.5153 20.2534 48 20.8466 48H33.7392C34.3325 48 34.814 47.5153 34.814 46.917C34.814 46.3187 34.3325 45.8331 33.7392 45.8331H28.3681V39.303C34.3293 38.9696 39 35.8117 39 29.222ZM11.5177 11.1606C11.7189 10.5931 11.9975 10.0566 12.3455 9.56652L13.927 11.1606H11.5177ZM16.5204 10.7116L13.8672 8.03758C14.6575 7.47144 15.5645 7.09304 16.5204 6.93073V10.7116ZM34.1436 11.167C34.0901 11.5732 34.0381 12.0112 33.9956 12.4715C33.717 15.481 33.9405 17.9558 34.6565 19.8331H30.8371L33.6006 11.167H34.1436ZM31.3439 11.167L28.5805 19.8331H19.9292C20.6451 17.9558 20.8686 15.481 20.5901 12.4715C20.5495 12.0356 20.4997 11.6007 20.4407 11.167H31.3439ZM21.3203 8.03758L20.3652 9.0001H18.6687V6.93073C19.6242 7.09278 20.5308 7.47122 21.3203 8.03758ZM17.7338 29.222C17.7338 27.4042 18.4451 24.3264 19.1674 22H35.4182C36.1406 24.3264 36.8519 27.4041 36.8519 29.222C36.8519 31.831 35.9784 33.8368 34.2553 35.1825C32.5934 36.4805 30.1872 37.1669 27.2932 37.1669C24.3984 37.1669 21.9907 36.4805 20.3304 35.1825C18.6072 33.8368 17.7338 31.831 17.7338 29.222Z" fill="currentColor"/>
</g>
<defs>
<clipPath id="clip0_400_5640">
<rect width="52" height="52" fill="currentColor"/>
</clipPath>
</defs>
</svg>
