<svg width="47" height="47" viewBox="0 0 47 47" fill="none" xmlns="http://www.w3.org/2000/svg">
<g filter="url(#filter0_d_261_2452)">
<circle cx="23.5" cy="19.5" r="14.9" stroke="white" stroke-width="1.2"/>
</g>
<g clip-path="url(#clip0_261_2452)">
<path d="M26.9332 12H21.0668C18.8243 12 17 13.8243 17 16.0668V21.9332C17 24.1757 18.8243 26 21.0668 26H26.9332C29.1757 26 31 24.1757 31 21.9332V16.0668C31 13.8243 29.1757 12 26.9332 12ZM29.9062 21.9332C29.9062 23.5726 28.5726 24.9062 26.9332 24.9062H21.0668C19.4274 24.9062 18.0938 23.5726 18.0938 21.9332V16.0668C18.0938 14.4274 19.4274 13.0938 21.0668 13.0938H26.9332C28.5726 13.0938 29.9062 14.4274 29.9062 16.0668V21.9332Z" fill="white"/>
<path d="M24 15.2266C21.9193 15.2266 20.2266 16.9193 20.2266 19C20.2266 21.0807 21.9193 22.7734 24 22.7734C26.0807 22.7734 27.7734 21.0807 27.7734 19C27.7734 16.9193 26.0807 15.2266 24 15.2266ZM24 21.6797C22.5224 21.6797 21.3203 20.4776 21.3203 19C21.3203 17.5224 22.5224 16.3203 24 16.3203C25.4776 16.3203 26.6797 17.5224 26.6797 19C26.6797 20.4776 25.4776 21.6797 24 21.6797Z" fill="white"/>
<path d="M27.8281 15.7188C28.1302 15.7188 28.375 15.4739 28.375 15.1719C28.375 14.8698 28.1302 14.625 27.8281 14.625C27.5261 14.625 27.2812 14.8698 27.2812 15.1719C27.2812 15.4739 27.5261 15.7188 27.8281 15.7188Z" fill="white"/>
</g>
<defs>
<filter id="filter0_d_261_2452" x="0" y="0" width="47" height="47" filterUnits="userSpaceOnUse" color-interpolation-filters="sRGB">
<feFlood flood-opacity="0" result="BackgroundImageFix"/>
<feColorMatrix in="SourceAlpha" type="matrix" values="0 0 0 0 0 0 0 0 0 0 0 0 0 0 0 0 0 0 127 0" result="hardAlpha"/>
<feOffset dy="4"/>
<feGaussianBlur stdDeviation="4"/>
<feColorMatrix type="matrix" values="0 0 0 0 0 0 0 0 0 0 0 0 0 0 0 0 0 0 0.05 0"/>
<feBlend mode="normal" in2="BackgroundImageFix" result="effect1_dropShadow_261_2452"/>
<feBlend mode="normal" in="SourceGraphic" in2="effect1_dropShadow_261_2452" result="shape"/>
</filter>
<clipPath id="clip0_261_2452">
<rect width="14" height="14" fill="white" transform="translate(17 12)"/>
</clipPath>
</defs>
</svg>
