<svg width="22" height="28" viewBox="0 0 22 28" fill="none" xmlns="http://www.w3.org/2000/svg">
<path id="Vector" d="M11 0C8.08262 0 5.28473 1.17999 3.22183 3.28039C1.15893 5.38079 0 8.22955 0 11.2C0 18.7599 9.69375 27.2999 10.1063 27.6639C10.3553 27.8808 10.6723 28 11 28C11.3277 28 11.6447 27.8808 11.8937 27.6639C12.375 27.2999 22 18.7599 22 11.2C22 8.22955 20.8411 5.38079 18.7782 3.28039C16.7153 1.17999 13.9174 0 11 0ZM11 24.7099C8.07125 21.9099 2.75 15.8759 2.75 11.2C2.75 8.97215 3.61919 6.83559 5.16637 5.26029C6.71354 3.68499 8.81196 2.79999 11 2.79999C13.188 2.79999 15.2865 3.68499 16.8336 5.26029C18.3808 6.83559 19.25 8.97215 19.25 11.2C19.25 15.8759 13.9288 21.9239 11 24.7099ZM11 5.59998C9.9122 5.59998 8.84883 5.92841 7.94436 6.54375C7.03989 7.15908 6.33494 8.03368 5.91866 9.05694C5.50238 10.0802 5.39346 11.2062 5.60568 12.2925C5.8179 13.3788 6.34172 14.3766 7.11091 15.1597C7.8801 15.9429 8.86011 16.4763 9.927 16.6923C10.9939 16.9084 12.0998 16.7975 13.1048 16.3737C14.1098 15.9498 14.9687 15.2321 15.5731 14.3111C16.1774 13.3902 16.5 12.3075 16.5 11.2C16.5 9.71476 15.9205 8.29038 14.8891 7.24018C13.8576 6.18998 12.4587 5.59998 11 5.59998ZM11 14C10.4561 14 9.92442 13.8357 9.47218 13.5281C9.01995 13.2204 8.66747 12.7831 8.45933 12.2715C8.25119 11.7598 8.19673 11.1969 8.30284 10.6537C8.40895 10.1106 8.67086 9.61166 9.05546 9.22007C9.44005 8.82849 9.93005 8.56181 10.4635 8.45377C10.997 8.34574 11.5499 8.40118 12.0524 8.61311C12.5549 8.82503 12.9844 9.18392 13.2865 9.64437C13.5887 10.1048 13.75 10.6462 13.75 11.2C13.75 11.9426 13.4603 12.6548 12.9445 13.1799C12.4288 13.705 11.7293 14 11 14Z" fill="#DA3743"/>
</svg>
