<svg width="46" height="64" viewBox="0 0 46 64" fill="none" xmlns="http://www.w3.org/2000/svg">
<g id="Group 39531">
<g id="Group">
<g id="Clip path group">
<mask id="mask0_328_3126" style="mask-type:luminance" maskUnits="userSpaceOnUse" x="33" y="45" width="1" height="18">
<g id="clippath">
<path id="Vector" d="M33.4902 62.1026C33.5897 62.0777 33.6933 62.0529 33.7927 62.028V45.6488C33.6933 45.6281 33.5938 45.6074 33.4902 45.5867V62.1026Z" fill="white"/>
</g>
</mask>
<g mask="url(#mask0_328_3126)">
<g id="Group_2">
<path id="Vector_2" d="M33.7927 45.5867H33.4902V62.1026H33.7927V45.5867Z" fill="url(#paint0_linear_328_3126)"/>
</g>
</g>
</g>
<g id="Clip path group_2">
<mask id="mask1_328_3126" style="mask-type:luminance" maskUnits="userSpaceOnUse" x="28" y="44" width="1" height="20">
<g id="clippath-1">
<path id="Vector_3" d="M28.4678 63.0263C28.5299 63.018 28.5962 63.0139 28.6584 63.0056V44.853C28.5962 44.8447 28.5341 44.8406 28.4678 44.8323V63.0263Z" fill="white"/>
</g>
</mask>
<g mask="url(#mask1_328_3126)">
<g id="Group_3">
<path id="Vector_4" d="M28.6584 44.8323H28.4678V63.0263H28.6584V44.8323Z" fill="url(#paint1_linear_328_3126)"/>
</g>
</g>
</g>
<g id="Clip path group_3">
<mask id="mask2_328_3126" style="mask-type:luminance" maskUnits="userSpaceOnUse" x="23" y="44" width="1" height="20">
<g id="clippath-2">
<path id="Vector_5" d="M23.1035 63.3496C23.1325 63.3496 23.1574 63.3496 23.1822 63.3496V44.5713C23.1574 44.5713 23.1284 44.5713 23.1035 44.5713V63.3537V63.3496Z" fill="white"/>
</g>
</mask>
<g mask="url(#mask2_328_3126)">
<g id="Group_4">
<path id="Vector_6" d="M23.1822 44.5671H23.1035V63.3495H23.1822V44.5671Z" fill="url(#paint2_linear_328_3126)"/>
</g>
</g>
</g>
<g id="Clip path group_4">
<mask id="mask3_328_3126" style="mask-type:luminance" maskUnits="userSpaceOnUse" x="44" y="51" width="2" height="5">
<g id="clippath-3">
<path id="Vector_7" d="M44.8809 55.2452C45.1709 54.7231 45.3822 54.1886 45.5148 53.6375V52.4939C45.3822 52.0464 45.1709 51.6114 44.8809 51.1887V55.2452Z" fill="white"/>
</g>
</mask>
<g mask="url(#mask3_328_3126)">
<g id="Group_5">
<path id="Vector_8" d="M45.5148 51.1887H44.8809V55.241H45.5148V51.1887Z" fill="url(#paint3_linear_328_3126)"/>
</g>
</g>
</g>
<g id="Clip path group_5">
<mask id="mask4_328_3126" style="mask-type:luminance" maskUnits="userSpaceOnUse" x="38" y="46" width="1" height="15">
<g id="clippath-4">
<path id="Vector_9" d="M38.0107 46.8171V60.5984C38.1475 60.5404 38.2842 60.4782 38.4209 60.4202V46.9705C38.2842 46.9207 38.1475 46.871 38.0107 46.8213V46.8171Z" fill="white"/>
</g>
</mask>
<g mask="url(#mask4_328_3126)">
<g id="Group_6">
<path id="Vector_10" d="M38.4209 46.8171H38.0107V60.5942H38.4209V46.8171Z" fill="url(#paint4_linear_328_3126)"/>
</g>
</g>
</g>
<g id="Clip path group_6">
<mask id="mask5_328_3126" style="mask-type:luminance" maskUnits="userSpaceOnUse" x="41" y="48" width="2" height="11">
<g id="clippath-5">
<path id="Vector_11" d="M41.8604 58.4644C42.0385 58.336 42.2167 58.2034 42.3824 58.0708V48.8847C42.2126 48.777 42.0385 48.6651 41.8604 48.5615V58.4686V58.4644Z" fill="white"/>
</g>
</mask>
<g mask="url(#mask5_328_3126)">
<g id="Group_7">
<path id="Vector_12" d="M42.3824 48.5615H41.8604V58.4686H42.3824V48.5615Z" fill="url(#paint5_linear_328_3126)"/>
</g>
</g>
</g>
<g id="Clip path group_7">
<mask id="mask6_328_3126" style="mask-type:luminance" maskUnits="userSpaceOnUse" x="17" y="32" width="2" height="23">
<g id="clippath-6">
<path id="Vector_13" d="M17.3467 32.576V54.031C17.5911 54.06 17.8398 54.089 18.0884 54.1138V32.4849C17.8398 32.5139 17.5911 32.5429 17.3467 32.576Z" fill="white"/>
</g>
</mask>
<g mask="url(#mask6_328_3126)">
<g id="Group_8">
<path id="Vector_14" d="M18.0884 32.4849H17.3467V54.1138H18.0884V32.4849Z" fill="url(#paint6_linear_328_3126)"/>
</g>
</g>
</g>
<g id="Clip path group_8">
<mask id="mask7_328_3126" style="mask-type:luminance" maskUnits="userSpaceOnUse" x="3" y="37" width="2" height="13">
<g id="clippath-7">
<path id="Vector_15" d="M3.62402 37.9046V49.0257C3.95965 49.295 4.32013 49.5602 4.69719 49.813V37.0676C4.31599 37.337 3.95965 37.6187 3.62402 37.9046Z" fill="white"/>
</g>
</mask>
<g mask="url(#mask7_328_3126)">
<g id="Group_9">
<path id="Vector_16" d="M4.69719 37.0632H3.62402V49.8086H4.69719V37.0632Z" fill="url(#paint7_linear_328_3126)"/>
</g>
</g>
</g>
<g id="Clip path group_9">
<mask id="mask8_328_3126" style="mask-type:luminance" maskUnits="userSpaceOnUse" x="22" y="32" width="2" height="23">
<g id="clippath-8">
<path id="Vector_17" d="M22.8252 32.2073V54.3708C22.8666 54.3708 22.9081 54.3708 22.9536 54.3708C23.1235 54.3708 23.2893 54.3708 23.4591 54.3666V32.2114C23.2893 32.2114 23.1235 32.2031 22.9536 32.2031C22.9122 32.2031 22.8708 32.2031 22.8252 32.2031" fill="white"/>
</g>
</mask>
<g mask="url(#mask8_328_3126)">
<g id="Group_10">
<path id="Vector_18" d="M23.4591 32.2073H22.8252V54.3749H23.4591V32.2073Z" fill="url(#paint8_linear_328_3126)"/>
</g>
</g>
</g>
<g id="Clip path group_10">
<mask id="mask9_328_3126" style="mask-type:luminance" maskUnits="userSpaceOnUse" x="7" y="34" width="2" height="18">
<g id="clippath-9">
<path id="Vector_19" d="M8.55016 34.9253C8.22282 35.0703 7.89963 35.2153 7.58887 35.3686V51.4039C7.90377 51.5489 8.22282 51.6857 8.5543 51.8224V34.9253H8.55016Z" fill="white"/>
</g>
</mask>
<g mask="url(#mask9_328_3126)">
<g id="Group_11">
<path id="Vector_20" d="M8.55039 34.9253H7.58496V51.8224H8.55039V34.9253Z" fill="url(#paint9_linear_328_3126)"/>
</g>
</g>
</g>
<g id="Clip path group_11">
<mask id="mask10_328_3126" style="mask-type:luminance" maskUnits="userSpaceOnUse" x="0" y="39" width="2" height="8">
<g id="clippath-10">
<path id="Vector_21" d="M0.491211 42.5538V44.6586C0.714959 45.4832 0.888985 46.0633 1.4525 46.8215V39.7942C0.884842 40.6022 0.710816 41.6753 0.491211 42.5579" fill="white"/>
</g>
</mask>
<g mask="url(#mask10_328_3126)">
<g id="Group_12">
<path id="Vector_22" d="M1.4525 39.7942H0.491211V46.8215H1.4525V39.7942Z" fill="url(#paint10_linear_328_3126)"/>
</g>
</g>
</g>
<g id="Clip path group_12">
<mask id="mask11_328_3126" style="mask-type:luminance" maskUnits="userSpaceOnUse" x="12" y="33" width="2" height="21">
<g id="clippath-11">
<path id="Vector_23" d="M12.2139 33.6285V53.0407C12.4956 53.1153 12.7774 53.1858 13.0674 53.2562V33.4006C12.7774 33.4752 12.4956 33.5498 12.2139 33.6285Z" fill="white"/>
</g>
</mask>
<g mask="url(#mask11_328_3126)">
<g id="Group_13">
<path id="Vector_24" d="M13.0674 33.4006H12.2139V53.2562H13.0674V33.4006Z" fill="url(#paint11_linear_328_3126)"/>
</g>
</g>
</g>
<g id="Clip path group_13">
<mask id="mask12_328_3126" style="mask-type:luminance" maskUnits="userSpaceOnUse" x="37" y="17" width="2" height="31">
<g id="clippath-12">
<path id="Vector_25" d="M37.7871 46.7386C38.0772 46.838 38.3631 46.9374 38.6407 47.0452V18.0739C38.3631 17.9165 38.0772 17.7632 37.7871 17.614V46.7386Z" fill="white"/>
</g>
</mask>
<g mask="url(#mask12_328_3126)">
<g id="Group_14">
<path id="Vector_26" d="M38.6407 17.614H37.7871V47.0452H38.6407V17.614Z" fill="url(#paint12_linear_328_3126)"/>
</g>
</g>
</g>
<g id="Clip path group_14">
<mask id="mask13_328_3126" style="mask-type:luminance" maskUnits="userSpaceOnUse" x="44" y="24" width="2" height="29">
<g id="clippath-13">
<path id="Vector_27" d="M44.877 51.1844C45.167 51.6071 45.3783 52.0463 45.5109 52.4938V26.2572C45.3825 25.586 45.167 24.9313 44.877 24.2932V51.1886V51.1844Z" fill="white"/>
</g>
</mask>
<g mask="url(#mask13_328_3126)">
<g id="Group_15">
<path id="Vector_28" d="M45.5109 24.2932H44.877V52.4938H45.5109V24.2932Z" fill="url(#paint13_linear_328_3126)"/>
</g>
</g>
</g>
<g id="Clip path group_15">
<mask id="mask14_328_3126" style="mask-type:luminance" maskUnits="userSpaceOnUse" x="41" y="20" width="2" height="29">
<g id="clippath-14">
<path id="Vector_29" d="M41.748 48.4912C42.0091 48.6404 42.2535 48.7979 42.4897 48.9553V20.9412C42.2535 20.705 42.0091 20.473 41.748 20.2451V48.4912Z" fill="white"/>
</g>
</mask>
<g mask="url(#mask14_328_3126)">
<g id="Group_16">
<path id="Vector_30" d="M42.4897 20.2451H41.748V48.9553H42.4897V20.2451Z" fill="url(#paint14_linear_328_3126)"/>
</g>
</g>
</g>
<g id="Clip path group_16">
<mask id="mask15_328_3126" style="mask-type:luminance" maskUnits="userSpaceOnUse" x="33" y="15" width="2" height="31">
<g id="clippath-15">
<path id="Vector_31" d="M33.1592 45.5161C33.4865 45.5824 33.8056 45.6487 34.1246 45.7191V16.0849C33.8097 15.9772 33.4865 15.8778 33.1592 15.7783V45.5161Z" fill="white"/>
</g>
</mask>
<g mask="url(#mask15_328_3126)">
<g id="Group_17">
<path id="Vector_32" d="M34.1246 15.7783H33.1592V45.7191H34.1246V15.7783Z" fill="url(#paint15_linear_328_3126)"/>
</g>
</g>
</g>
<g id="Clip path group_17">
<mask id="mask16_328_3126" style="mask-type:luminance" maskUnits="userSpaceOnUse" x="22" y="14" width="2" height="31">
<g id="clippath-16">
<path id="Vector_33" d="M22.5479 14.3572V44.5673C22.7012 44.5673 22.8503 44.5632 23.0036 44.5632C23.2481 44.5632 23.4884 44.5673 23.7329 44.5714V14.3613C23.4926 14.3613 23.2481 14.3489 23.0036 14.3489C22.8503 14.3489 22.7012 14.353 22.5479 14.3572Z" fill="white"/>
</g>
</mask>
<g mask="url(#mask16_328_3126)">
<g id="Group_18">
<path id="Vector_34" d="M23.7329 14.353H22.5479V44.5756H23.7329V14.353Z" fill="url(#paint16_linear_328_3126)"/>
</g>
</g>
</g>
<g id="Clip path group_18">
<mask id="mask17_328_3126" style="mask-type:luminance" maskUnits="userSpaceOnUse" x="28" y="14" width="2" height="31">
<g id="clippath-17">
<path id="Vector_35" d="M28.0254 44.7911C28.3859 44.8243 28.7464 44.8574 29.0986 44.8989V14.8503C28.7422 14.7923 28.3859 14.7384 28.0254 14.6887V44.7911Z" fill="white"/>
</g>
</mask>
<g mask="url(#mask17_328_3126)">
<g id="Group_19">
<path id="Vector_36" d="M29.0986 14.6887H28.0254V44.8989H29.0986V14.6887Z" fill="url(#paint17_linear_328_3126)"/>
</g>
</g>
</g>
<g id="Clip path group_19">
<mask id="mask18_328_3126" style="mask-type:luminance" maskUnits="userSpaceOnUse" x="11" y="1" width="3" height="33">
<g id="clippath-18">
<path id="Vector_37" d="M11.8359 1.94732V33.819C12.3622 33.6657 12.8967 33.5248 13.4478 33.3922V1.39624C12.8967 1.56612 12.3622 1.74844 11.8359 1.94732Z" fill="white"/>
</g>
</mask>
<g mask="url(#mask18_328_3126)">
<g id="Group_20">
<path id="Vector_38" d="M13.4478 1.39624H11.8359V33.819H13.4478V1.39624Z" fill="url(#paint18_linear_328_3126)"/>
</g>
</g>
</g>
<g id="Clip path group_20">
<mask id="mask19_328_3126" style="mask-type:luminance" maskUnits="userSpaceOnUse" x="16" y="0" width="3" height="33">
<g id="clippath-19">
<path id="Vector_39" d="M16.8418 0.563495V32.7459C17.4177 32.6631 18.002 32.5885 18.5945 32.5305V0.281738C18.002 0.360464 17.4177 0.455765 16.8418 0.559352" fill="white"/>
</g>
</mask>
<g mask="url(#mask19_328_3126)">
<g id="Group_21">
<path id="Vector_40" d="M18.5945 0.281738H16.8418V32.7418H18.5945V0.281738Z" fill="url(#paint19_linear_328_3126)"/>
</g>
</g>
</g>
<g id="Clip path group_21">
<mask id="mask20_328_3126" style="mask-type:luminance" maskUnits="userSpaceOnUse" x="0" y="9" width="2" height="34">
<g id="clippath-20">
<path id="Vector_41" d="M0.491211 13.2714V42.6197C0.694242 41.7122 0.872411 40.6142 1.4525 39.7814V9.68726C0.868268 10.7563 0.690098 12.1071 0.491211 13.2714Z" fill="white"/>
</g>
</mask>
<g mask="url(#mask20_328_3126)">
<g id="Group_22">
<path id="Vector_42" d="M1.4525 9.68726H0.491211V42.6197H1.4525V9.68726Z" fill="url(#paint20_linear_328_3126)"/>
</g>
</g>
</g>
<g id="Clip path group_22">
<mask id="mask21_328_3126" style="mask-type:luminance" maskUnits="userSpaceOnUse" x="3" y="6" width="2" height="33">
<g id="clippath-21">
<path id="Vector_43" d="M3.5 7.35888V38.0248C3.9102 37.6685 4.34941 37.3287 4.82591 36.9972V6.03711C4.34941 6.45974 3.90606 6.9031 3.5 7.35888Z" fill="white"/>
</g>
</mask>
<g mask="url(#mask21_328_3126)">
<g id="Group_23">
<path id="Vector_44" d="M4.82591 6.03711H3.5V38.0248H4.82591V6.03711Z" fill="url(#paint21_linear_328_3126)"/>
</g>
</g>
</g>
<g id="Clip path group_23">
<mask id="mask22_328_3126" style="mask-type:luminance" maskUnits="userSpaceOnUse" x="21" y="0" width="4" height="33">
<g id="clippath-22">
<path id="Vector_45" d="M21.8135 0.0165743V32.3192C22.2071 32.3109 22.6049 32.3026 23.0027 32.3026C23.4957 32.3026 23.9847 32.315 24.4695 32.3316V0.0331478C23.9847 0.0124304 23.4957 0 23.0027 0C22.6049 0 22.2071 0.00828744 21.8135 0.0207179" fill="white"/>
</g>
</mask>
<g mask="url(#mask22_328_3126)">
<g id="Group_24">
<path id="Vector_46" d="M24.4695 -0.00415039H21.8135V32.3274H24.4695V-0.00415039Z" fill="url(#paint22_linear_328_3126)"/>
</g>
</g>
</g>
<g id="Clip path group_24">
<mask id="mask23_328_3126" style="mask-type:luminance" maskUnits="userSpaceOnUse" x="7" y="3" width="2" height="33">
<g id="clippath-23">
<path id="Vector_47" d="M7.33203 4.16435V35.5429C7.80439 35.3109 8.29332 35.0872 8.80297 34.8759V3.31079C8.29332 3.58012 7.80439 3.87016 7.33203 4.16849" fill="white"/>
</g>
</mask>
<g mask="url(#mask23_328_3126)">
<g id="Group_25">
<path id="Vector_48" d="M8.80297 3.31079H7.33203V35.5429H8.80297V3.31079Z" fill="url(#paint23_linear_328_3126)"/>
</g>
</g>
</g>
</g>
</g>
<defs>
<linearGradient id="paint0_linear_328_3126" x1="34.0315" y1="61.9891" x2="34.0315" y2="45.4732" gradientUnits="userSpaceOnUse">
<stop stop-color="#D2A160"/>
<stop offset="0.9" stop-color="#0D0600"/>
<stop offset="1" stop-color="#0D0600"/>
</linearGradient>
<linearGradient id="paint1_linear_328_3126" x1="28.2069" y1="63.0987" x2="28.2069" y2="44.9047" gradientUnits="userSpaceOnUse">
<stop stop-color="#D2A160"/>
<stop offset="0.9" stop-color="#0D0600"/>
<stop offset="1" stop-color="#0D0600"/>
</linearGradient>
<linearGradient id="paint2_linear_328_3126" x1="22.9092" y1="63.3728" x2="22.9092" y2="44.5904" gradientUnits="userSpaceOnUse">
<stop stop-color="#D2A160"/>
<stop offset="0.9" stop-color="#0D0600"/>
<stop offset="1" stop-color="#0D0600"/>
</linearGradient>
<linearGradient id="paint3_linear_328_3126" x1="46.1191" y1="55.0515" x2="46.1191" y2="50.9992" gradientUnits="userSpaceOnUse">
<stop stop-color="#D2A160"/>
<stop offset="0.9" stop-color="#0D0600"/>
<stop offset="1" stop-color="#0D0600"/>
</linearGradient>
<linearGradient id="paint4_linear_328_3126" x1="37.3469" y1="60.7493" x2="37.3469" y2="46.968" gradientUnits="userSpaceOnUse">
<stop stop-color="#D2A160"/>
<stop offset="0.9" stop-color="#0D0600"/>
<stop offset="1" stop-color="#0D0600"/>
</linearGradient>
<linearGradient id="paint5_linear_328_3126" x1="41.3116" y1="58.6114" x2="41.3116" y2="48.7043" gradientUnits="userSpaceOnUse">
<stop stop-color="#D2A160"/>
<stop offset="0.9" stop-color="#0D0600"/>
<stop offset="1" stop-color="#0D0600"/>
</linearGradient>
<linearGradient id="paint6_linear_328_3126" x1="17.9002" y1="54.0658" x2="17.9002" y2="32.4368" gradientUnits="userSpaceOnUse">
<stop stop-color="#D2A160"/>
<stop offset="0.9" stop-color="#0D0600"/>
<stop offset="1" stop-color="#0D0600"/>
</linearGradient>
<linearGradient id="paint7_linear_328_3126" x1="4.88563" y1="49.6425" x2="4.88563" y2="36.8972" gradientUnits="userSpaceOnUse">
<stop stop-color="#D2A160"/>
<stop offset="0.9" stop-color="#0D0600"/>
<stop offset="1" stop-color="#0D0600"/>
</linearGradient>
<linearGradient id="paint8_linear_328_3126" x1="23.4923" y1="54.2775" x2="23.4923" y2="32.1099" gradientUnits="userSpaceOnUse">
<stop stop-color="#D2A160"/>
<stop offset="0.9" stop-color="#0D0600"/>
<stop offset="1" stop-color="#0D0600"/>
</linearGradient>
<linearGradient id="paint9_linear_328_3126" x1="8.53829" y1="51.7033" x2="8.53829" y2="34.8062" gradientUnits="userSpaceOnUse">
<stop stop-color="#D2A160"/>
<stop offset="0.9" stop-color="#0D0600"/>
<stop offset="1" stop-color="#0D0600"/>
</linearGradient>
<linearGradient id="paint10_linear_328_3126" x1="1.48946" y1="46.7027" x2="1.48946" y2="39.6754" gradientUnits="userSpaceOnUse">
<stop stop-color="#D2A160"/>
<stop offset="0.9" stop-color="#0D0600"/>
<stop offset="1" stop-color="#0D0600"/>
</linearGradient>
<linearGradient id="paint11_linear_328_3126" x1="13.082" y1="53.1263" x2="13.082" y2="33.2707" gradientUnits="userSpaceOnUse">
<stop stop-color="#D2A160"/>
<stop offset="0.9" stop-color="#0D0600"/>
<stop offset="1" stop-color="#0D0600"/>
</linearGradient>
<linearGradient id="paint12_linear_328_3126" x1="37.9483" y1="47.0763" x2="37.9483" y2="17.6451" gradientUnits="userSpaceOnUse">
<stop stop-color="#D2A160"/>
<stop offset="0.9" stop-color="#0D0600"/>
<stop offset="1" stop-color="#0D0600"/>
</linearGradient>
<linearGradient id="paint13_linear_328_3126" x1="46.0065" y1="52.3157" x2="46.0065" y2="24.1151" gradientUnits="userSpaceOnUse">
<stop stop-color="#D2A160"/>
<stop offset="0.9" stop-color="#0D0600"/>
<stop offset="1" stop-color="#0D0600"/>
</linearGradient>
<linearGradient id="paint14_linear_328_3126" x1="41.318" y1="49.0752" x2="41.318" y2="20.365" gradientUnits="userSpaceOnUse">
<stop stop-color="#D2A160"/>
<stop offset="0.9" stop-color="#0D0600"/>
<stop offset="1" stop-color="#0D0600"/>
</linearGradient>
<linearGradient id="paint15_linear_328_3126" x1="33.4446" y1="45.7457" x2="33.4446" y2="15.8049" gradientUnits="userSpaceOnUse">
<stop stop-color="#D2A160"/>
<stop offset="0.9" stop-color="#0D0600"/>
<stop offset="1" stop-color="#0D0600"/>
</linearGradient>
<linearGradient id="paint16_linear_328_3126" x1="22.5001" y1="44.675" x2="22.5001" y2="14.4524" gradientUnits="userSpaceOnUse">
<stop stop-color="#D2A160"/>
<stop offset="0.9" stop-color="#0D0600"/>
<stop offset="1" stop-color="#0D0600"/>
</linearGradient>
<linearGradient id="paint17_linear_328_3126" x1="28.0636" y1="44.9795" x2="28.0636" y2="14.7694" gradientUnits="userSpaceOnUse">
<stop stop-color="#D2A160"/>
<stop offset="0.9" stop-color="#0D0600"/>
<stop offset="1" stop-color="#0D0600"/>
</linearGradient>
<linearGradient id="paint18_linear_328_3126" x1="12.7775" y1="33.7827" x2="12.7775" y2="1.35999" gradientUnits="userSpaceOnUse">
<stop stop-color="#D2A160"/>
<stop offset="0.9" stop-color="#0D0600"/>
<stop offset="1" stop-color="#0D0600"/>
</linearGradient>
<linearGradient id="paint19_linear_328_3126" x1="17.7278" y1="32.6994" x2="17.7278" y2="0.239392" gradientUnits="userSpaceOnUse">
<stop stop-color="#D2A160"/>
<stop offset="0.9" stop-color="#0D0600"/>
<stop offset="1" stop-color="#0D0600"/>
</linearGradient>
<linearGradient id="paint20_linear_328_3126" x1="1.45217" y1="42.4794" x2="1.45217" y2="9.54704" gradientUnits="userSpaceOnUse">
<stop stop-color="#D2A160"/>
<stop offset="0.9" stop-color="#0D0600"/>
<stop offset="1" stop-color="#0D0600"/>
</linearGradient>
<linearGradient id="paint21_linear_328_3126" x1="4.38836" y1="37.9519" x2="4.38836" y2="5.96418" gradientUnits="userSpaceOnUse">
<stop stop-color="#D2A160"/>
<stop offset="0.9" stop-color="#0D0600"/>
<stop offset="1" stop-color="#0D0600"/>
</linearGradient>
<linearGradient id="paint22_linear_328_3126" x1="24.0516" y1="32.1431" x2="24.0516" y2="-0.188494" gradientUnits="userSpaceOnUse">
<stop stop-color="#D2A160"/>
<stop offset="0.9" stop-color="#0D0600"/>
<stop offset="1" stop-color="#0D0600"/>
</linearGradient>
<linearGradient id="paint23_linear_328_3126" x1="8.54317" y1="35.3997" x2="8.54317" y2="3.16755" gradientUnits="userSpaceOnUse">
<stop stop-color="#D2A160"/>
<stop offset="0.9" stop-color="#0D0600"/>
<stop offset="1" stop-color="#0D0600"/>
</linearGradient>
</defs>
</svg>
