<svg width="42" height="50" viewBox="0 0 42 50" fill="none" xmlns="http://www.w3.org/2000/svg">
<path id="Vector" d="M21.9276 0C23.809 0 25.5878 0.102594 27.2298 0.342052C28.9061 0.581511 30.4112 0.992032 31.7795 1.53937C32.8058 1.91566 33.7636 2.42877 34.6188 3.07873C35.4741 3.72869 36.2608 4.37865 36.9108 5.06282C37.595 5.74699 38.1081 6.39697 38.5186 7.01272C38.9291 7.62847 39.1686 8.14157 39.2712 8.58628C39.5448 9.40728 39.3738 10.1599 38.7923 10.844C38.3134 11.5624 37.6292 11.9387 36.6713 11.9387H36.3635L36.295 11.6308C34.0373 6.32852 29.9665 3.66027 24.0143 3.66027C19.1567 3.66027 15.2569 5.3707 12.2808 8.75733C9.37309 12.2466 7.90213 17.7883 7.90213 25.3483C7.90213 27.914 8.21 30.377 8.82575 32.8058C9.4415 35.2346 10.3993 37.3897 11.7335 39.3054C13.0334 41.221 14.7096 42.7262 16.7279 43.8893C18.7462 45.0182 21.175 45.5997 24.0143 45.5997C27.5719 45.5997 30.5138 44.7445 32.84 43.0683C35.2004 41.3579 37.2529 39.0659 39.1001 36.1582L41.3579 37.6292C39.237 41.7342 36.6029 44.7103 33.49 46.5576C30.377 48.4048 26.5115 49.2942 21.8933 49.2942C18.4041 49.2942 15.2911 48.6442 12.5887 47.3785C9.88621 46.1128 7.59425 44.3682 5.71279 42.1789C3.83133 39.9896 2.42879 37.4581 1.43675 34.5504C0.478917 31.6427 0 28.5981 0 25.3483C0 22.0986 0.513128 19.1225 1.53938 16.0779C2.56563 13.0334 4.00237 10.3309 5.91804 7.93631C7.83371 5.54172 10.1257 3.66029 12.8281 2.18933C15.5306 0.718373 18.5751 0 21.8933 0H21.9276Z" fill="white"/>
</svg>
