<svg width="160" height="15" viewBox="0 0 160 15" fill="none" xmlns="http://www.w3.org/2000/svg">
<g id="Group">
<path id="Vector" d="M6.07078 0.411865C6.59168 0.411865 7.08416 0.440269 7.53876 0.506565C8.00283 0.57286 8.41954 0.686516 8.79837 0.838048C9.0825 0.942227 9.34768 1.08429 9.58445 1.26423C9.82122 1.44418 10.039 1.62412 10.219 1.81354C10.4084 2.00296 10.5505 2.18291 10.6641 2.35338C10.7778 2.52386 10.8441 2.66591 10.8725 2.78903C10.9482 3.01633 10.9009 3.22469 10.7399 3.41411C10.6073 3.61299 10.4179 3.71716 10.1527 3.71716H10.0675L10.0485 3.63193C9.42344 2.16396 8.29642 1.42523 6.6485 1.42523C5.30365 1.42523 4.22398 1.89878 3.40002 2.83639C2.595 3.80241 2.18775 5.33667 2.18775 7.42972C2.18775 8.14003 2.27299 8.82193 2.44347 9.49436C2.61394 10.1668 2.87912 10.7634 3.24848 11.2938C3.60837 11.8242 4.07244 12.2409 4.63122 12.5629C5.19 12.8754 5.86242 13.0364 6.6485 13.0364C7.63346 13.0364 8.44795 12.7997 9.09197 12.3356C9.74545 11.8621 10.3137 11.2275 10.8251 10.4225L11.4502 10.8297C10.863 11.9662 10.1338 12.7902 9.27191 13.3016C8.41007 13.813 7.33987 14.0593 6.06131 14.0593C5.09529 14.0593 4.23345 13.8793 3.48525 13.5289C2.73706 13.1785 2.10252 12.6955 1.58162 12.0894C1.06073 11.4832 0.672427 10.7824 0.397774 9.97736C0.132591 9.17235 0 8.32944 0 7.42972C0 6.52999 0.142063 5.70604 0.426187 4.86314C0.710311 4.02024 1.10808 3.27204 1.63845 2.60908C2.16881 1.94613 2.80336 1.42524 3.55155 1.018C4.29974 0.610751 5.14264 0.411865 6.06131 0.411865H6.07078Z" fill="white"/>
<path id="Vector_2" d="M16.943 12.9891L22.114 0.696045H22.2182C22.4171 0.696045 22.6065 0.752868 22.7675 0.857047C22.9285 0.961226 23.0516 1.11276 23.1274 1.30218L27.2377 11.3507C27.4366 11.8242 27.6355 12.222 27.8249 12.544C28.0143 12.866 28.1848 13.1217 28.3553 13.3206C28.5257 13.5195 28.6678 13.671 28.8004 13.7657C28.933 13.8604 29.0277 13.9078 29.0845 13.9078H28.1564C27.3324 13.832 26.6884 13.6047 26.2149 13.207C25.7413 12.8092 25.372 12.222 25.0784 11.4454L24.5196 9.94901H19.3485L18.0889 12.9797C18.0321 13.1122 18.051 13.2259 18.1552 13.3301C18.373 13.5479 18.6382 13.671 18.9602 13.6994H15.8633C16.0906 13.6805 16.2989 13.6142 16.4884 13.4911C16.6778 13.368 16.8293 13.207 16.943 13.0081V12.9891ZM19.7368 8.91669H24.0271L21.9246 3.83088L19.7368 8.91669Z" fill="white"/>
<path id="Vector_3" d="M34.1046 11.6537V11.5021C34.1046 11.2843 34.1803 11.0949 34.3414 10.9434C34.5024 10.7824 34.6918 10.7066 34.9001 10.7066H35.0043L35.0233 10.7918C35.3074 11.6158 35.7336 12.184 36.3018 12.506C36.8606 12.8186 37.5709 12.9796 38.4233 12.9796C38.6979 12.9796 38.9726 12.9512 39.2567 12.8943C39.5408 12.8375 39.7871 12.7428 40.0144 12.6102C40.2417 12.4776 40.4216 12.3072 40.5637 12.0893C40.7057 11.8715 40.7815 11.6063 40.7815 11.2843C40.7815 10.9623 40.7247 10.6782 40.611 10.4319C40.4974 10.1857 40.3364 9.95839 40.147 9.7595C39.9575 9.56062 39.7302 9.38068 39.484 9.21968C39.2378 9.05867 38.9915 8.89766 38.7453 8.7556L36.387 7.37286C36.0366 7.17397 35.7241 6.95615 35.4494 6.73832C35.1653 6.51102 34.9285 6.26478 34.7202 5.99013C34.5213 5.71548 34.3603 5.41241 34.2561 5.08093C34.1519 4.74945 34.0951 4.37062 34.0951 3.9539C34.0951 3.40459 34.1993 2.91212 34.3982 2.48594C34.5971 2.05028 34.8812 1.68091 35.2316 1.37784C35.582 1.07478 35.9987 0.847481 36.4628 0.686477C36.9363 0.525473 37.4288 0.449707 37.9497 0.449707C38.499 0.449707 38.9726 0.49706 39.3798 0.582298C39.7871 0.667535 40.128 0.771715 40.4027 0.894836C40.6868 1.01796 40.9141 1.15055 41.094 1.29261C41.274 1.43467 41.4255 1.56726 41.5392 1.68091C41.738 1.89874 41.8991 2.1071 42.0222 2.31546C42.1453 2.52381 42.2021 2.75111 42.2021 2.99735C42.2021 3.18677 42.1263 3.34777 41.9843 3.49931C41.8422 3.65084 41.6718 3.71713 41.4823 3.71713H41.2456L41.1982 3.6319C40.9141 2.8837 40.4974 2.33439 39.967 1.98397C39.4366 1.63355 38.7547 1.46309 37.9308 1.46309C37.6751 1.46309 37.4194 1.51043 37.1637 1.61461C36.9079 1.71879 36.6901 1.85139 36.4912 2.02186C36.2923 2.19234 36.1408 2.40069 36.0177 2.63746C35.8946 2.87423 35.8377 3.12994 35.8377 3.40459C35.8377 3.87813 35.9893 4.28539 36.2923 4.61687C36.6049 4.9294 37.1447 5.32717 37.8929 5.78177L40.2511 7.19291C40.5826 7.38233 40.8951 7.58122 41.1887 7.78958C41.4823 7.99793 41.7475 8.23471 41.9653 8.49042C42.1926 8.74613 42.3631 9.03973 42.4957 9.36173C42.6283 9.67427 42.6946 10.0436 42.6946 10.4698C42.6946 11.0759 42.5904 11.5968 42.3726 12.042C42.1548 12.4871 41.8612 12.847 41.4823 13.1501C41.1035 13.4436 40.6679 13.6615 40.1754 13.8035C39.6734 13.9361 39.1525 14.0119 38.5843 14.0119C38.2339 14.0119 37.8077 13.9835 37.2962 13.9267C36.7848 13.8698 36.2923 13.7562 35.8093 13.5762C35.3263 13.3963 34.9285 13.169 34.5876 12.8659C34.2466 12.5629 34.0762 12.1651 34.0762 11.6726L34.1046 11.6537Z" fill="white"/>
<path id="Vector_4" d="M48.7164 12.9891L53.8874 0.696045H53.9916C54.1905 0.696045 54.3799 0.752868 54.5409 0.857047C54.7019 0.961226 54.8251 1.11276 54.9008 1.30218L59.0112 11.3507C59.21 11.8242 59.4089 12.222 59.5983 12.544C59.7878 12.866 59.9582 13.1217 60.1287 13.3206C60.2992 13.5195 60.4412 13.671 60.5738 13.7657C60.7064 13.8604 60.8011 13.9078 60.858 13.9078H59.9298C59.1059 13.832 58.4618 13.6047 57.9883 13.207C57.5148 12.8092 57.1454 12.222 56.8518 11.4454L56.293 9.94901H51.122L49.8624 12.9797C49.8055 13.1122 49.8245 13.2259 49.9287 13.3301C50.1465 13.5479 50.4117 13.671 50.7337 13.6994H47.6367C47.864 13.6805 48.0724 13.6142 48.2618 13.4911C48.4512 13.368 48.6027 13.207 48.7164 13.0081V12.9891ZM51.5103 8.91669H55.8006L53.698 3.83088L51.5103 8.91669Z" fill="white"/>
<path id="Vector_5" d="M65.8398 13.6804C66.1524 13.6615 66.427 13.5478 66.6449 13.3205C66.8627 13.0932 66.9669 12.8281 66.9669 12.506V1.9177C66.9669 1.61464 66.8627 1.34945 66.6449 1.13162C66.427 0.904324 66.1619 0.79067 65.8398 0.771729H70.3385C71.7496 0.771729 72.9808 1.0085 74.0226 1.48204C75.1023 1.95558 75.6421 2.88373 75.6421 4.24752C75.6421 4.92942 75.4338 5.4882 75.0265 5.93333C74.6193 6.37845 74.1173 6.72886 73.5207 6.9751C74.3825 7.16452 75.0644 7.48653 75.5664 7.9506C76.0683 8.41467 76.3145 9.11551 76.3145 10.0721C76.3145 11.4264 75.7842 12.364 74.714 12.8849C73.7006 13.4058 72.441 13.6615 70.9257 13.6615H65.8398V13.6804ZM68.9557 1.87982V6.62469H70.6415C71.1056 6.62469 71.5791 6.52998 72.0716 6.34056C72.5357 6.14168 72.8956 5.85756 73.1608 5.4882C73.4259 5.11884 73.5585 4.68317 73.5585 4.18122C73.5585 3.74557 73.4544 3.37621 73.2555 3.06367C73.0566 2.75114 72.7914 2.49541 72.4694 2.29653C72.1474 2.09764 71.7875 1.94611 71.3992 1.8514C71.0109 1.75669 70.6226 1.70934 70.2532 1.70934C69.8839 1.70934 69.4482 1.76618 68.9557 1.87982ZM70.6415 12.7428C71.0772 12.7428 71.4939 12.7049 71.9106 12.6197C72.3179 12.5439 72.6967 12.4019 73.0282 12.2125C73.3597 12.0136 73.6248 11.7579 73.8332 11.4359C74.0321 11.1139 74.1363 10.6971 74.1363 10.1952C74.1363 9.69323 74.0321 9.27652 73.8332 8.93557C73.6343 8.60409 73.3691 8.3389 73.0471 8.14949C72.7251 7.9506 72.3463 7.81801 71.9296 7.75172C71.5129 7.67595 71.0867 7.64754 70.651 7.64754H68.9652V12.5155C69.5524 12.6765 70.1206 12.7523 70.651 12.7523L70.6415 12.7428Z" fill="white"/>
<path id="Vector_6" d="M81.3359 13.6804C81.6485 13.6615 81.9137 13.5478 82.122 13.33C82.3304 13.1122 82.444 12.847 82.4535 12.525V1.9177C82.4346 1.60517 82.3304 1.33998 82.122 1.13162C81.9137 0.923266 81.6485 0.800141 81.3359 0.771729H82.6145C83.0596 0.771729 83.41 0.828561 83.6563 0.94221C83.9025 1.05586 84.0825 1.22633 84.2056 1.44416C84.3287 1.66199 84.4045 1.91769 84.4234 2.22076C84.4424 2.52383 84.4518 2.85531 84.4518 3.2152V12.6292H88.3727C88.5906 12.6292 88.8084 12.6292 89.0452 12.6102C89.2725 12.5913 89.4998 12.5629 89.7081 12.525C89.9165 12.4871 90.1059 12.4113 90.2669 12.3166C90.4374 12.2219 90.5605 12.1083 90.6457 11.9568C90.9488 12.1746 91.1193 12.3829 91.1477 12.5913C91.1761 12.7997 91.1287 12.9891 91.0056 13.1501C90.8825 13.3111 90.7215 13.4437 90.5037 13.5384C90.2953 13.6331 90.087 13.671 89.8881 13.6615H81.3359V13.6804Z" fill="white"/>
<path id="Vector_7" d="M96.9234 12.9891L102.094 0.696045H102.199C102.398 0.696045 102.587 0.752868 102.748 0.857047C102.909 0.961226 103.032 1.11276 103.108 1.30218L107.218 11.3507C107.417 11.8242 107.616 12.222 107.805 12.544C107.995 12.866 108.165 13.1217 108.336 13.3206C108.506 13.5195 108.648 13.671 108.781 13.7657C108.913 13.8604 109.008 13.9078 109.065 13.9078H108.137C107.313 13.832 106.669 13.6047 106.195 13.207C105.722 12.8092 105.352 12.222 105.059 11.4454L104.5 9.94901H99.329L98.0694 12.9797C98.0126 13.1122 98.0315 13.2259 98.1357 13.3301C98.3535 13.5479 98.6187 13.671 98.9407 13.6994H95.8438C96.071 13.6805 96.2794 13.6142 96.4688 13.4911C96.6582 13.368 96.8098 13.207 96.9234 13.0081V12.9891ZM99.7173 8.91669H104.008L101.905 3.83088L99.7173 8.91669Z" fill="white"/>
<path id="Vector_8" d="M115.176 12.4966V2.00298C115.176 1.6715 115.071 1.39685 114.854 1.17902C114.636 0.961193 114.371 0.847548 114.049 0.828607H115.176L115.327 0.847538C116.123 0.951717 116.786 1.32108 117.316 1.97457L123.785 10.0058V1.90828C123.775 1.60521 123.652 1.34949 123.434 1.13166C123.216 0.913837 122.961 0.800192 122.657 0.78125H125.944C125.622 0.800192 125.357 0.913831 125.139 1.14113C124.921 1.36843 124.817 1.63361 124.817 1.95562L124.798 13.8794H124.665C124.362 13.8794 124.125 13.7562 123.955 13.51L116.208 3.87819V12.5345C116.217 12.8471 116.331 13.1122 116.539 13.3206C116.748 13.5289 117.013 13.6521 117.325 13.6805H114.039C114.352 13.6521 114.626 13.5289 114.844 13.3111C115.062 13.0933 115.166 12.8186 115.166 12.4872L115.176 12.4966Z" fill="white"/>
<path id="Vector_9" d="M136.994 0.411865C137.515 0.411865 138.008 0.440269 138.462 0.506565C138.926 0.57286 139.343 0.686516 139.722 0.838048C140.006 0.942227 140.271 1.08429 140.508 1.26423C140.745 1.44418 140.963 1.62412 141.143 1.81354C141.322 2.00296 141.474 2.18291 141.588 2.35338C141.701 2.52386 141.768 2.66591 141.796 2.78903C141.872 3.01633 141.824 3.22469 141.663 3.41411C141.531 3.61299 141.341 3.71716 141.076 3.71716H140.991L140.972 3.63193C140.347 2.16396 139.22 1.42523 137.572 1.42523C136.227 1.42523 135.148 1.89878 134.324 2.83639C133.519 3.80241 133.111 5.33667 133.111 7.42972C133.111 8.14003 133.197 8.82193 133.367 9.49436C133.537 10.1668 133.803 10.7634 134.172 11.2938C134.532 11.8242 134.996 12.2409 135.555 12.5629C136.114 12.8754 136.786 13.0364 137.563 13.0364C138.548 13.0364 139.362 12.7997 140.006 12.3356C140.65 11.8715 141.228 11.2275 141.739 10.4225L142.364 10.8297C141.777 11.9662 141.048 12.7902 140.186 13.3016C139.324 13.813 138.254 14.0593 136.975 14.0593C136.009 14.0593 135.148 13.8793 134.399 13.5289C133.651 13.1785 133.017 12.6955 132.496 12.0894C131.975 11.4832 131.586 10.7824 131.312 9.97736C131.037 9.17235 130.914 8.32944 130.914 7.42972C130.914 6.52999 131.056 5.70604 131.34 4.86314C131.624 4.02024 132.022 3.27204 132.553 2.60908C133.083 1.94613 133.717 1.42524 134.466 1.018C135.214 0.610751 136.057 0.411865 136.975 0.411865H136.994Z" fill="white"/>
<path id="Vector_10" d="M147.857 12.9891L153.028 0.696045H153.132C153.331 0.696045 153.521 0.752868 153.682 0.857047C153.843 0.961226 153.966 1.11276 154.041 1.30218L158.152 11.3507C158.351 11.8242 158.55 12.222 158.739 12.544C158.928 12.866 159.099 13.1217 159.269 13.3206C159.44 13.5195 159.582 13.671 159.714 13.7657C159.847 13.8604 159.942 13.9078 159.999 13.9078H159.07C158.246 13.832 157.602 13.6047 157.129 13.207C156.655 12.8092 156.286 12.222 155.992 11.4454L155.434 9.94901H150.263L149.003 12.9797C148.946 13.1122 148.965 13.2259 149.069 13.3301C149.287 13.5479 149.552 13.671 149.874 13.6994H146.777C147.005 13.6805 147.213 13.6142 147.402 13.4911C147.592 13.368 147.743 13.207 147.857 13.0081V12.9891ZM150.651 8.91669H154.941L152.839 3.83088L150.651 8.91669Z" fill="white"/>
</g>
</svg>
