<svg width="117" height="48" viewBox="0 0 117 48" fill="none" xmlns="http://www.w3.org/2000/svg">
<g id="g2993">
<g id="g3277">
<path id="path2995" d="M0.519531 0.00031662H116.087V47.3269H0.519531V0.00031662Z" fill="#F9001B"/>
<path id="path3007" d="M17.8324 18.5969L18.8636 12.214H19.8457C21.9077 12.214 23.2822 13.1467 22.8894 15.3566C22.5457 17.7619 20.4837 18.5969 18.4218 18.5969H17.8324ZM4.23242 41.2307H17.6853C26.621 41.2307 30.3035 35.241 31.0396 30.6748C31.8256 25.7159 29.7141 22.6722 24.8537 22.279V22.181C29.0757 22.181 32.3164 18.9402 32.9544 14.7673C34.2312 6.76424 27.7503 4.21099 21.8586 4.21099H10.075L4.23242 41.2307ZM15.5248 33.2281L16.6541 26.1091H17.4396C19.7472 26.1091 21.4659 27.1399 21.0731 29.6441C20.6803 32.1479 18.5689 33.2281 16.3594 33.2281H15.5248Z" fill="white"/>
<path id="path3011" d="M30.3145 41.2366L35.5576 8.01549H44.5457L40.5366 33.3941H47.2775L46.0439 41.2366H30.3145Z" fill="white"/>
<path id="path3015" d="M52.6689 8.01549H69.3675L68.1338 15.858H60.4234L59.7187 20.4845H66.6357L65.358 28.327H58.4406L57.6476 33.3941H65.358L64.1248 41.2366H47.4258L52.6689 8.01549Z" fill="white"/>
<path id="path3019" d="M67.113 30.0456C68.0822 31.8963 69.9329 33.7466 72.2241 33.7466C73.4578 33.7466 74.9996 32.9975 75.22 31.5438C75.3521 30.7503 75.176 30.1777 74.7795 29.6931C74.471 29.2081 74.0304 28.8115 73.5018 28.415C71.9596 27.0493 70.638 25.7716 69.7124 24.1854C68.8753 22.6433 68.4347 20.793 68.8313 18.3697C69.4483 14.4923 73.0168 7.44287 80.6833 7.44287C82.842 7.44287 85.0893 8.10391 86.8075 9.11708L85.2213 19.2068C84.4282 17.5326 82.578 15.6379 80.5072 15.6379C79.4496 15.6379 78.0399 16.387 77.8634 17.6646C77.7314 18.3697 78.0399 18.9863 78.4364 19.5153C78.833 20.0439 79.4496 20.4845 79.8462 20.881C81.5204 22.2027 82.8421 23.4364 83.6351 24.9345C84.4282 26.4327 84.7367 28.1949 84.3402 30.7063C83.3711 36.875 78.26 41.8096 72.0037 41.8096C69.7124 41.8096 67.4656 41.325 65.4824 40.4435L67.113 30.0456Z" fill="white"/>
<path id="path3023" d="M99.0985 41.2366L95.9261 25.9922H95.9701H95.8821L93.4588 41.2366H84.4707L89.7138 8.01549H98.702L96.4991 22.1587L96.3667 22.2467L96.4107 22.1587H96.5432L103.681 8.01549H113.154L103.461 24.053L108.748 41.2366H99.0985Z" fill="white"/>
</g>
</g>
</svg>
