<svg width="161" height="33" viewBox="0 0 161 33" fill="none" xmlns="http://www.w3.org/2000/svg">
<g id="Group">
<path id="Vector" fill-rule="evenodd" clip-rule="evenodd" d="M15.7594 2.427C14.8566 2.57126 13.9578 2.73944 13.0639 2.93137C12.4723 3.05612 11.8814 3.17245 11.2975 3.31863C10.7587 3.4541 10.2061 3.57426 9.67802 3.7411C9.16848 3.89775 8.66388 4.07004 8.16493 4.25771C7.18895 4.63278 6.27999 5.16312 5.47321 5.8282C4.98339 6.23689 4.52648 6.68079 4.14304 7.19281C3.87855 7.55756 3.63994 7.94041 3.42898 8.33853C3.22463 8.7189 3.08457 9.16969 3.07998 9.60594C3.07309 10.8887 3.89278 11.9632 4.83645 12.7607C5.14641 13.0209 5.47627 13.2612 5.81073 13.4901C6.80338 14.1712 7.88405 14.7697 8.98155 15.2909C10.1143 15.8267 11.2546 16.341 12.4088 16.8308C13.5001 17.2923 14.6153 17.6826 15.7411 18.0553C16.0648 18.161 16.3924 18.2666 16.7161 18.373C17.7363 18.7097 18.7787 19.0212 19.7913 19.3863C20.4219 19.6128 21.0939 19.8248 21.7238 20.108C22.3781 20.4019 23.0578 20.695 23.6348 21.1175C24.0233 21.3927 24.3523 21.7433 24.6022 22.1484C24.8448 22.5479 24.9964 23.0056 25.0071 23.4725C25.0183 23.9206 24.8928 24.3616 24.6474 24.7368C24.0145 25.7203 22.9131 26.3907 21.8508 26.8377C20.2619 27.5034 18.6368 28.0791 16.9832 28.562C16.0403 28.8368 15.0974 29.1092 14.1476 29.3549C13.194 29.6013 12.222 29.86 11.2585 30.1003C10.2979 30.3407 9.33744 30.5572 8.3731 30.7639C7.82052 30.881 7.26412 30.9966 6.71537 31.1106C6.38474 31.1764 6.061 31.2461 5.7296 31.3172C5.04003 31.4665 4.35045 31.6142 3.65782 31.7611C2.86951 31.9341 2.08121 32.1017 1.2929 32.2732C1.0633 32.3229 0.835224 32.3834 0.606386 32.4339C0.402039 32.4806 -0.361009 32.6566 0.205346 32.6229C0.993651 32.5801 3.09835 32.3971 7.59475 31.7994C9.22493 31.5315 10.8605 31.3019 12.493 31.0371C14.5263 30.7118 16.5476 30.3148 18.553 29.847C19.127 29.7123 19.6964 29.5684 20.2673 29.4138C20.6439 29.3097 21.0166 29.2018 21.3863 29.087C22.9629 28.6018 25.4923 27.7446 26.0908 27.4859C28.3784 26.491 29.8028 25.7425 30.5459 23.9592C30.7992 23.3263 30.9186 22.6176 30.8413 21.9387C30.7633 21.3058 30.5537 20.6963 30.226 20.1493C29.9122 19.6327 29.4836 19.1919 29.0359 18.7847C28.2017 18.0301 27.2664 17.4209 26.2669 16.9043C25.9835 16.7574 25.6961 16.6183 25.4051 16.4872C25.0437 16.3239 24.6799 16.1663 24.3137 16.0142C23.7981 15.8045 23.2759 15.6115 22.7478 15.4356C21.3755 14.9687 19.9819 14.5524 18.6027 14.1054C17.8216 13.8564 17.0512 13.5747 16.2937 13.2612C15.9743 13.129 15.6589 12.9876 15.3477 12.8372C14.9819 12.6612 14.626 12.4683 14.2739 12.2617C13.8415 12.0022 13.1335 11.556 13.331 10.9491C13.4688 10.5167 13.9433 10.3483 14.3305 10.193C14.6895 10.0491 15.0691 9.94805 15.4426 9.85085C16.583 9.56002 17.747 9.36409 18.8981 9.12071C19.2366 9.04988 19.5744 8.97589 19.9114 8.89876C20.8092 8.68982 21.7345 8.53369 22.5901 8.19617C23.3249 7.90917 24.2678 7.45073 24.5425 6.65018C24.9367 5.48456 24.489 4.22403 23.8461 3.24057C23.6133 2.88792 23.3739 2.53963 23.1282 2.19587C22.7899 1.72671 22.4164 1.28511 22.0513 0.838148C21.886 0.635332 21.6847 0.650639 21.5156 0.702682C21.2906 0.779217 20.6753 1.49405 15.7594 2.427Z" fill="#CC0000"/>
<path id="Vector_2" fill-rule="evenodd" clip-rule="evenodd" d="M91.1317 12.6426L91.1983 12.4895L91.2756 12.3571L91.3429 12.2355L91.4095 12.1314L91.4554 12.0288L91.5044 11.9523L91.5427 11.8773L91.5924 11.8314L91.7118 11.6239L91.7822 11.5L91.8664 11.3783L92.0463 11.0767L92.1557 10.9145L92.2682 10.7461L92.2965 10.7178L92.3348 10.7078L92.419 10.7377L92.4611 10.7652L92.5177 10.831L92.6302 10.9918L92.7466 11.2061L92.8767 11.5L93.0144 11.8497L93.1652 12.2737L93.1935 12.348L93.2425 12.4719L93.306 12.6327L93.394 12.8393L93.4048 12.8776L93.4224 12.925L93.4507 13.0192L93.4713 13.0942L93.4889 13.1707V13.2266L93.4997 13.284L93.4889 13.3008V13.3773L93.4331 13.4524L93.3948 13.499L93.2991 13.5373L93.1721 13.5756L93.0144 13.5947H92.9149L92.8208 13.6031L91.884 13.6781H91.7049L91.5641 13.6888H91.4164L91.3039 13.6973L91.1875 13.6888H90.9694L90.8638 13.6697L90.7972 13.6506L90.7413 13.6138L90.7084 13.5656L90.6809 13.499L90.6947 13.4348L90.7084 13.3475L90.7582 13.2541L90.8286 13.1324L90.8921 13.0284L90.948 12.9342L91.0046 12.8577L91.0467 12.7827L91.0858 12.726L91.1034 12.6702L91.1317 12.6426ZM85.1344 17.0939C85.1344 17.0939 85.2691 17.1283 85.2691 17.1298C85.7789 17.2752 86.0291 17.6151 85.6388 18.0605C85.5156 18.2028 85.4168 18.362 85.3174 18.5174L85.2332 18.6582C85.149 18.7975 85.0862 18.9269 85.0724 19.0914L85.0786 19.1779C85.1031 19.4052 85.2867 19.6486 85.3992 19.8437C85.6342 20.2433 85.8814 20.5991 86.1562 20.9657C86.1975 21.0254 86.7991 20.0397 86.8381 19.9838C87.0532 19.6884 87.3027 19.4266 87.5246 19.1373C87.8017 18.7746 88.1055 18.4309 88.5065 18.199C88.9076 17.9664 89.3683 17.8737 89.8298 17.8255C90.2867 17.775 90.7444 17.7544 91.1983 17.7299C92.1335 17.6809 93.0634 17.5768 93.9918 17.4865C94.3515 17.4513 94.8826 17.3633 95.2064 17.5385C95.5202 17.7069 95.7589 17.9993 96.0016 18.2495C96.2932 18.5541 96.5786 18.8649 96.8534 19.1825C97.181 19.5583 97.4726 19.9601 97.8346 20.3075C98.0634 20.5295 98.2999 20.7247 98.5601 20.9122L98.694 20.9979C99.1548 21.2252 99.4785 20.9259 99.5773 20.4637C99.7181 19.781 99.327 19.1167 99.0071 18.5419C98.8317 18.2275 98.6698 17.9058 98.5219 17.5776C98.3948 17.3097 98.2678 16.8956 98.4935 16.6385C98.6696 16.4418 99.0308 16.4318 99.2711 16.3691C99.5551 16.2941 99.8344 16.2084 100.119 16.1517C100.689 16.0354 101.255 15.8839 101.836 15.8111C102.16 15.7729 102.691 15.5349 102.969 15.8157C103.335 16.1793 102.987 16.8643 102.846 17.2531C102.617 17.9021 102.385 18.574 102.312 19.2613C102.248 19.8866 102.402 20.5593 102.804 21.0583C103.099 21.4257 103.596 21.7418 104.06 21.4755C104.43 21.2612 104.7 20.805 104.866 20.4262C105.176 19.7029 105.39 18.9521 105.636 18.2074C105.858 17.537 106.088 16.8681 106.341 16.2053C106.527 15.7231 106.741 15.2479 106.928 14.7664C107.048 14.4534 107.213 14.1618 107.344 13.8534C107.449 13.5932 107.485 13.2541 107.744 13.0903C108.061 12.8944 108.451 13.4623 108.603 13.6605C108.892 14.031 109.149 14.4182 109.413 14.8047C109.704 15.2218 109.968 15.7744 110.44 16.0124C111.253 16.4257 111.981 15.4599 112.439 14.9409C112.756 14.5874 113.076 14.2223 113.403 13.8672C113.751 13.4868 114.107 13.1095 114.452 12.7291C114.677 12.4857 114.972 12.0081 115.342 12.0005C115.662 11.9959 115.736 12.3418 115.764 12.5898C115.906 13.7776 115.958 14.9853 116.137 16.1762C116.207 16.6186 116.295 17.0587 116.373 17.4987L116.485 18.121C116.542 18.4164 116.602 18.7118 116.665 19.0057C116.802 19.6157 116.947 20.2257 117.133 20.8226C117.298 21.3277 117.509 21.875 117.933 22.2301C118.435 22.651 119.357 22.5102 119.681 21.9224C119.747 21.7992 119.776 21.6492 119.804 21.5107C119.86 21.2183 119.832 20.9122 119.808 20.6183C119.723 19.5705 119.428 18.5465 119.41 17.4895C119.406 17.0533 119.442 16.6209 119.476 16.1862C119.55 15.1728 119.681 14.1626 119.736 13.1477C119.808 11.9071 119.92 10.5946 119.558 9.38455C119.457 9.03616 119.311 8.70227 119.124 8.39113C118.96 8.11254 118.763 7.85458 118.537 7.62272C118.307 7.37736 118.04 7.1697 117.746 7.00739C117.464 6.85585 117.098 6.73645 116.778 6.72038C116.008 6.68211 115.209 7.10458 114.606 7.54619C114.092 7.92121 113.628 8.34903 113.188 8.80595C112.407 9.62639 111.622 10.4736 110.929 11.3737C110.728 11.6362 110.485 12.1099 110.081 12.0602C109.603 11.9974 109.348 11.2849 109.201 10.9091C109.055 10.5549 108.898 10.2054 108.729 9.86136C108.512 9.42281 108.29 8.98886 108.083 8.54496C107.91 8.1776 107.734 7.79492 107.466 7.48649C107.16 7.13596 106.766 6.96606 106.33 6.82294C106.021 6.72268 105.58 6.59563 105.278 6.77472C104.873 7.01427 104.951 7.61583 104.926 8.00463C104.901 8.35286 104.863 8.68961 104.831 9.03785C104.743 9.87666 104.691 10.7407 104.5 11.5642C104.416 11.9293 104.293 12.3885 103.975 12.6235C103.729 12.8041 103.419 12.7796 103.135 12.7919C102.902 12.8018 102.667 12.7949 102.43 12.788C101.895 12.7766 101.361 12.7551 100.826 12.7689C100.369 12.7827 99.9079 12.811 99.4472 12.8278C99.0385 12.8454 98.6267 12.8852 98.2149 12.8852C97.7542 12.9113 97.1909 12.9847 96.7585 12.7827C96.4171 12.622 96.2335 12.2569 96.0819 11.9331C95.8638 11.4732 95.5868 11.0415 95.3258 10.603C95.09 10.2126 94.862 9.81926 94.6224 9.432C94.278 8.8733 93.9359 8.31766 93.5838 7.76508C93.3543 7.39855 93.1162 7.03747 92.8698 6.68211C92.6693 6.39358 92.4152 6.00631 92.0631 5.88616C91.7409 5.77518 91.4233 5.98565 91.3567 6.30174C91.3108 6.50685 91.3598 6.71655 91.3177 6.92167C91.2717 7.13902 91.1845 7.35332 91.0926 7.5569C90.9136 7.96636 90.674 8.34903 90.4314 8.72405C89.6148 9.97922 89.0056 11.3721 88.2777 12.6771C88.1399 12.9204 87.9961 13.1585 87.8583 13.4018C87.6723 13.7424 87.5499 14.0241 87.1412 14.132C86.7738 14.2276 86.3812 14.1787 86.0115 14.269C85.5546 14.3822 85.4199 14.7718 85.3426 15.1943C85.2791 15.5517 85.2691 15.9168 85.2125 16.2772C85.1704 16.5375 85.1069 16.8306 85.1344 17.0939ZM35.2393 24.4427C34.8628 24.4549 34.4893 24.5246 34.1173 24.5039C33.6811 24.4787 33.4056 24.2169 33.2448 23.8343C33.0543 23.3766 32.9456 22.8592 32.8292 22.3793C32.7236 21.9255 32.6387 21.4793 32.6884 21.0155C32.7198 20.7629 32.7588 20.5792 32.9662 20.4047C33.2938 20.1369 33.7507 20.3114 34.0959 20.12C34.4059 19.9478 34.5077 19.5736 34.536 19.2491C34.585 18.7034 34.5253 18.1179 34.4977 17.5699C34.4127 16.1617 34.5076 14.7259 34.3278 13.3268C34.2895 13.0039 34.1839 12.6334 33.8211 12.5378C33.1032 12.348 33.0964 11.6446 33.0512 11.0377C33.0229 10.6573 33.0191 10.2088 33.1737 9.85141C33.3811 9.36082 33.9344 9.10673 34.4196 8.95901C34.8911 8.81513 35.3702 8.68349 35.8485 8.55415C36.3338 8.42404 36.8374 8.35286 37.3333 8.26867C37.8438 8.18372 38.3543 8.11101 38.8678 8.03218C39.3676 7.95488 39.8674 7.88677 40.374 7.83319C40.8455 7.78038 41.32 7.72298 41.7953 7.69543C42.3517 7.66252 42.9142 7.62961 43.4706 7.60895C43.9704 7.58752 44.4694 7.59823 44.9661 7.60129C45.4628 7.60512 45.9549 7.62578 46.4478 7.64109C46.9545 7.65869 47.468 7.70079 47.9678 7.76814C48.6964 7.8661 49.389 7.99085 50.0158 8.39572C50.6664 8.82125 51.0996 9.69221 50.4559 10.3359C49.8046 10.9872 48.7561 10.8793 47.9119 10.8793C47.2196 10.881 46.5274 10.8933 45.8355 10.916C45.1697 10.9374 44.5046 11.0048 43.8364 11.0461C43.2165 11.0844 42.6012 11.128 41.9789 11.1755C41.3384 11.2237 40.6939 11.2849 40.0533 11.3477C39.5429 11.3959 39.0301 11.4449 38.5265 11.5367C38.104 11.6132 37.6081 11.6882 37.2843 11.9944C37.0448 12.2217 37.0341 12.6021 37.1328 12.8998C37.3264 13.4738 38.2066 13.3284 38.6711 13.3169C39.7265 13.2855 40.7712 13.1133 41.8236 13.0437C42.3088 13.0107 42.7917 12.9931 43.2731 12.9656C43.8579 12.9312 44.438 12.912 45.0258 12.9396C45.5393 12.9641 46.0429 13.023 46.5458 13.1256C47.1619 13.2526 47.7359 13.4868 48.3022 13.7455C49.027 13.9942 48.9114 14.9004 48.7913 15.4828C48.7278 15.7882 48.626 16.0568 48.3474 16.2283C47.7144 16.614 46.8167 16.5168 46.1095 16.5352C45.413 16.5551 44.7128 16.6155 44.0201 16.6783C42.9257 16.7808 41.8312 16.888 40.7399 17.0227C40.0709 17.1061 39.4028 17.2209 38.7347 17.2906C38.2831 17.3388 37.6922 17.2936 37.3234 17.6082L37.256 17.6656L37.207 17.6931L37.1718 17.7589L37.129 17.8462C37.08 18.124 36.7914 19.0401 37.08 19.2598L37.1397 19.2873H37.2346C37.6012 19.2889 37.9632 19.2682 38.329 19.2521C38.8854 19.2284 39.4411 19.2062 40.0005 19.1603C41.0705 19.0738 42.1404 18.9866 43.2104 18.8947C43.9068 18.8335 44.6247 18.7952 45.3281 18.7325C46.3823 18.6432 47.4385 18.5794 48.4959 18.5411C49.1357 18.5159 49.7518 18.5258 50.3533 18.2633C51.0498 17.9556 51.6276 17.4176 52.3103 17.0678C53.1721 16.6278 54.0553 16.2351 54.9278 15.8203C55.9978 15.3106 57.0432 14.7244 58.1308 14.2514C58.9681 13.8886 59.8092 13.5289 60.6465 13.1669C61.0521 12.9931 61.4662 12.8301 61.8534 12.6112C62.1213 12.4566 62.8139 12.1214 62.6379 11.7051C62.5468 11.49 62.269 11.4586 62.0647 11.4341C61.2626 11.3385 59.2497 11.4862 58.0175 11.6737C56.0223 12.0181 55.7444 12.2768 55.1888 11.7334C54.7663 11.2864 54.8719 10.6558 54.9355 10.1032C54.9982 9.53455 55.2737 8.67431 55.4666 8.46001C56.0437 7.71303 57.9471 7.62578 58.8341 7.56149C59.2918 7.52858 59.7564 7.51557 60.2171 7.51098C60.8646 7.50639 61.509 7.54925 62.1527 7.54925C62.7108 7.57195 63.2682 7.61023 63.8242 7.66405C64.4579 7.72681 65.1513 7.74212 65.7666 7.93728C65.9679 8.00157 66.1677 8.06739 66.3582 8.15617C66.995 8.45006 67.5751 8.83426 68.0083 9.38302C68.2655 9.70829 68.4338 10.0818 68.5188 10.4836C68.5609 10.6764 68.5892 10.8663 68.5609 11.0622C68.5395 11.2068 68.4974 11.4954 68.4063 11.6102L68.368 11.6584C68.2793 11.8497 68.1101 12.0219 67.9555 12.1589C67.2024 12.8125 66.1049 13.0505 65.1964 13.421C64.7464 13.6047 64.3033 13.8174 63.8594 14.0172C62.6134 14.5789 61.3789 15.1621 60.1077 15.6719C59.063 16.0943 58.0213 16.5275 57.0187 17.0434C56.7432 17.1857 56.3429 17.3893 56.1769 17.6656C56.0123 17.9572 56.3713 17.9564 56.6032 17.961C56.8565 17.9694 57.1136 17.9541 57.3708 17.935C58.1407 17.8737 58.9114 17.801 59.686 17.7176C60.4743 17.6304 61.2695 17.5607 62.0585 17.462C62.8009 17.3679 63.5433 17.273 64.2819 17.1926C65.0816 17.1122 65.8851 17.0734 66.6889 17.0763C67.5017 17.0763 68.293 17.0862 69.0959 17.2186L69.2153 17.2377L69.4265 17.2485C69.7648 17.2485 70.1199 17.2033 70.2921 16.8681C70.5738 16.3247 70.736 15.6703 70.9396 15.0948C71.1998 14.3493 71.4707 13.6054 71.7417 12.863C71.7769 12.7605 71.8159 12.6579 71.8549 12.5554C72.1641 11.7158 72.4672 10.8724 72.804 10.0435C72.9379 9.70829 73.0795 9.37613 73.1882 9.03019C73.2693 8.77151 73.3076 8.50899 73.4308 8.26179C73.6351 7.8661 74.0048 7.61048 74.4196 7.89901C74.7548 8.13168 74.9829 8.53654 75.1765 8.88784C75.3771 9.25826 75.55 9.62639 75.6442 10.0389C75.7398 10.4537 75.638 10.8226 75.511 11.2206C75.3809 11.6293 75.2117 12.0342 75.1031 12.449C74.8666 13.3414 75.7536 14.0608 76.4363 14.4672C77.0524 14.8353 77.7596 15.0848 78.4208 15.3604C78.9168 15.567 79.4135 15.7851 79.9377 15.8869C80.2515 15.9466 80.6488 16.0094 80.9266 15.8127C81.3766 15.4897 81.5136 14.8583 81.6659 14.3608C81.8488 13.7493 81.985 13.1217 82.1228 12.498C82.2422 11.9814 82.3233 11.4571 82.38 10.9298C82.4259 10.515 82.4641 10.0978 82.4894 9.68227C82.5162 9.14117 82.4749 8.61997 82.4672 8.08116C82.4672 7.7337 82.5307 7.28367 82.7779 7.01274C83.094 6.6538 83.6435 6.83824 83.9107 7.17882C83.9183 7.18648 84.0086 7.30281 84.0086 7.30281C84.1716 7.57374 84.2903 7.87146 84.3813 8.17301C84.5398 8.71563 84.6285 9.27357 84.6852 9.8338C84.7342 10.2953 84.7655 10.7576 84.7831 11.2221C84.839 12.8232 84.7273 14.4274 84.5084 16.0124C84.389 16.8681 84.1992 17.7 84.0163 18.5419C83.9107 19.0042 83.8295 19.4802 83.629 19.9149C83.4915 20.2041 83.3125 20.4717 83.0979 20.7094C82.9953 20.8226 82.8836 20.9175 82.7557 20.9979C82.3164 21.2711 81.7424 21.2604 81.2434 21.2114C80.547 21.1471 79.878 20.9696 79.2229 20.7315C78.8106 20.5867 78.4055 20.4219 78.0091 20.2379C77.6042 20.0466 77.1963 19.8552 76.806 19.6363C76.4122 19.4154 76.0302 19.174 75.6618 18.9131C75.3097 18.6682 74.9653 18.3957 74.6668 18.0919C74.402 17.824 74.2053 17.4796 73.9589 17.1964C73.6948 16.8972 73.4912 16.7969 73.3183 17.2087C73.2134 17.4765 73.1568 17.7574 73.0933 18.0391C72.9876 18.5312 72.8399 19.0187 72.6853 19.4993C72.5376 19.9739 71.9001 21.291 71.2067 20.678C70.9824 20.479 70.8202 20.2241 70.4819 20.2279C70.1375 20.2325 69.8099 20.3718 69.4755 20.4445C69.1234 20.5234 68.7576 20.5647 68.3986 20.6359C67.7198 20.7729 67.0402 20.9298 66.3651 21.0645C65.9143 21.1502 65.4643 21.2129 65.0166 21.2895C64.5849 21.363 64.1479 21.4181 63.7117 21.4831C63.2617 21.5489 62.8139 21.6201 62.367 21.6722C61.6636 21.7586 60.9633 21.8421 60.2623 21.9155C59.6997 21.989 59.141 22.0441 58.5808 22.1084C58.1132 22.1589 57.6486 22.2071 57.1802 22.253C56.399 22.3336 55.6154 22.3898 54.8306 22.4214C53.6443 22.4628 52.416 22.5324 51.2473 22.299C50.9871 22.2492 50.5998 22.2178 50.4031 22.0265C50.2623 21.891 50.3748 21.6591 50.2692 21.5L50.2516 21.4716L50.2056 21.4234L50.1635 21.3943L50.1176 21.3744H50.0227L49.9737 21.3943L49.9171 21.4135L49.8681 21.4517L49.7686 21.5191L49.7059 21.5933L49.6569 21.679L49.6286 21.7747C49.3752 22.5829 48.5165 22.8868 47.7359 22.9862L35.2393 24.4427ZM151.905 18.1715C150.265 18.2878 148.719 18.5618 147.055 18.4057C146.517 18.3536 145.591 18.31 145.137 18.0169C143.807 17.1513 148.467 15.6091 149.04 15.407C150.655 14.8376 153.91 13.9093 153.91 13.9093C153.91 13.9093 156.968 13.1585 157.06 11.5313C157.172 9.55675 155.116 8.66359 153.544 8.16994C152.896 8.02455 152.241 7.91773 151.58 7.85003C151.131 7.80856 150.68 7.78202 150.229 7.77043C149.381 7.74059 148.554 7.82248 147.709 7.9235C146.844 8.02606 145.004 8.07963 144.736 9.15418C144.602 9.7014 143.976 10.8295 144.5 11.3247C145.056 11.8513 145.961 11.6324 146.644 11.5665C147.587 11.4747 148.519 11.3002 149.458 11.2084C150.152 11.1402 151.056 10.9895 151.626 11.4915C152.326 12.1161 150.468 12.7069 150.098 12.863C148.696 13.4539 147.228 13.8779 145.82 14.4573C144.5 14.9991 143.177 15.5211 141.889 16.1288C141.298 16.4066 140.746 16.7495 140.19 17.0831L139.922 16.9025L138.3 17.0724L136.674 17.2048C135.587 17.2936 134.485 17.3242 133.395 17.3755C132.849 17.3939 131.994 17.4153 131.564 17.0135C130.626 16.1334 131.149 14.9126 131.768 14.0608C132.447 13.1347 133.401 12.4475 134.38 11.8643C135.038 11.4732 135.766 11.1525 136.505 10.9336C137.005 10.7844 137.523 10.6604 138.043 10.5846C138.117 10.727 138.201 10.8693 138.282 11.0086C138.324 11.0882 139.539 10.5846 139.655 10.5249C140.027 10.3336 140.548 9.95014 140.559 9.48557C140.577 8.92075 140.084 8.35745 139.637 8.07581C139.137 7.76202 138.571 7.65716 137.984 7.65181C137.346 7.64339 136.706 7.68165 136.079 7.76355C135.635 7.82488 135.196 7.91824 134.766 8.0429C134.049 8.24954 133.366 8.52966 132.715 8.88937C131.832 9.37701 131.027 9.99408 130.327 10.7201C130.001 11.06 129.712 11.4341 129.467 11.8359C129.153 12.3464 128.925 12.9113 128.741 13.4799C128.246 15.0535 128.397 17.012 129.116 18.4967C129.608 19.5162 130.372 20.4017 131.35 20.9956C132.582 21.7449 134.14 21.9921 135.552 21.7242C136.12 21.6204 136.677 21.4588 137.212 21.242C137.789 21.0117 138.353 20.841 138.891 20.5333C138.996 20.4775 140.147 19.8261 140.213 19.9134C140.394 20.1445 140.499 20.4277 140.692 20.6481C140.879 20.8624 141.115 21.0568 141.34 21.2237C141.816 21.5757 142.354 21.715 142.934 21.7831C144.387 21.9553 145.862 22.0426 147.327 22.0617C148.494 22.077 149.677 21.9982 150.838 21.891C151.592 21.8222 152.344 21.7242 153.093 21.6339C155.001 21.4028 156.578 20.9833 158.643 20.1032C159.392 19.7598 160.058 19.2592 160.596 18.6353C160.369 18.4987 160.131 18.382 159.885 18.2863C158.383 17.6893 156.669 17.6656 155.071 17.8676C154.335 17.9595 153.601 18.0306 152.865 18.0949C152.545 18.124 152.225 18.1485 151.905 18.1715ZM126.452 19.8575C126.469 19.582 126.438 19.3042 126.357 19.0914C126.142 18.5342 125.547 17.9694 124.956 17.8615C124.42 17.7666 123.777 17.8676 123.34 18.2059C123.105 18.3904 122.848 18.6881 122.725 18.9636C122.453 19.5705 122.482 20.4713 122.88 21.0078C123.552 21.9171 124.974 21.9171 125.765 21.18C126.145 20.828 126.413 20.381 126.452 19.8575Z" fill="white"/>
</g>
</svg>
