<svg width="130" height="35" viewBox="0 0 130 35" fill="none" xmlns="http://www.w3.org/2000/svg">
<path id="Vector" d="M12.7463 3.78038H15.5744C17.2968 3.52847 19.0557 3.74996 20.6602 4.42077C22.6731 5.62311 24.1331 7.55876 24.7288 9.81479C25.1505 10.997 25.1505 10.997 26.1676 10.5783H26.9615V1.21884H0.342063V2.86907H1.43363C1.90798 2.8658 2.37704 2.96809 2.80635 3.16842C3.23566 3.36874 3.61431 3.66202 3.91448 4.02669C4.93162 5.65228 5.10528 7.47492 5.10528 16.9576C5.10528 27.0313 4.88201 29.4944 3.91448 30.7505C3.67562 31.0734 3.36637 31.3386 3.00983 31.5263C2.65328 31.7139 2.25864 31.8192 1.85538 31.8342C0.342063 32.1052 0.342063 32.0805 0.342063 32.7456C0.258375 32.9679 0.258375 33.2128 0.342063 33.4352H17.1374C17.2485 33.2177 17.3064 32.9772 17.3064 32.7332C17.3064 32.4893 17.2485 32.2488 17.1374 32.0313C16.7306 31.9189 16.316 31.8366 15.8969 31.785C15.4436 31.7315 14.9956 31.6408 14.5573 31.514C13.9297 31.0591 13.4325 30.4495 13.1149 29.7454C12.7973 29.0413 12.6702 28.2671 12.7463 27.4993C12.4982 25.8737 12.3742 22.8935 12.3742 20.4304V18.4846H13.3665C14.6028 18.4471 15.8384 18.5797 17.0381 18.8787C17.6129 19.2313 18.1021 19.7056 18.4709 20.2676C18.8397 20.8296 19.079 21.4655 19.1717 22.1299L19.3949 22.8935H20.9083V11.9823H19.519L19.2957 13.0414C19.2018 13.7208 18.9486 14.3689 18.5565 14.9336C18.1644 15.4983 17.6444 15.9637 17.0381 16.2925C16.4511 16.466 15.8325 16.5081 15.2271 16.4157H12.3742V13.7556C12.3742 10.997 12.523 5.18431 12.6222 4.27299L12.7463 3.78038ZM128.85 23.3122C127.677 21.4383 125.848 20.0611 123.714 19.4452C122.079 18.9376 120.567 18.0989 119.274 16.9822C118.983 16.7028 118.765 16.357 118.64 15.9749C118.514 15.5928 118.485 15.186 118.554 14.7901C118.556 14.0135 118.868 13.2694 119.423 12.7212C119.798 12.3307 120.273 12.0488 120.798 11.9056C121.322 11.7625 121.876 11.7634 122.4 11.9084C123.484 12.2152 124.465 12.8076 125.238 13.6228C126.011 14.438 126.547 15.4456 126.791 16.5389C127.188 17.6472 127.237 17.6472 127.957 17.3517L128.403 17.1792V11.0463L128.081 10.8985C125.638 10.0469 123.048 9.69499 120.464 9.86405C118.24 9.92001 116.117 10.7984 114.51 12.3271C113.782 13.0041 113.211 13.8311 112.838 14.7501C112.466 15.6691 112.3 16.6579 112.352 17.6472C112.366 19.1598 112.971 20.608 114.039 21.6866C115.22 22.8393 116.668 23.6852 118.257 24.1496C122.102 25.652 123.218 26.6126 123.218 28.3614C123.235 29.0988 122.998 29.8199 122.547 30.4063C122.096 30.9926 121.458 31.4093 120.737 31.5879C119.871 31.7769 118.974 31.7769 118.108 31.5879C116.974 31.1509 115.961 30.4513 115.154 29.5474C114.347 28.6435 113.769 27.5613 113.469 26.3909L113.146 25.6028H112.699C112.486 25.6185 112.277 25.6684 112.079 25.7506H111.831V32.7456H112.253C113.929 33.2991 115.658 33.6788 117.413 33.8785H119.894C120.97 33.9569 122.051 33.857 123.094 33.583C124.418 33.3404 125.655 32.7581 126.682 31.8939C127.709 31.0298 128.491 29.9138 128.949 28.6569C129.245 27.9549 129.397 27.2013 129.396 26.4402C129.493 25.368 129.305 24.2892 128.85 23.3122ZM105.48 10.5783C103.994 9.95866 102.392 9.65806 100.78 9.69627C99.1681 9.73447 97.5826 10.1106 96.1274 10.8C94.7596 11.4642 93.5473 12.4058 92.5688 13.564C91.5902 14.7222 90.8672 16.0713 90.4463 17.5241C89.9097 19.1089 89.6823 20.7807 89.7765 22.4501C89.7587 23.3584 89.8335 24.2661 89.9997 25.1594C90.4004 27.356 91.4685 29.3782 93.0605 30.9544C94.6526 32.5307 96.6924 33.5854 98.906 33.9771C100.347 34.1574 101.806 34.1574 103.247 33.9771C104.743 33.7153 106.175 33.1719 107.465 32.3761C108.532 31.7821 109.435 30.9362 110.095 29.9131C110.052 29.7525 109.978 29.6022 109.875 29.4709C109.773 29.3397 109.645 29.2304 109.499 29.1495C109.216 29.2513 108.949 29.3923 108.705 29.5682C107.471 30.3756 106.014 30.7803 104.537 30.7259C103.557 30.7917 102.575 30.6401 101.661 30.2823C100.747 29.9245 99.9244 29.3693 99.2533 28.6569C98.7341 28.1782 98.3056 27.6109 97.9881 26.9821C97.2171 25.4509 96.8018 23.7676 96.7724 22.056V21.0954H110.516V20.6028C110.547 20.1107 110.547 19.6172 110.516 19.125C110.511 17.3859 110.043 15.679 109.158 14.1779C108.274 12.6768 107.005 11.4349 105.48 10.5783ZM98.5586 19.1004H96.8221V17.6472C97.3926 13.928 98.8067 11.7113 100.543 11.7113C102.28 11.7113 103.024 13.9034 103.347 17.9181V19.0511H101.858L98.5586 19.1004ZM62.8841 9.76553C62.0269 9.73253 61.1747 9.9102 60.4033 10.2828C58.7266 11.0912 57.3723 12.4358 56.558 14.1005L56.2355 14.6916V9.76553H56.1114C55.8137 9.76553 46.6346 11.5882 46.3369 11.7113C46.0392 11.8345 46.1384 11.8591 46.1384 12.3024C46.1384 12.7458 46.1384 12.8197 46.3369 12.8443L47.3044 13.0414C47.5754 13.048 47.8413 13.1157 48.082 13.2395C48.3227 13.3632 48.5319 13.5397 48.6937 13.7556C49.3139 14.5684 49.438 15.997 49.438 22.0807C49.5605 24.8194 49.4443 27.5636 49.0906 30.2825C49.0074 30.6925 48.798 31.0667 48.4914 31.3535C48.1847 31.6402 47.796 31.8254 47.3789 31.8835L46.5354 32.0559H46.2129V32.7456C46.1229 32.9753 46.1229 33.2301 46.2129 33.4598H60.0808V32.7456C60.1289 32.5099 60.1289 32.267 60.0808 32.0313C59.2458 31.999 58.4155 31.8918 57.5999 31.7111C57.1558 31.4804 56.7925 31.1217 56.5578 30.682C56.3231 30.2423 56.228 29.7424 56.2851 29.2481C56.0866 27.8195 55.9874 23.6324 56.037 20.4304C56.0866 17.2285 56.037 17.0315 56.3099 16.8098C57.14 16.1779 58.1673 15.8553 59.2125 15.8985C60.1977 15.9198 61.1649 16.1641 62.0406 16.6127C62.3442 16.7801 62.6699 16.9045 63.0082 16.9822C63.0082 16.9822 65.489 11.0217 65.489 10.7507C65.1715 10.3845 64.7671 10.1026 64.3123 9.93056C63.8574 9.75854 63.3666 9.70182 62.8841 9.76553ZM46.1632 20.1102C46.0767 18.3502 45.5677 16.6361 44.6787 15.1109C43.7898 13.5857 42.5466 12.2935 41.0527 11.3419C39.2774 10.391 37.3023 9.86673 35.2859 9.81112C33.2695 9.75551 31.2681 10.1701 29.4424 11.0217C26.861 12.3731 24.912 14.6704 24.0093 17.4255C23.0769 20.5103 23.0769 23.7988 24.0093 26.8836C24.4981 28.5694 25.4117 30.1038 26.6638 31.3416C28.2233 32.8523 30.2341 33.8203 32.3946 34.1002C33.7814 34.2154 35.1755 34.2154 36.5624 34.1002C37.0727 34.0231 37.578 33.9162 38.0757 33.78C40.095 33.2192 41.9117 32.099 43.3132 30.5506C44.7147 29.0021 45.643 27.0894 45.9896 25.0363C46.2372 23.4063 46.2955 21.7534 46.1632 20.1102ZM35.8429 32.4254C33.3621 33.1643 31.5015 30.7751 30.8812 25.7506C30.6535 23.12 30.6535 20.4748 30.8812 17.8443C31.3774 13.8049 32.6426 11.7606 34.6025 11.7606C34.9979 11.7363 35.3934 11.8063 35.756 11.9648C36.1186 12.1234 36.4376 12.3658 36.6864 12.6719C38.3486 14.3221 39.1673 17.598 39.1673 22.524C39.3737 25.3119 38.9323 28.1095 37.8772 30.7012C37.4113 31.4571 36.6905 32.0244 35.8429 32.3022V32.4254ZM80.4981 10.2581C79.7981 10.1687 79.0894 10.1687 78.3894 10.2581C77.0456 10.257 75.7173 10.5426 74.4945 11.0956L73.7254 11.4158V6.071C73.8598 4.26724 73.8598 2.4561 73.7254 0.652344C73.4277 0.652344 63.9509 2.45035 63.802 2.52424C63.7289 2.70609 63.7289 2.90889 63.802 3.09074C63.802 3.60797 63.802 3.58334 64.9184 3.82965C65.2319 3.89943 65.5329 4.01568 65.8115 4.17447C66.2958 4.62658 66.6181 5.22332 66.7294 5.87396C67.0119 7.74837 67.1033 9.64629 67.0023 11.5389V33.1643L67.6721 33.312C68.6645 33.5337 71.4678 34.0017 72.3858 34.1002C74.2187 34.245 76.0603 34.245 77.8932 34.1002C79.9277 33.8939 81.8669 33.1403 83.5019 31.9207C85.1369 30.7011 86.4057 29.0617 87.1716 27.1791C87.6282 25.9708 87.9445 24.7148 88.1143 23.4353C88.262 21.7022 88.2037 19.9579 87.9406 18.2383C87.6745 16.3108 86.8176 14.5112 85.4862 13.0837C84.1548 11.6561 82.4134 10.6696 80.4981 10.2581ZM73.9983 32.0066C73.9983 31.6864 73.7502 20.8984 73.7998 16.5881V13.2138L74.5193 13.0414C75.0047 12.9723 75.4976 12.9723 75.983 13.0414C76.5198 12.9872 77.0598 13.1082 77.5211 13.3862C78.4476 14.021 79.2169 14.8562 79.7712 15.8289C80.3256 16.8016 80.6504 17.8865 80.7214 19.0019C80.9021 20.7954 80.9021 22.6024 80.7214 24.3959C80.5729 27.0026 79.5612 29.4877 77.8436 31.4648C77.3561 31.9245 76.7439 32.2327 76.0822 32.3515C75.5815 32.4379 75.0696 32.4379 74.5689 32.3515C74.0975 32.3515 74.0975 32.2037 74.0975 32.0066H73.9983Z" fill="#33629A"/>
</svg>
