<svg width="102" height="48" viewBox="0 0 102 48" fill="none" xmlns="http://www.w3.org/2000/svg">
<g id="Group 149">
<g id="content">
<g id="g3067">
<g id="g3069">
<g id="g3071">
<g id="Clip path group">
<mask id="mask0_261_2519" style="mask-type:luminance" maskUnits="userSpaceOnUse" x="0" y="0" width="102" height="48">
<g id="clipPath3075">
<path id="path3077" d="M0.324219 3.58682e-06V47.4431H101.536V3.58682e-06H0.324219Z" fill="white"/>
</g>
</mask>
<g mask="url(#mask0_261_2519)">
<g id="g3073">
<path id="path3079" d="M0.324219 47.4431H101.536V3.58682e-06H0.324219V47.4431Z" fill="#ED1C24"/>
<path id="path3081" d="M19.8875 25.8434L26.3858 25.8089L24.2814 13.7147L24.1972 13.7152L19.8875 25.8434ZM17.4036 5.82122L32.8564 5.8249L40.0096 42.603L28.2311 42.6629L27.0158 34.6867L17.5425 34.7356L15.0259 42.7303L3.83398 42.7874L17.4036 5.82122Z" fill="#231F20"/>
<path id="path3083" d="M43.4988 10.7609L52.6743 10.7889L51.521 23.5811L51.594 23.5808C52.6254 21.8355 54.978 20.3843 57.5625 20.3922C62.4402 20.4079 63.9625 23.3277 63.583 27.531L62.2245 42.5996L53.0493 42.5716L54.1759 30.0839C54.2881 28.8352 54.4414 27.129 52.8401 27.1235C51.2007 27.1188 51.0471 28.8245 50.9347 30.0742L49.8097 42.5609L40.6348 42.5342L43.4988 10.7609Z" fill="#231F20"/>
<path id="path3085" d="M77.41 33.1115L76.4989 33.1083C74.605 33.1031 72.4017 33.3042 72.1995 35.5519C72.0643 37.0506 72.7398 37.6348 74.1591 37.639C76.0524 37.6453 77.1824 35.6497 77.3498 33.7775L77.41 33.1115ZM67.2587 21.6718C70.0686 20.8057 71.7416 20.4365 75.3079 20.4466C80.5519 20.4631 86.8262 21.5651 86.1132 29.4746L84.9249 42.669L76.4038 42.6441L76.687 39.5217L76.6134 39.5209C75.1171 41.9728 72.6809 43.1316 70.0961 43.124C66.5636 43.1127 63.3073 41.2712 63.7165 36.7339C64.3177 30.0737 69.679 28.7573 74.2314 28.7706C75.5041 28.775 76.9428 28.9876 77.7736 29.0739C77.9898 26.2844 75.5047 25.9439 73.2118 25.9369C71.0273 25.93 68.6266 26.7143 66.7101 27.7491L67.2587 21.6718Z" fill="#231F20"/>
<path id="path3087" d="M96.7685 4.12088C87.9033 -1.43655 89.5288 35.3899 90.4929 35.2427C91.4562 35.0962 91.3371 31.6424 93.1393 33.0625C94.9422 34.4819 104.24 8.81529 96.7685 4.12088Z" fill="#231F20"/>
<path id="path3089" d="M93.303 38.4669C88.1835 37.3531 83.9538 45.0981 89.7481 45.2976C92.9528 45.4077 100.853 40.1081 93.303 38.4669Z" fill="#231F20"/>
<path id="path3091" d="M18.866 25.0067L25.3643 24.9723L23.2599 12.878L23.1757 12.8786L18.866 25.0067ZM16.3824 4.98455L31.8349 4.98823L38.9881 41.7663L27.2095 41.8262L25.9943 33.8501L16.521 33.8989L14.0045 41.8937L2.8125 41.9507L16.3824 4.98455Z" fill="white"/>
<path id="path3093" d="M42.4754 9.92403L51.6514 9.95201L50.4973 22.7442L50.5703 22.7439C51.6022 20.9986 53.9548 19.5474 56.5393 19.5553C61.4173 19.571 62.9396 22.4908 62.5601 26.6941L61.2013 41.7627L52.0264 41.7347L53.1529 29.247C53.2652 27.9983 53.4181 26.2921 51.8171 26.2866C50.1769 26.2819 50.0242 27.9875 49.9115 29.2373L48.7865 41.724L39.6113 41.6973L42.4754 9.92403Z" fill="white"/>
<path id="path3095" d="M76.3884 32.2745L75.4772 32.2714C73.5839 32.2662 71.3807 32.4673 71.1785 34.715C71.0426 36.2137 71.7181 36.7979 73.1381 36.8021C75.0314 36.8083 76.1614 34.8128 76.3288 32.9406L76.3884 32.2745ZM66.2375 20.8349C69.0476 19.9688 70.72 19.5996 74.2869 19.6097C79.5309 19.6262 85.8052 20.7282 85.0922 28.6377L83.9039 41.832L75.3828 41.8072L75.6653 38.6847L75.5924 38.6839C74.0961 41.1359 71.6592 42.2947 69.0751 42.2871C65.5424 42.2758 62.2857 40.4343 62.695 35.897C63.2965 29.2368 68.6573 27.9204 73.2097 27.9337C74.4824 27.9381 75.9211 28.1507 76.7526 28.237C76.9681 25.4475 74.4837 25.107 72.1901 25.0999C70.0063 25.0931 67.6056 25.8774 65.6888 26.9122L66.2375 20.8349Z" fill="white"/>
<path id="path3097" d="M95.7449 3.28421C86.8804 -2.27322 88.5052 34.5533 89.4693 34.4061C90.4333 34.2596 90.3135 30.8058 92.1157 32.2258C93.9186 33.6453 103.217 7.97862 95.7449 3.28421Z" fill="white"/>
<path id="path3099" d="M92.2833 37.6303C87.1645 36.5165 82.9341 44.2614 88.7284 44.461C91.9338 44.5711 99.8343 39.2715 92.2833 37.6303Z" fill="white"/>
<path id="path3101" d="M14.2073 42.1713L16.735 34.1674L25.7428 34.129L26.9678 42.1059L39.3238 42.0436L32.0629 4.70904L16.1854 4.70563L2.41016 42.2319L14.2073 42.1713ZM16.5782 5.26343L31.6065 5.26685L38.6438 41.4874L27.4395 41.547L26.2313 33.5696L16.3137 33.6211L13.7944 41.6145L3.20594 41.6718L16.5782 5.26343Z" fill="#231F20"/>
<path id="path3103" d="M25.0365 24.6775L19.2657 24.7298L23.1536 13.7986L25.0365 24.6775ZM25.6966 25.2497L23.4949 12.5975L22.9789 12.6009L18.4707 25.2878L25.6966 25.2497Z" fill="#231F20"/>
<path id="path3105" d="M49.0414 42.004L50.1898 29.2626C50.3273 27.7314 50.535 26.5622 51.8161 26.5656C52.1702 26.5669 52.4278 26.6613 52.6032 26.8541C53.0447 27.3384 52.9508 28.3831 52.8752 29.2223C52.8752 29.2221 51.7215 42.0129 51.7215 42.0129L61.4565 42.0427L62.8381 26.7194C63.0651 24.206 62.6025 22.2975 61.4638 21.0472C60.3997 19.8795 58.7436 19.2835 56.5406 19.2765C54.3735 19.2699 52.1616 20.3013 50.8567 21.861L50.8603 21.8299L51.9568 9.67426L42.2209 9.64447L39.3066 41.9755L49.0414 42.004ZM42.7307 10.2033L51.343 10.2313L50.2199 22.7193L50.1924 23.0245L50.7303 23.0224L50.8109 22.8859C51.8773 21.0822 54.2325 19.8275 56.5391 19.8345C58.5791 19.8411 60.0966 20.3754 61.0512 21.423C62.0805 22.5527 62.495 24.3179 62.2826 26.6692L60.9494 41.4841L52.3371 41.4559L53.431 29.2723C53.5165 28.3243 53.6221 27.1441 53.016 26.4783C52.733 26.1679 52.3305 26.0097 51.818 26.0078C49.9235 26.0026 49.7494 27.9325 49.6341 29.2098C49.6341 29.2124 48.5247 41.4454 48.5247 41.4454L39.9236 41.4185L42.7307 10.2033Z" fill="#231F20"/>
<path id="path3107" d="M65.8219 27.1578C67.9269 26.0213 70.2473 25.373 72.1894 25.379C73.5264 25.3829 75.1619 25.4985 75.9579 26.3615C76.3127 26.7459 76.4868 27.2522 76.4861 27.9034C76.4874 27.9332 76.4767 27.9246 76.4767 27.9246L76.1407 27.8864C75.3273 27.7901 74.2139 27.6581 73.211 27.655C66.5432 27.6353 62.9113 30.4001 62.4173 35.8719C62.2429 37.8068 62.6955 39.3817 63.7622 40.553C64.9385 41.8441 66.8245 42.5591 69.0744 42.5659C71.5896 42.5735 73.8089 41.5054 75.2931 39.6053L75.3011 39.6186L75.0775 42.0857L84.1589 42.1119L85.37 28.6626C85.6184 25.9017 85.0386 23.7262 83.6441 22.1961C81.3217 19.6467 77.1917 19.3399 74.2876 19.331C70.6115 19.3203 68.911 19.7191 66.1551 20.5682L65.9762 20.6234L65.4108 26.8871L65.3646 27.4047L65.8219 27.1578ZM66.5369 21.0426C69.2371 20.2102 70.6865 19.8784 74.2856 19.8888C77.0846 19.8974 81.0579 20.1851 83.2317 22.5717C84.5158 23.9815 85.0487 26.0139 84.8144 28.6126L83.6488 41.553L75.6814 41.5282L75.9438 38.7099L75.9706 38.4092L75.4364 38.4034L75.354 38.5388C74.0037 40.751 71.7154 42.0159 69.0757 42.0081C66.9851 42.0018 65.244 41.3514 64.1746 40.1778C63.2175 39.1264 62.8135 37.6947 62.973 35.9221C63.4364 30.7882 66.881 28.1944 73.2097 28.2128C74.1791 28.2162 75.275 28.3459 76.0751 28.4408L76.7244 28.5146L77.011 28.5472C77.0083 28.547 77.0304 28.2585 77.0304 28.2585C77.1047 27.305 76.8818 26.5393 76.3683 25.9831C75.431 24.9676 73.7306 24.8256 72.1914 24.8209C70.3022 24.8152 68.0802 25.3958 66.022 26.4248C66.0097 26.4298 66.0097 26.4298 66.0097 26.4298L66.5021 21.0512L66.5369 21.0426Z" fill="#231F20"/>
<path id="path3109" d="M96.4499 22.6183C94.7167 28.6671 92.7966 31.9778 92.2858 32.0027C92.2885 32.0043 92.2905 32.0055 92.2925 32.0077C92.2892 32.0055 92.2831 32.0037 92.2798 32.0037C92.2818 32.0037 92.2838 32.0027 92.2858 32.0027C91.8493 31.6606 91.4664 31.5409 91.1163 31.6366C90.5345 31.7953 90.2687 32.4797 90.0123 33.1413C89.8871 33.4612 89.7405 33.8398 89.5858 34.0223C89.5858 34.0223 89.5731 33.9965 89.5597 33.9441C88.8762 31.2579 88.0019 8.2092 92.4867 3.70726C93.3684 2.82155 94.3873 2.76056 95.5997 3.52081V3.52055C99.5509 6.00362 98.6297 15.0141 96.4499 22.6183ZM95.8963 3.04823H95.8956C94.5299 2.19178 93.3088 2.22579 92.2657 3.14865C89.5624 5.54048 88.7202 13.5237 88.4899 19.7997C88.2322 26.8208 88.6981 33.5147 89.1259 34.429C89.2491 34.6923 89.4392 34.6939 89.5142 34.6822C90.0431 34.6016 90.2808 33.9905 90.5318 33.3432C90.7293 32.8351 90.9529 32.2595 91.2635 32.1745C91.4309 32.129 91.6605 32.22 91.9457 32.4449C92.1144 32.5777 92.3267 32.5982 92.5436 32.5024C94.2882 31.7323 98.2261 21.1894 98.8139 13.1131C99.1888 7.96337 98.1799 4.48318 95.8963 3.04823Z" fill="#231F20"/>
<path id="path3111" d="M95.1626 40.0526C94.9343 41.8795 90.8679 44.2549 88.7377 44.1822C87.5139 44.1401 86.6958 43.7431 86.3718 43.0344C85.9929 42.2075 86.3182 40.9656 87.1999 39.8706C88.2142 38.6111 90.0666 37.433 92.2236 37.9024C93.6483 38.2126 95.3139 38.8363 95.1626 40.0526ZM92.3421 37.3572C89.9367 36.8336 87.8841 38.1318 86.7661 39.5207C85.7364 40.7982 85.3917 42.2336 85.865 43.2666C86.1562 43.9037 86.8879 44.6767 88.7189 44.7394C90.9416 44.8158 95.4324 42.3963 95.7163 40.1217C95.8281 39.2197 95.3347 38.0076 92.3421 37.3572Z" fill="#231F20"/>
<path id="path3113" d="M76.0513 32.9159C75.8906 34.713 74.8389 36.5292 73.1391 36.5232C72.4636 36.5213 72.0083 36.3815 71.7479 36.0962C71.4948 35.8179 71.3991 35.3744 71.4567 34.7402C71.6207 32.9143 73.1826 32.544 75.4775 32.5506L76.0827 32.5534V32.6016L76.0513 32.9159ZM76.39 31.9956L75.4789 31.9925C74.0723 31.9885 71.1454 31.981 70.901 34.69C70.8287 35.4884 70.9713 36.0713 71.3355 36.4719C71.7071 36.8791 72.2969 37.0787 73.1377 37.0813C75.1729 37.088 76.4235 35.0161 76.6069 32.9656C76.6069 32.9658 76.6665 32.2998 76.6665 32.2998L76.694 31.9966L76.39 31.9956Z" fill="#231F20"/>
</g>
</g>
</g>
</g>
</g>
</g>
</g>
</g>
</svg>
