<svg width="23" height="23" viewBox="0 0 23 23" fill="none" xmlns="http://www.w3.org/2000/svg">
<g id="Group 141">
<path id="Vector" d="M11.5 1.4375C17.0479 1.4375 21.5625 5.95215 21.5625 11.5C21.5625 17.0479 17.0479 21.5625 11.5 21.5625C5.95215 21.5625 1.4375 17.0479 1.4375 11.5C1.4375 5.95215 5.95215 1.4375 11.5 1.4375ZM11.5 0C5.14917 0 0 5.14917 0 11.5C0 17.8508 5.14917 23 11.5 23C17.8508 23 23 17.8508 23 11.5C23 5.14917 17.8508 0 11.5 0ZM17.9112 15.345L17.8466 15.1485C17.695 14.6965 17.1952 14.2248 16.7348 14.0985L15.0348 13.6338C14.5744 13.5089 13.9174 13.6773 13.5791 14.0156L12.9642 14.6305C10.7293 14.0255 8.97598 12.2721 8.37231 10.0373L8.98721 9.42236C9.32412 9.08545 9.49258 8.42847 9.36765 7.96662L8.90437 6.2666C8.77944 5.80615 8.30493 5.3064 7.85293 5.15479L7.65918 5.09019C7.20574 4.93858 6.55859 5.09158 6.22168 5.42993L5.30078 6.35083C5.13655 6.51367 5.03125 6.98113 5.03125 6.98257C5.00034 9.90532 6.1459 12.7199 8.2123 14.7877C10.2731 16.8485 13.0779 17.9926 15.9908 17.9674C16.0062 17.9674 16.4878 17.8649 16.652 17.7006L17.5729 16.7797C17.9098 16.4442 18.0614 15.797 17.9112 15.345Z" fill="#DA3743"/>
</g>
</svg>
