<svg width="244" height="22" viewBox="0 0 244 22" fill="none" xmlns="http://www.w3.org/2000/svg">
<g id="Group">
<path id="Vector" d="M2.87605 5.09407C2.87605 2.83632 4.82592 0.954887 7.45996 0.954887C10.5387 0.954887 12.6254 3.65734 14.4043 7.6255L14.7464 7.55707L13.7543 2.35739C12.1807 1.5706 9.88875 0.646973 7.93888 0.646973C3.90229 0.646973 1.0288 2.90477 1.0288 5.98352C1.0288 12.9278 13.2754 10.9095 13.2754 16.8276C13.2754 19.3248 11.2913 21.1378 8.55463 21.1378C5.168 21.1378 2.53397 18.3327 0.789344 13.8172L0.447266 13.8856L1.43931 19.0853C1.43931 19.0853 4.07335 21.4799 8.24676 21.4799C12.4202 21.4799 15.1226 19.1537 15.1226 15.9039C15.1226 8.78858 2.87605 10.7043 2.87605 5.12831V5.09407Z" fill="#D4AF64"/>
<path id="Vector_2" d="M52.5117 10.7047H50.7671C50.2539 10.7047 50.0145 10.0547 50.425 9.71264L61.7822 1.63947C61.9874 1.46843 62.2611 1.3658 62.5005 1.3658V0.989502H56.993V1.3658C57.6772 1.3658 58.0192 2.18679 57.5403 2.69992L48.5093 9.91788C48.1672 10.2258 47.5857 9.98632 47.5857 9.5074V3.65775C47.5857 3.042 47.8594 2.46045 48.2699 2.04995C48.6804 1.63945 49.2619 1.3658 49.8776 1.3658V0.989502H43.207V1.3658C44.4727 1.3658 45.499 2.39204 45.499 3.65775V18.4015C45.499 19.6672 44.4727 20.6935 43.207 20.6935V21.0698H49.8776V20.6935C48.6119 20.6935 47.5857 19.6672 47.5857 18.4015V12.4835C47.5857 11.6625 48.2357 11.0126 49.0567 11.0126C49.4329 11.0126 49.775 11.1494 50.0487 11.3889L58.5324 19.3936C58.5324 19.3936 58.7718 19.7357 58.7718 19.941C58.7718 20.3172 58.4981 20.6935 58.0534 20.6935V21.0698H63.561V20.6935C63.2873 20.6935 63.0479 20.5909 62.8426 20.4199L52.4775 10.7047H52.5117Z" fill="#D4AF64"/>
<path id="Vector_3" d="M103.722 1.3658C104.612 1.3658 105.159 2.35782 104.68 3.1104L100.678 9.30216C100.472 9.61003 100.13 9.81526 99.7541 9.81526C99.6173 9.81526 99.5147 9.81526 99.412 9.71264C99.3094 9.61001 99.2068 9.57578 99.1384 9.47316L95.0333 3.1104C94.5544 2.35782 95.1018 1.3658 95.9912 1.3658V0.989502H89.0469V1.3658C90.381 1.3658 91.6125 2.04996 92.3651 3.17883L97.599 11.252C97.599 11.252 97.7016 11.4914 97.7016 11.6625V18.4358C97.7016 19.7015 96.6753 20.7277 95.4096 20.7277V21.104H102.08V20.7277C100.815 20.7277 99.7883 19.7015 99.7883 18.4358V11.9704C99.7883 11.6283 99.8909 11.252 100.096 10.9783L104.885 3.55513C105.741 2.221 107.212 1.43423 108.785 1.43423V1.05793H103.756V1.43423L103.722 1.3658Z" fill="#D4AF64"/>
<path id="Vector_4" d="M147.577 10.7389V10.6363C149.493 9.95211 150.861 8.07064 150.861 5.91551C150.861 3.17884 148.638 0.989502 145.935 0.989502H135.57V1.3658C136.22 1.3658 136.768 1.63945 137.212 2.04995C137.623 2.46045 137.896 3.04203 137.896 3.69199V18.4358C137.896 19.7015 136.87 20.7277 135.605 20.7277V21.104H146.654C149.562 21.104 151.922 18.7436 151.922 15.8359C151.922 13.2703 150.006 11.252 147.577 10.7731V10.7389ZM139.949 1.3658H144.191C146.722 1.3658 148.775 3.41828 148.775 5.9497C148.775 8.48112 146.722 10.5337 144.191 10.5337H141.625C140.702 10.5337 139.949 9.78106 139.949 8.85743V1.39999V1.3658ZM144.909 20.6935H139.949V12.5519C139.949 11.6283 140.702 10.8757 141.625 10.8757H144.875C147.577 10.8757 149.801 13.0651 149.801 15.8017C149.801 18.5384 147.612 20.7277 144.875 20.7277L144.909 20.6935Z" fill="#D4AF64"/>
<path id="Vector_5" d="M195.023 19.1541L188.284 0.989502H183.871V1.3658C184.828 1.3658 185.513 2.15257 185.513 3.00778C185.513 3.17882 185.513 3.38407 185.41 3.58932L179.731 19.0515C179.355 20.0435 178.432 20.6935 177.371 20.6935V21.0698H182.297V20.6935C182.297 20.6935 181.955 20.6935 181.818 20.6251C181.647 20.5909 181.51 20.4883 181.373 20.4199C181.031 20.1804 180.86 19.8041 180.86 19.3936C180.86 19.0857 180.997 18.7436 181.237 18.5042L187.907 11.8335C188.489 11.252 189.481 11.4573 189.789 12.2441L191.978 18.1279C192.457 19.3936 191.533 20.7277 190.165 20.7277V21.104H197.246V20.7277C196.767 20.7277 196.288 20.5909 195.912 20.3172C195.536 20.0435 195.228 19.6673 195.057 19.1884L195.023 19.1541ZM188.249 10.9441L181.784 17.4095C181.373 17.82 180.723 17.4095 180.929 16.8622L186.197 2.52887L188.66 9.1311C188.899 9.74685 188.728 10.431 188.284 10.9099L188.249 10.9441Z" fill="#D4AF64"/>
<path id="Vector_6" d="M241.374 19.5647L235.387 10.4994H235.832C238.466 10.4994 240.587 8.34431 240.587 5.71027C240.587 3.07623 238.398 0.989502 235.764 0.989502H223.996V1.3658C224.646 1.3658 225.193 1.63945 225.604 2.04995C226.014 2.46045 226.288 3.04203 226.288 3.69199V18.4358C226.288 19.7015 225.262 20.7277 223.996 20.7277V21.104H230.701V20.7277C229.435 20.7277 228.409 19.7015 228.409 18.4358V10.5337H231.146C232.206 10.5337 233.198 11.081 233.78 11.9362L238.74 19.4278C239.116 19.9751 238.74 20.7277 238.056 20.7277V21.104H243.598V20.7277C242.742 20.7277 241.921 20.3172 241.442 19.5988L241.374 19.5647ZM228.409 10.1574V1.39999H234.122C235.319 1.39999 236.414 1.87892 237.235 2.69992C238.056 3.52092 238.535 4.61558 238.5 5.84708C238.5 8.24166 236.482 10.1916 234.053 10.1916H228.375L228.409 10.1574Z" fill="#D4AF64"/>
</g>
</svg>
