<svg width="16" height="15" viewBox="0 0 16 15" fill="none" xmlns="http://www.w3.org/2000/svg">
<path d="M0.533331 7.5L0.0383979 7.314C-0.0126366 7.43338 -0.0126366 7.56662 0.0383979 7.686L0.533331 7.5ZM15.4667 7.5L15.9616 7.686C16.0126 7.56662 16.0126 7.43338 15.9616 7.314L15.4667 7.5ZM8 12C5.53173 12 3.7984 10.848 2.66346 9.666C2.04331 9.01565 1.52308 8.28728 1.11786 7.502C1.08818 7.44252 1.05973 7.38251 1.03253 7.322L1.02826 7.315L0.533331 7.5L0.0383979 7.686V7.688L0.041598 7.692C0.0504795 7.71314 0.0597251 7.73414 0.0693313 7.755L0.152531 7.928C0.602138 8.80135 1.18022 9.61124 1.86986 10.334C3.136 11.653 5.13493 13 8 13V12ZM0.533331 7.5L1.02826 7.686L1.03253 7.678C1.05856 7.61702 1.08702 7.55698 1.11786 7.498C1.52308 6.71272 2.04331 5.98435 2.66346 5.334C3.79733 4.152 5.53173 3 8 3V2C5.13493 2 3.13493 3.348 1.86986 4.666C1.18021 5.38875 0.602126 6.19865 0.152531 7.072C0.113769 7.14992 0.0767828 7.2286 0.041598 7.308L0.0394646 7.312V7.313H0.0373313L0.533331 7.5ZM8 3C10.4683 3 12.2016 4.152 13.3365 5.334C13.9567 5.98437 14.4769 6.71273 14.8821 7.498C14.9119 7.55744 14.9404 7.61745 14.9675 7.678L14.9717 7.685L15.4667 7.5L15.9616 7.314V7.312L15.9584 7.308C15.9503 7.28656 15.9411 7.26554 15.9307 7.245C15.8052 6.98129 15.6663 6.72333 15.5147 6.472C15.1236 5.82519 14.6594 5.2197 14.1301 4.666C12.864 3.348 10.8651 2 8 2V3ZM15.4667 7.5C15.3014 7.43856 15.1365 7.37656 14.9717 7.314L14.9685 7.322L14.9525 7.357L14.8821 7.502C14.4769 8.28727 13.9567 9.01563 13.3365 9.666C12.2027 10.848 10.4683 12 8 12V13C10.8651 13 12.8651 11.652 14.1301 10.335C14.8199 9.61195 15.398 8.80171 15.8475 7.928C15.8862 7.85007 15.9232 7.77138 15.9584 7.692L15.9605 7.688V7.687L15.9616 7.686L15.4667 7.5ZM8 9C7.57565 9 7.16869 8.84196 6.86863 8.56066C6.56857 8.27936 6.4 7.89782 6.4 7.5H5.33333C5.33333 8.16304 5.61428 8.79893 6.11438 9.26777C6.61448 9.73661 7.29275 10 8 10V9ZM9.6 7.5C9.6 7.89782 9.43143 8.27936 9.13137 8.56066C8.83131 8.84196 8.42435 9 8 9V10C8.70724 10 9.38552 9.73661 9.88562 9.26777C10.3857 8.79893 10.6667 8.16304 10.6667 7.5H9.6ZM8 6C8.42435 6 8.83131 6.15804 9.13137 6.43934C9.43143 6.72064 9.6 7.10218 9.6 7.5H10.6667C10.6667 6.83696 10.3857 6.20107 9.88562 5.73223C9.38552 5.26339 8.70724 5 8 5V6ZM8 5C7.29275 5 6.61448 5.26339 6.11438 5.73223C5.61428 6.20107 5.33333 6.83696 5.33333 7.5H6.4C6.4 7.10218 6.56857 6.72064 6.86863 6.43934C7.16869 6.15804 7.57565 6 8 6V5Z" fill="currentColor"/>
</svg>
