<svg width="15" height="10" viewBox="0 0 15 10" fill="none" xmlns="http://www.w3.org/2000/svg">
<g id="Group 171">
<path id="Vector" d="M14.7306 4.91071C14.5879 4.71517 11.269 0.487305 7.42168 0.487305C3.76458 0.487305 0.271302 4.71517 0.123327 4.89485C0.0435297 4.99359 0 5.1167 0 5.24365C0 5.3706 0.0435297 5.49372 0.123327 5.59245C0.271302 5.77214 3.76458 10 7.42168 10C11.0788 10 14.5773 5.77214 14.72 5.56603C14.7953 5.47392 14.8372 5.35912 14.8392 5.2402C14.8411 5.12128 14.8028 5.00519 14.7306 4.91071ZM7.42168 8.94303C4.84268 8.94303 2.16327 6.24249 1.28071 5.24365C2.16327 4.26596 4.84268 1.54427 7.42168 1.54427C10.1434 1.54427 12.7329 4.24482 13.5732 5.24365C12.7065 6.20549 10.0641 8.94303 7.42168 8.94303Z" fill="white"/>
<path id="Vector_2" d="M7.42171 2.60132C6.89909 2.60132 6.38821 2.75629 5.95367 3.04665C5.51912 3.337 5.18044 3.74969 4.98044 4.23253C4.78044 4.71536 4.72811 5.24667 4.83007 5.75924C4.93203 6.27182 5.1837 6.74266 5.55324 7.1122C5.92279 7.48175 6.39363 7.73342 6.9062 7.83538C7.41878 7.93733 7.95008 7.88501 8.43292 7.68501C8.91576 7.48501 9.32845 7.14632 9.6188 6.71178C9.90915 6.27724 10.0641 5.76635 10.0641 5.24373C10.0641 4.54292 9.78573 3.87081 9.29018 3.37526C8.79463 2.87971 8.12253 2.60132 7.42171 2.60132ZM7.42171 6.82918C7.10814 6.82918 6.80161 6.7362 6.54089 6.56199C6.28016 6.38778 6.07695 6.14016 5.95695 5.85046C5.83695 5.56076 5.80555 5.24198 5.86673 4.93443C5.9279 4.62688 6.0789 4.34438 6.30063 4.12265C6.52236 3.90092 6.80486 3.74992 7.11241 3.68875C7.41996 3.62757 7.73874 3.65897 8.02844 3.77897C8.31814 3.89897 8.56576 4.10218 8.73997 4.36291C8.91418 4.62363 9.00716 4.93016 9.00716 5.24373C9.00716 5.66422 8.84013 6.06749 8.5428 6.36482C8.24547 6.66215 7.8422 6.82918 7.42171 6.82918Z" fill="white"/>
</g>
</svg>
