<svg width="23" height="23" viewBox="0 0 23 23" fill="none" xmlns="http://www.w3.org/2000/svg">
<g id="Group 142">
<path id="Vector" d="M14.95 10.35H12.65V5.75C12.65 5.445 12.5288 5.15249 12.3132 4.93683C12.0975 4.72116 11.805 4.6 11.5 4.6C11.195 4.6 10.9025 4.72116 10.6868 4.93683C10.4712 5.15249 10.35 5.445 10.35 5.75V11.5C10.35 11.805 10.4712 12.0975 10.6868 12.3132C10.9025 12.5288 11.195 12.65 11.5 12.65H14.95C15.255 12.65 15.5475 12.5288 15.7632 12.3132C15.9788 12.0975 16.1 11.805 16.1 11.5C16.1 11.195 15.9788 10.9025 15.7632 10.6868C15.5475 10.4712 15.255 10.35 14.95 10.35ZM11.5 0C9.22552 0 7.00211 0.674463 5.11095 1.9381C3.21978 3.20174 1.7458 4.99779 0.87539 7.09914C0.00498277 9.20049 -0.222756 11.5128 0.220974 13.7435C0.664704 15.9743 1.75997 18.0234 3.36828 19.6317C4.97658 21.24 7.02568 22.3353 9.25646 22.779C11.4872 23.2228 13.7995 22.995 15.9009 22.1246C18.0022 21.2542 19.7983 19.7802 21.0619 17.8891C22.3255 15.9979 23 13.7745 23 11.5C22.9966 8.45105 21.7839 5.52795 19.628 3.37202C17.472 1.21608 14.549 0.00339087 11.5 0ZM11.5 20.7C9.68042 20.7 7.90169 20.1604 6.38876 19.1495C4.87583 18.1386 3.69664 16.7018 3.00031 15.0207C2.30399 13.3396 2.1218 11.4898 2.47678 9.70517C2.83176 7.92054 3.70798 6.28126 4.99462 4.99462C6.28126 3.70797 7.92055 2.83176 9.70517 2.47678C11.4898 2.12179 13.3396 2.30398 15.0207 3.00031C16.7018 3.69663 18.1386 4.87582 19.1495 6.38875C20.1604 7.90168 20.7 9.68041 20.7 11.5C20.6972 13.9391 19.727 16.2776 18.0023 18.0023C16.2776 19.727 13.9391 20.6972 11.5 20.7Z" fill="#DA3743"/>
</g>
</svg>
