<?xml version="1.0" encoding="utf-8"?><svg viewBox="0 0 800 800" xmlns="http://www.w3.org/2000/svg" xmlns:xlink="http://www.w3.org/1999/xlink"><style>:root>svg{display:none}:root>svg:target{display:block}</style><svg fill="none" viewBox="0 0 70 50" id="1" xmlns="http://www.w3.org/2000/svg"><g clip-path="url(#aa)"><path d="M15.26.6c-3.365.149-5.698.488-7.868 1.166C3.974 2.837 1.791 4.94.828 8.1c-.733 2.387-.746 2.564-.8 14.594-.055 11.678 0 13.32.528 15.91.597 2.943 1.56 4.91 3.242 6.619 2.713 2.753 6.185 3.88 12.885 4.205 2.008.095 9.088.122 20.617.081 18.54-.068 18.826-.068 21.837-.705 5.357-1.126 8.219-3.825 9.48-8.952.746-2.998.76-3.35.76-15.937 0-8.79-.04-11.882-.176-12.79-.787-5.371-2.754-7.948-7.148-9.359-2.143-.692-4.354-1.004-8.301-1.18C50.456.436 18.65.45 15.259.6Zm15.773 15.163c4.571 2.293 13.686 7.108 13.97 7.379.95.868.923 2.184-.067 3.092-.448.42-14.784 7.935-15.503 8.125-.909.244-1.94-.244-2.36-1.14-.19-.407-.217-1.37-.217-8.599v-8.124l.312-.461c.163-.245.515-.597.76-.76.745-.502 1.301-.42 3.105.488Z" fill="#fff"/></g><defs><clipPath id="aa"><path fill="#fff" d="M0 0h69.444v50H0z"/></clipPath></defs></svg><svg fill="none" viewBox="0 0 12 12" id="chevron-down" xmlns="http://www.w3.org/2000/svg"><path d="m3 4.5 3 3 3-3" stroke="#fff" stroke-linecap="round" stroke-linejoin="round"/></svg><svg fill="none" viewBox="0 0 10 11" id="date" xmlns="http://www.w3.org/2000/svg"><path d="M5 9a.5.5 0 1 0 0-1 .5.5 0 0 0 0 1Zm2.5 0a.5.5 0 1 0 0-1 .5.5 0 0 0 0 1Zm0-2a.5.5 0 1 0 0-1 .5.5 0 0 0 0 1ZM5 7a.5.5 0 1 0 0-1 .5.5 0 0 0 0 1Zm3.5-6H8V.5a.5.5 0 0 0-1 0V1H3V.5a.5.5 0 0 0-1 0V1h-.5A1.5 1.5 0 0 0 0 2.5v7A1.5 1.5 0 0 0 1.5 11h7A1.5 1.5 0 0 0 10 9.5v-7A1.5 1.5 0 0 0 8.5 1ZM9 9.5a.5.5 0 0 1-.5.5h-7a.5.5 0 0 1-.5-.5V5h8v4.5ZM9 4H1V2.5a.5.5 0 0 1 .5-.5H2v.5a.5.5 0 1 0 1 0V2h4v.5a.5.5 0 1 0 1 0V2h.5a.5.5 0 0 1 .5.5V4ZM2.5 7a.5.5 0 1 0 0-1 .5.5 0 0 0 0 1Zm0 2a.5.5 0 1 0 0-1 .5.5 0 0 0 0 1Z" fill="#fff"/></svg><svg fill="none" viewBox="0 0 23 17" id="email" xmlns="http://www.w3.org/2000/svg"><g fill="#DA3743"><path d="M19.68 16.244H3.258a3.273 3.273 0 0 1-2.303-.95A3.232 3.232 0 0 1 0 13.006V3.238A3.232 3.232 0 0 1 .955.95 3.273 3.273 0 0 1 3.258 0H19.68a3.272 3.272 0 0 1 2.303.95c.611.607.955 1.43.956 2.288v9.768a3.232 3.232 0 0 1-.956 2.288 3.273 3.273 0 0 1-2.303.95ZM3.258 1.143c-.559 0-1.095.22-1.49.614a2.089 2.089 0 0 0-.618 1.481v9.768c0 .555.222 1.088.618 1.481.395.393.931.614 1.49.614H19.68c.56 0 1.096-.22 1.491-.614a2.09 2.09 0 0 0 .618-1.481V3.238c0-.556-.223-1.089-.618-1.481a2.115 2.115 0 0 0-1.49-.614H3.257Z"/><path d="M11.47 10.438c-.709.001-1.4-.227-1.966-.651L.554 3.059a.573.573 0 0 1-.228-.607.57.57 0 0 1 .49-.428.578.578 0 0 1 .431.125l8.95 6.735a2.136 2.136 0 0 0 2.546 0l8.951-6.735a.577.577 0 0 1 .932.53.57.57 0 0 1-.238.38l-8.95 6.728a3.276 3.276 0 0 1-1.967.651Z"/><path d="M.802 14.651a.578.578 0 0 1-.538-.367.568.568 0 0 1 .155-.63l7.053-6.252a.578.578 0 0 1 .958.459.57.57 0 0 1-.19.394l-7.054 6.252a.562.562 0 0 1-.384.144Zm21.337 0a.562.562 0 0 1-.384-.144l-7.053-6.252a.57.57 0 0 1 .35-.997.578.578 0 0 1 .417.144l7.05 6.251a.571.571 0 0 1-.384.998h.004Z"/></g></svg><svg viewBox="-5 0 20 20" id="fb" xmlns="http://www.w3.org/2000/svg"><path d="M6.821 20v-9h2.733L10 7H6.821V5.052C6.821 4.022 6.848 3 8.287 3h1.458V.14c0-.043-1.253-.14-2.52-.14C4.58 0 2.924 1.657 2.924 4.7V7H0v4h2.923v9h3.898Z" fill="#fff" fill-rule="evenodd"/></svg><svg fill="none" viewBox="0 0 16 16" id="formkit_date" xmlns="http://www.w3.org/2000/svg"><g clip-path="url(#fa)" fill="#DA3743"><path d="M14.5 16h-13C.67 16 0 15.33 0 14.5v-12C0 1.67.67 1 1.5 1h13c.83 0 1.5.67 1.5 1.5v12c0 .83-.67 1.5-1.5 1.5ZM1.5 2c-.28 0-.5.22-.5.5v12c0 .28.22.5.5.5h13c.28 0 .5-.22.5-.5v-12c0-.28-.22-.5-.5-.5h-13Z"/><path d="M4.5 4c-.28 0-.5-.22-.5-.5v-3c0-.28.22-.5.5-.5s.5.22.5.5v3c0 .28-.22.5-.5.5Zm7 0c-.28 0-.5-.22-.5-.5v-3c0-.28.22-.5.5-.5s.5.22.5.5v3c0 .28-.22.5-.5.5Zm4 2H.5C.22 6 0 5.78 0 5.5S.22 5 .5 5h15c.28 0 .5.22.5.5s-.22.5-.5.5Z"/></g><defs><clipPath id="fa"><path fill="#fff" d="M0 0h16v16H0z"/></clipPath></defs></svg><svg fill="none" viewBox="0 0 52 52" id="ico-shot" xmlns="http://www.w3.org/2000/svg"><g clip-path="url(#ga)"><path d="M39 29.222c0-2.811-1.36-7.744-2.29-10.036-1.536-3.788 0-10.186 0-10.186h-2.419l3.694-11.585A1.08 1.08 0 0 0 36.962-4c-.478 0-.884.316-1.023.752l-.001.003c0 .004-.002.007-.004.01L32.035 9h-6.996c-1.486-2.586-4.262-4.327-7.444-4.327C12.848 4.673 9 8.548 9 13.327h9.503c.131 1.937.06 4.16-.629 5.86-.928 2.291-2.288 7.224-2.288 10.035 0 6.59 4.67 9.748 10.632 10.081v6.53h-5.371a1.08 1.08 0 0 0-1.075 1.084A1.08 1.08 0 0 0 20.847 48h12.892c.594 0 1.075-.485 1.075-1.083a1.08 1.08 0 0 0-1.075-1.084h-5.37v-6.53C34.328 38.97 39 35.812 39 29.222ZM11.518 11.161c.2-.568.48-1.104.827-1.594l1.582 1.594h-2.41Zm5.002-.45-2.653-2.673A6.394 6.394 0 0 1 16.52 6.93v3.78Zm17.624.456c-.054.406-.106.844-.148 1.305-.279 3.009-.056 5.484.66 7.361h-3.819l2.764-8.666h.543Zm-2.8 0-2.764 8.666h-8.65c.715-1.877.939-4.352.66-7.361-.04-.436-.09-.871-.15-1.305h10.904ZM21.32 8.037 20.365 9H18.67V6.93c.955.163 1.862.541 2.651 1.108Zm-3.586 21.185c0-1.818.711-4.896 1.433-7.222h16.251c.723 2.326 1.434 5.404 1.434 7.222 0 2.609-.874 4.615-2.597 5.96-1.662 1.298-4.068 1.985-6.962 1.985-2.895 0-5.302-.687-6.963-1.985-1.723-1.345-2.596-3.351-2.596-5.96Z" fill="currentColor"/></g><defs><clipPath id="ga"><path fill="currentColor" d="M0 0h52v52H0z"/></clipPath></defs></svg><svg viewBox="0 0 24 24" fill="none" id="insta" xmlns="http://www.w3.org/2000/svg"><path fill-rule="evenodd" clip-rule="evenodd" d="M12 18a6 6 0 1 0 0-12 6 6 0 0 0 0 12Zm0-2a4 4 0 1 0 0-8 4 4 0 0 0 0 8Z" fill="#fff"/><path d="M18 5a1 1 0 1 0 0 2 1 1 0 0 0 0-2Z" fill="#fff"/><path fill-rule="evenodd" clip-rule="evenodd" d="M1.654 4.276C1 5.56 1 7.24 1 10.6v2.8c0 3.36 0 5.04.654 6.324a6 6 0 0 0 2.622 2.622C5.56 23 7.24 23 10.6 23h2.8c3.36 0 5.04 0 6.324-.654a6 6 0 0 0 2.622-2.622C23 18.44 23 16.76 23 13.4v-2.8c0-3.36 0-5.04-.654-6.324a6 6 0 0 0-2.622-2.622C18.44 1 16.76 1 13.4 1h-2.8c-3.36 0-5.04 0-6.324.654a6 6 0 0 0-2.622 2.622ZM13.4 3h-2.8c-1.713 0-2.878.002-3.778.075-.877.072-1.325.202-1.638.361a4 4 0 0 0-1.748 1.748c-.16.313-.29.761-.36 1.638C3.001 7.722 3 8.887 3 10.6v2.8c0 1.713.002 2.878.075 3.778.072.877.202 1.325.361 1.638a4 4 0 0 0 1.748 1.748c.313.16.761.29 1.638.36.9.074 2.065.076 3.778.076h2.8c1.713 0 2.878-.002 3.778-.075.877-.072 1.325-.202 1.638-.361a4 4 0 0 0 1.748-1.748c.16-.313.29-.761.36-1.638.074-.9.076-2.065.076-3.778v-2.8c0-1.713-.002-2.878-.075-3.778-.072-.877-.202-1.325-.361-1.638a4 4 0 0 0-1.748-1.748c-.313-.16-.761-.29-1.638-.36C16.278 3.001 15.113 3 13.4 3Z" fill="#fff"/></svg><svg fill="none" viewBox="0 0 22 28" id="location" xmlns="http://www.w3.org/2000/svg"><path d="M11 0C8.083 0 5.285 1.18 3.222 3.28A11.304 11.304 0 0 0 0 11.2c0 7.56 9.694 16.1 10.106 16.464a1.36 1.36 0 0 0 1.788 0C12.375 27.3 22 18.76 22 11.2c0-2.97-1.159-5.82-3.222-7.92A10.901 10.901 0 0 0 11 0Zm0 24.71c-2.929-2.8-8.25-8.834-8.25-13.51 0-2.228.87-4.364 2.416-5.94A8.176 8.176 0 0 1 11 2.8c2.188 0 4.287.885 5.834 2.46a8.478 8.478 0 0 1 2.416 5.94c0 4.676-5.321 10.724-8.25 13.51ZM11 5.6a5.43 5.43 0 0 0-3.056.944A5.58 5.58 0 0 0 5.92 9.057a5.695 5.695 0 0 0-.313 3.236A5.632 5.632 0 0 0 7.11 15.16a5.47 5.47 0 0 0 2.816 1.532 5.41 5.41 0 0 0 3.178-.318 5.523 5.523 0 0 0 2.468-2.063c.604-.92.927-2.004.927-3.111 0-1.485-.58-2.91-1.61-3.96A5.45 5.45 0 0 0 11 5.6Zm0 8.4a2.716 2.716 0 0 1-1.528-.472 2.79 2.79 0 0 1-1.013-1.257 2.847 2.847 0 0 1-.156-1.617 2.816 2.816 0 0 1 .752-1.434 2.735 2.735 0 0 1 1.409-.766 2.704 2.704 0 0 1 1.588.16c.503.211.932.57 1.235 1.03a2.836 2.836 0 0 1-.343 3.536A2.725 2.725 0 0 1 11 14Z" fill="#DA3743"/></svg><svg fill="none" viewBox="0 0 160 15" id="logo" xmlns="http://www.w3.org/2000/svg"><g fill="#fff"><path d="M6.07.412c.522 0 1.014.028 1.469.095.464.066.88.18 1.26.331.284.104.549.246.785.426.237.18.455.36.635.55.19.189.332.369.445.54.114.17.18.312.209.435.075.227.028.436-.133.625a.657.657 0 0 1-.587.303h-.085l-.02-.085c-.625-1.468-1.752-2.207-3.4-2.207-1.344 0-2.424.474-3.248 1.411-.805.966-1.212 2.5-1.212 4.594 0 .71.085 1.392.255 2.064a5.45 5.45 0 0 0 .805 1.8c.36.53.824.947 1.383 1.269.559.312 1.231.473 2.018.473.984 0 1.799-.236 2.443-.7.653-.474 1.222-1.109 1.733-1.914l.625.408c-.587 1.136-1.316 1.96-2.178 2.472-.862.511-1.932.757-3.21.757-.967 0-1.829-.18-2.577-.53a5.63 5.63 0 0 1-1.903-1.44A6.32 6.32 0 0 1 .398 9.977 8.062 8.062 0 0 1 0 7.43c0-.9.142-1.724.426-2.567A7.283 7.283 0 0 1 1.638 2.61a6.207 6.207 0 0 1 1.914-1.591C4.3.611 5.142.412 6.062.412h.009ZM16.943 12.99 22.114.695h.104c.2 0 .389.057.55.161a.934.934 0 0 1 .36.445l4.11 10.049c.199.473.398.871.587 1.193.19.322.36.578.53.777.17.199.313.35.445.445.133.094.228.142.284.142h-.928c-.824-.076-1.468-.303-1.941-.701-.474-.398-.843-.985-1.137-1.762L24.52 9.95h-5.171l-1.26 3.03c-.057.133-.038.247.066.351.218.218.483.341.805.37h-3.097c.228-.02.436-.086.625-.209.19-.123.341-.284.455-.483v-.019Zm2.794-4.073h4.29L21.925 3.83l-2.188 5.086ZM34.105 11.654v-.152c0-.218.075-.407.236-.559a.767.767 0 0 1 .56-.236h.103l.02.085c.283.824.71 1.392 1.278 1.714.559.313 1.269.474 2.121.474.275 0 .55-.029.834-.086.284-.056.53-.151.757-.284.228-.132.408-.303.55-.52.142-.219.218-.484.218-.806 0-.322-.057-.606-.171-.852a2.51 2.51 0 0 0-.464-.673 3.75 3.75 0 0 0-.663-.54 15.811 15.811 0 0 0-.739-.463l-2.358-1.383a7.354 7.354 0 0 1-.938-.635 4.182 4.182 0 0 1-.729-.748 3.173 3.173 0 0 1-.464-.91 3.764 3.764 0 0 1-.16-1.126c0-.55.103-1.042.302-1.468a3.23 3.23 0 0 1 .834-1.108c.35-.303.767-.53 1.23-.692A4.57 4.57 0 0 1 37.95.45c.549 0 1.023.047 1.43.132.407.086.748.19 1.023.313.284.123.511.256.691.398.18.142.331.274.445.388.199.218.36.426.483.634.123.209.18.436.18.682 0 .19-.076.35-.218.502a.662.662 0 0 1-.502.218h-.236l-.048-.085c-.284-.748-.7-1.298-1.231-1.648-.53-.35-1.212-.52-2.036-.52-.256 0-.512.046-.767.15a2.407 2.407 0 0 0-.673.408 2.02 2.02 0 0 0-.473.615c-.123.237-.18.493-.18.768 0 .473.151.88.454 1.212.313.312.853.71 1.6 1.165l2.36 1.41c.33.19.643.39.937.598.293.208.559.445.776.7.228.256.398.55.53.872.133.312.2.682.2 1.108 0 .606-.105 1.127-.322 1.572a3.18 3.18 0 0 1-.89 1.108 3.853 3.853 0 0 1-1.308.653 6.15 6.15 0 0 1-1.59.209c-.351 0-.777-.029-1.289-.085a6.181 6.181 0 0 1-1.487-.35 3.77 3.77 0 0 1-1.221-.711c-.341-.303-.512-.7-.512-1.193l.029-.02ZM48.716 12.99 53.887.695h.105c.199 0 .388.057.549.161a.933.933 0 0 1 .36.445l4.11 10.049c.199.473.398.871.587 1.193.19.322.36.578.53.777.171.199.313.35.446.445.132.094.227.142.284.142h-.928c-.824-.076-1.468-.303-1.942-.701-.473-.398-.843-.985-1.136-1.762l-.559-1.496h-5.171l-1.26 3.03c-.056.133-.038.247.067.351.218.218.483.341.805.37h-3.097c.227-.02.435-.086.625-.209s.34-.284.454-.483v-.019Zm2.794-4.073h4.29L53.699 3.83 51.51 8.917ZM65.84 13.68c.312-.018.587-.132.805-.36.218-.227.322-.492.322-.814V1.918c0-.303-.104-.569-.322-.786a1.157 1.157 0 0 0-.805-.36h4.498c1.412 0 2.643.236 3.685.71 1.08.474 1.62 1.402 1.62 2.766 0 .681-.21 1.24-.617 1.685-.407.445-.909.796-1.505 1.042.861.19 1.543.512 2.045.976.502.464.748 1.165.748 2.121 0 1.354-.53 2.292-1.6 2.813-1.013.52-2.273.777-3.788.777H65.84v.018Zm3.116-11.8v4.745h1.685a3.96 3.96 0 0 0 1.43-.284 2.529 2.529 0 0 0 1.09-.853c.265-.37.397-.805.397-1.307 0-.435-.104-.805-.303-1.117a2.435 2.435 0 0 0-.786-.767 3.703 3.703 0 0 0-1.07-.446 4.864 4.864 0 0 0-1.146-.142c-.37 0-.805.057-1.297.17Zm1.685 10.863c.436 0 .853-.038 1.27-.123a3.578 3.578 0 0 0 1.117-.407c.332-.2.597-.455.805-.777.2-.322.303-.739.303-1.24 0-.503-.104-.92-.303-1.26a2.232 2.232 0 0 0-.786-.787 3.02 3.02 0 0 0-1.117-.397 7.132 7.132 0 0 0-1.279-.104h-1.686v4.867a6.396 6.396 0 0 0 1.686.237l-.01-.01ZM81.336 13.68c.313-.018.578-.132.786-.35.208-.218.322-.483.332-.805V1.918c-.02-.313-.124-.578-.332-.786a1.242 1.242 0 0 0-.786-.36h1.279c.445 0 .795.057 1.041.17.246.114.426.284.55.502.123.218.198.474.217.777.02.303.029.634.029.994v9.414h3.92c.219 0 .436 0 .673-.019.227-.019.455-.047.663-.085a1.71 1.71 0 0 0 .559-.208.928.928 0 0 0 .379-.36c.303.218.473.426.502.634a.729.729 0 0 1-.142.56 1.235 1.235 0 0 1-.502.387 1.327 1.327 0 0 1-.616.123h-8.552v.02ZM96.923 12.99 102.094.695h.105c.199 0 .388.057.549.161a.935.935 0 0 1 .36.445l4.11 10.049c.199.473.398.871.587 1.193.19.322.36.578.531.777.17.199.312.35.445.445.132.094.227.142.284.142h-.928c-.824-.076-1.468-.303-1.942-.701-.473-.398-.843-.985-1.136-1.762L104.5 9.95h-5.171l-1.26 3.03c-.056.133-.038.247.067.351.218.218.483.341.805.37h-3.097c.227-.02.435-.086.625-.209s.34-.284.454-.483v-.019Zm2.794-4.073h4.291l-2.103-5.086-2.188 5.086ZM115.176 12.497V2.003c0-.332-.105-.606-.322-.824a1.19 1.19 0 0 0-.805-.35h1.127l.151.019c.796.104 1.459.473 1.989 1.127l6.469 8.03V1.909a1.12 1.12 0 0 0-.351-.776 1.158 1.158 0 0 0-.777-.35h3.287a1.158 1.158 0 0 0-.805.36 1.12 1.12 0 0 0-.322.814l-.019 11.923h-.133a.816.816 0 0 1-.71-.369l-7.747-9.632v8.656c.009.313.123.578.331.787.209.208.474.331.786.36h-3.286c.313-.029.587-.152.805-.37.218-.218.322-.492.322-.824l.01.01ZM136.994.412c.521 0 1.014.028 1.468.095.464.066.881.18 1.26.331.284.104.549.246.786.426s.455.36.635.55c.179.189.331.369.445.54.113.17.18.312.208.435.076.227.028.436-.133.625a.656.656 0 0 1-.587.303h-.085l-.019-.085c-.625-1.468-1.752-2.207-3.4-2.207-1.345 0-2.424.474-3.248 1.411-.805.966-1.213 2.5-1.213 4.594 0 .71.086 1.392.256 2.064.17.673.436 1.27.805 1.8.36.53.824.947 1.383 1.269.559.312 1.231.473 2.008.473.985 0 1.799-.236 2.443-.7.644-.465 1.222-1.109 1.733-1.914l.625.408c-.587 1.136-1.316 1.96-2.178 2.472-.862.511-1.932.757-3.211.757-.966 0-1.827-.18-2.576-.53a5.631 5.631 0 0 1-1.903-1.44 6.307 6.307 0 0 1-1.184-2.112c-.275-.805-.398-1.648-.398-2.547 0-.9.142-1.724.426-2.567a7.27 7.27 0 0 1 1.213-2.254 6.193 6.193 0 0 1 1.913-1.591c.748-.407 1.591-.606 2.509-.606h.019ZM147.857 12.99 153.028.695h.104c.199 0 .389.057.55.161a.927.927 0 0 1 .359.445l4.111 10.049c.199.473.398.871.587 1.193.189.322.36.578.53.777.171.199.313.35.445.445.133.094.228.142.285.142h-.929c-.824-.076-1.468-.303-1.941-.701-.474-.398-.843-.985-1.137-1.762l-.558-1.496h-5.171l-1.26 3.03c-.057.133-.038.247.066.351.218.218.483.341.805.37h-3.097c.228-.02.436-.086.625-.209.19-.123.341-.284.455-.483v-.019Zm2.794-4.073h4.29l-2.102-5.086-2.188 5.086Z"/></g></svg><svg fill="none" viewBox="0 0 42 50" id="logo-big" xmlns="http://www.w3.org/2000/svg"><path d="M21.928 0c1.881 0 3.66.103 5.302.342 1.676.24 3.181.65 4.55 1.197 1.026.377 1.984.89 2.839 1.54s1.642 1.3 2.292 1.984a12.674 12.674 0 0 1 1.608 1.95c.41.615.65 1.129.752 1.573.274.821.103 1.574-.479 2.258-.479.718-1.163 1.095-2.12 1.095h-.308l-.069-.308c-2.258-5.302-6.329-7.97-12.28-7.97-4.858 0-8.758 1.71-11.734 5.096-2.908 3.49-4.379 9.031-4.379 16.591 0 2.566.308 5.029.924 7.458.615 2.429 1.573 4.584 2.907 6.5 1.3 1.915 2.977 3.42 4.995 4.583 2.018 1.13 4.447 1.71 7.286 1.71 3.558 0 6.5-.854 8.826-2.53 2.36-1.711 4.413-4.003 6.26-6.91l2.258 1.47c-2.121 4.105-4.755 7.081-7.868 8.929-3.113 1.847-6.979 2.736-11.597 2.736-3.489 0-6.602-.65-9.304-1.915-2.703-1.266-4.995-3.01-6.876-5.2-1.882-2.19-3.284-4.72-4.276-7.629C.479 31.643 0 28.598 0 25.348s.513-6.226 1.54-9.27c1.026-3.045 2.462-5.747 4.378-8.142 1.916-2.394 4.208-4.276 6.91-5.747C15.531.72 18.575 0 21.893 0h.035Z" fill="#fff"/></svg><svg fill="none" viewBox="0 0 46 64" id="logo-mobile" xmlns="http://www.w3.org/2000/svg"><mask id="ka" style="mask-type:luminance" maskUnits="userSpaceOnUse" x="33" y="45" width="1" height="18"><path d="m33.49 62.103.303-.075v-16.38l-.303-.061v16.516Z" fill="#fff"/></mask><g mask="url(#ka)"><path d="M33.793 45.587h-.303v16.516h.303V45.587Z" fill="url(#kb)"/></g><mask id="kc" style="mask-type:luminance" maskUnits="userSpaceOnUse" x="28" y="44" width="1" height="20"><path d="M28.468 63.026c.062-.008.128-.012.19-.02V44.853c-.062-.008-.124-.012-.19-.02v18.193Z" fill="#fff"/></mask><g mask="url(#kc)"><path d="M28.658 44.832h-.19v18.194h.19V44.832Z" fill="url(#kd)"/></g><mask id="ke" style="mask-type:luminance" maskUnits="userSpaceOnUse" x="23" y="44" width="1" height="20"><path d="M23.104 63.35h.078V44.57h-.078v18.783-.004Z" fill="#fff"/></mask><g mask="url(#ke)"><path d="M23.182 44.567h-.078V63.35h.078V44.567Z" fill="url(#kf)"/></g><mask id="kg" style="mask-type:luminance" maskUnits="userSpaceOnUse" x="44" y="51" width="2" height="5"><path d="M44.88 55.245c.29-.522.502-1.056.635-1.607v-1.144a4.63 4.63 0 0 0-.634-1.305v4.056Z" fill="#fff"/></mask><g mask="url(#kg)"><path d="M45.515 51.189h-.634v4.052h.634v-4.052Z" fill="url(#kh)"/></g><mask id="ki" style="mask-type:luminance" maskUnits="userSpaceOnUse" x="38" y="46" width="1" height="15"><path d="M38.01 46.817v13.781c.138-.058.274-.12.41-.178V46.97l-.41-.149v-.004Z" fill="#fff"/></mask><g mask="url(#ki)"><path d="M38.42 46.817h-.41v13.777h.41V46.817Z" fill="url(#kj)"/></g><mask id="kk" style="mask-type:luminance" maskUnits="userSpaceOnUse" x="41" y="48" width="2" height="11"><path d="M41.86 58.464c.178-.128.357-.26.522-.393v-9.186c-.17-.108-.343-.22-.522-.323v9.907-.005Z" fill="#fff"/></mask><g mask="url(#kk)"><path d="M42.382 48.562h-.522v9.907h.522v-9.907Z" fill="url(#kl)"/></g><mask id="km" style="mask-type:luminance" maskUnits="userSpaceOnUse" x="17" y="32" width="2" height="23"><path d="M17.347 32.576v21.455c.244.029.493.058.741.083v-21.63c-.248.03-.497.059-.741.092Z" fill="#fff"/></mask><g mask="url(#km)"><path d="M18.088 32.485h-.741v21.629h.741v-21.63Z" fill="url(#kn)"/></g><mask id="ko" style="mask-type:luminance" maskUnits="userSpaceOnUse" x="3" y="37" width="2" height="13"><path d="M3.624 37.905v11.12c.336.27.696.535 1.073.788V37.068c-.381.269-.737.55-1.073.837Z" fill="#fff"/></mask><g mask="url(#ko)"><path d="M4.697 37.063H3.624V49.81h1.073V37.063Z" fill="url(#kp)"/></g><mask id="kq" style="mask-type:luminance" maskUnits="userSpaceOnUse" x="22" y="32" width="2" height="23"><path d="M22.825 32.207v22.164h.129c.17 0 .335 0 .505-.004V32.21c-.17 0-.335-.008-.505-.008h-.129" fill="#fff"/></mask><g mask="url(#kq)"><path d="M23.46 32.207h-.635v22.168h.634V32.207Z" fill="url(#kr)"/></g><mask id="ks" style="mask-type:luminance" maskUnits="userSpaceOnUse" x="7" y="34" width="2" height="18"><path d="M8.55 34.925c-.327.145-.65.29-.961.444v16.035c.315.145.634.282.965.418V34.925H8.55Z" fill="#fff"/></mask><g mask="url(#ks)"><path d="M8.55 34.925h-.965v16.897h.965V34.925Z" fill="url(#kt)"/></g><mask id="ku" style="mask-type:luminance" maskUnits="userSpaceOnUse" x="0" y="39" width="2" height="8"><path d="M.491 42.554v2.105c.224.824.398 1.404.961 2.163v-7.028c-.567.808-.741 1.881-.96 2.764" fill="#fff"/></mask><g mask="url(#ku)"><path d="M1.452 39.794h-.96v7.028h.96v-7.028Z" fill="url(#kv)"/></g><mask id="kw" style="mask-type:luminance" maskUnits="userSpaceOnUse" x="12" y="33" width="2" height="21"><path d="M12.214 33.629V53.04c.282.074.563.145.853.215V33.401c-.29.074-.571.149-.853.227Z" fill="#fff"/></mask><g mask="url(#kw)"><path d="M13.067 33.4h-.853v19.856h.853V33.401Z" fill="url(#kx)"/></g><mask id="ky" style="mask-type:luminance" maskUnits="userSpaceOnUse" x="37" y="17" width="2" height="31"><path d="M37.787 46.739c.29.099.576.198.854.306V18.074c-.278-.158-.564-.31-.854-.46v29.125Z" fill="#fff"/></mask><g mask="url(#ky)"><path d="M38.64 17.614h-.853v29.431h.854V17.614Z" fill="url(#kz)"/></g><mask id="kA" style="mask-type:luminance" maskUnits="userSpaceOnUse" x="44" y="24" width="2" height="29"><path d="M44.877 51.184c.29.423.501.862.634 1.31V26.257a8.69 8.69 0 0 0-.634-1.964V51.19v-.005Z" fill="#fff"/></mask><g mask="url(#kA)"><path d="M45.51 24.293h-.633v28.2h.634v-28.2Z" fill="url(#kB)"/></g><mask id="kC" style="mask-type:luminance" maskUnits="userSpaceOnUse" x="41" y="20" width="2" height="29"><path d="M41.748 48.491c.261.15.506.307.742.464V20.941c-.236-.236-.48-.468-.742-.696v28.246Z" fill="#fff"/></mask><g mask="url(#kC)"><path d="M42.49 20.245h-.742v28.71h.742v-28.71Z" fill="url(#kD)"/></g><mask id="kE" style="mask-type:luminance" maskUnits="userSpaceOnUse" x="33" y="15" width="2" height="31"><path d="M33.16 45.516c.327.066.646.133.965.203V16.085a29.563 29.563 0 0 0-.966-.307v29.738Z" fill="#fff"/></mask><g mask="url(#kE)"><path d="M34.125 15.778h-.966V45.72h.966V15.78Z" fill="url(#kF)"/></g><mask id="kG" style="mask-type:luminance" maskUnits="userSpaceOnUse" x="22" y="14" width="2" height="31"><path d="M22.548 14.357v30.21c.153 0 .302-.004.456-.004.244 0 .484.004.729.008v-30.21c-.24 0-.485-.012-.73-.012-.153 0-.302.004-.455.008Z" fill="#fff"/></mask><g mask="url(#kG)"><path d="M23.733 14.353h-1.185v30.223h1.185V14.353Z" fill="url(#kH)"/></g><mask id="kI" style="mask-type:luminance" maskUnits="userSpaceOnUse" x="28" y="14" width="2" height="31"><path d="M28.025 44.791c.36.033.721.066 1.074.108V14.85a44.527 44.527 0 0 0-1.074-.161V44.79Z" fill="#fff"/></mask><g mask="url(#kI)"><path d="M29.099 14.689h-1.074v30.21H29.1v-30.21Z" fill="url(#kJ)"/></g><mask id="kK" style="mask-type:luminance" maskUnits="userSpaceOnUse" x="11" y="1" width="3" height="33"><path d="M11.836 1.947V33.82c.526-.153 1.06-.294 1.612-.427V1.396c-.551.17-1.086.352-1.612.551Z" fill="#fff"/></mask><g mask="url(#kK)"><path d="M13.448 1.396h-1.612V33.82h1.612V1.396Z" fill="url(#kL)"/></g><mask id="kM" style="mask-type:luminance" maskUnits="userSpaceOnUse" x="16" y="0" width="3" height="33"><path d="M16.842.563v32.183c.576-.083 1.16-.157 1.753-.215V.28c-.593.08-1.177.175-1.753.278" fill="#fff"/></mask><g mask="url(#kM)"><path d="M18.595.282h-1.753v32.46h1.753V.282Z" fill="url(#kN)"/></g><mask id="kO" style="mask-type:luminance" maskUnits="userSpaceOnUse" x="0" y="9" width="2" height="34"><path d="M.491 13.271V42.62c.203-.908.381-2.006.961-2.839V9.687c-.584 1.07-.762 2.42-.96 3.584Z" fill="#fff"/></mask><g mask="url(#kO)"><path d="M1.452 9.687h-.96V42.62h.96V9.687Z" fill="url(#kP)"/></g><mask id="kQ" style="mask-type:luminance" maskUnits="userSpaceOnUse" x="3" y="6" width="2" height="33"><path d="M3.5 7.359v30.666c.41-.356.85-.696 1.326-1.028V6.037c-.477.423-.92.866-1.326 1.322Z" fill="#fff"/></mask><g mask="url(#kQ)"><path d="M4.826 6.037H3.5v31.988h1.326V6.037Z" fill="url(#kR)"/></g><mask id="kS" style="mask-type:luminance" maskUnits="userSpaceOnUse" x="21" y="0" width="4" height="33"><path d="M21.814.017v32.302c.393-.008.79-.016 1.189-.016.493 0 .982.012 1.466.029V.033a34.34 34.34 0 0 0-2.655-.012" fill="#fff"/></mask><g mask="url(#kS)"><path d="M24.47-.004h-2.656v32.331h2.655V-.004Z" fill="url(#kT)"/></g><mask id="kU" style="mask-type:luminance" maskUnits="userSpaceOnUse" x="7" y="3" width="2" height="33"><path d="M7.332 4.164v31.379c.472-.232.961-.456 1.471-.667V3.31c-.51.27-.999.56-1.471.857" fill="#fff"/></mask><g mask="url(#kU)"><path d="M8.803 3.31H7.332v32.233h1.471V3.31Z" fill="url(#kV)"/></g><defs><linearGradient id="kb" x1="34.032" y1="61.989" x2="34.032" y2="45.473" gradientUnits="userSpaceOnUse"><stop stop-color="#D2A160"/><stop offset=".9" stop-color="#0D0600"/><stop offset="1" stop-color="#0D0600"/></linearGradient><linearGradient id="kd" x1="28.207" y1="63.099" x2="28.207" y2="44.905" gradientUnits="userSpaceOnUse"><stop stop-color="#D2A160"/><stop offset=".9" stop-color="#0D0600"/><stop offset="1" stop-color="#0D0600"/></linearGradient><linearGradient id="kf" x1="22.909" y1="63.373" x2="22.909" y2="44.59" gradientUnits="userSpaceOnUse"><stop stop-color="#D2A160"/><stop offset=".9" stop-color="#0D0600"/><stop offset="1" stop-color="#0D0600"/></linearGradient><linearGradient id="kh" x1="46.119" y1="55.051" x2="46.119" y2="50.999" gradientUnits="userSpaceOnUse"><stop stop-color="#D2A160"/><stop offset=".9" stop-color="#0D0600"/><stop offset="1" stop-color="#0D0600"/></linearGradient><linearGradient id="kj" x1="37.347" y1="60.749" x2="37.347" y2="46.968" gradientUnits="userSpaceOnUse"><stop stop-color="#D2A160"/><stop offset=".9" stop-color="#0D0600"/><stop offset="1" stop-color="#0D0600"/></linearGradient><linearGradient id="kl" x1="41.312" y1="58.611" x2="41.312" y2="48.704" gradientUnits="userSpaceOnUse"><stop stop-color="#D2A160"/><stop offset=".9" stop-color="#0D0600"/><stop offset="1" stop-color="#0D0600"/></linearGradient><linearGradient id="kn" x1="17.9" y1="54.066" x2="17.9" y2="32.437" gradientUnits="userSpaceOnUse"><stop stop-color="#D2A160"/><stop offset=".9" stop-color="#0D0600"/><stop offset="1" stop-color="#0D0600"/></linearGradient><linearGradient id="kp" x1="4.886" y1="49.642" x2="4.886" y2="36.897" gradientUnits="userSpaceOnUse"><stop stop-color="#D2A160"/><stop offset=".9" stop-color="#0D0600"/><stop offset="1" stop-color="#0D0600"/></linearGradient><linearGradient id="kr" x1="23.492" y1="54.278" x2="23.492" y2="32.11" gradientUnits="userSpaceOnUse"><stop stop-color="#D2A160"/><stop offset=".9" stop-color="#0D0600"/><stop offset="1" stop-color="#0D0600"/></linearGradient><linearGradient id="kt" x1="8.538" y1="51.703" x2="8.538" y2="34.806" gradientUnits="userSpaceOnUse"><stop stop-color="#D2A160"/><stop offset=".9" stop-color="#0D0600"/><stop offset="1" stop-color="#0D0600"/></linearGradient><linearGradient id="kv" x1="1.489" y1="46.703" x2="1.489" y2="39.675" gradientUnits="userSpaceOnUse"><stop stop-color="#D2A160"/><stop offset=".9" stop-color="#0D0600"/><stop offset="1" stop-color="#0D0600"/></linearGradient><linearGradient id="kx" x1="13.082" y1="53.126" x2="13.082" y2="33.271" gradientUnits="userSpaceOnUse"><stop stop-color="#D2A160"/><stop offset=".9" stop-color="#0D0600"/><stop offset="1" stop-color="#0D0600"/></linearGradient><linearGradient id="kz" x1="37.948" y1="47.076" x2="37.948" y2="17.645" gradientUnits="userSpaceOnUse"><stop stop-color="#D2A160"/><stop offset=".9" stop-color="#0D0600"/><stop offset="1" stop-color="#0D0600"/></linearGradient><linearGradient id="kB" x1="46.007" y1="52.316" x2="46.007" y2="24.115" gradientUnits="userSpaceOnUse"><stop stop-color="#D2A160"/><stop offset=".9" stop-color="#0D0600"/><stop offset="1" stop-color="#0D0600"/></linearGradient><linearGradient id="kD" x1="41.318" y1="49.075" x2="41.318" y2="20.365" gradientUnits="userSpaceOnUse"><stop stop-color="#D2A160"/><stop offset=".9" stop-color="#0D0600"/><stop offset="1" stop-color="#0D0600"/></linearGradient><linearGradient id="kF" x1="33.445" y1="45.746" x2="33.445" y2="15.805" gradientUnits="userSpaceOnUse"><stop stop-color="#D2A160"/><stop offset=".9" stop-color="#0D0600"/><stop offset="1" stop-color="#0D0600"/></linearGradient><linearGradient id="kH" x1="22.5" y1="44.675" x2="22.5" y2="14.452" gradientUnits="userSpaceOnUse"><stop stop-color="#D2A160"/><stop offset=".9" stop-color="#0D0600"/><stop offset="1" stop-color="#0D0600"/></linearGradient><linearGradient id="kJ" x1="28.064" y1="44.98" x2="28.064" y2="14.769" gradientUnits="userSpaceOnUse"><stop stop-color="#D2A160"/><stop offset=".9" stop-color="#0D0600"/><stop offset="1" stop-color="#0D0600"/></linearGradient><linearGradient id="kL" x1="12.777" y1="33.783" x2="12.777" y2="1.36" gradientUnits="userSpaceOnUse"><stop stop-color="#D2A160"/><stop offset=".9" stop-color="#0D0600"/><stop offset="1" stop-color="#0D0600"/></linearGradient><linearGradient id="kN" x1="17.728" y1="32.699" x2="17.728" y2=".239" gradientUnits="userSpaceOnUse"><stop stop-color="#D2A160"/><stop offset=".9" stop-color="#0D0600"/><stop offset="1" stop-color="#0D0600"/></linearGradient><linearGradient id="kP" x1="1.452" y1="42.479" x2="1.452" y2="9.547" gradientUnits="userSpaceOnUse"><stop stop-color="#D2A160"/><stop offset=".9" stop-color="#0D0600"/><stop offset="1" stop-color="#0D0600"/></linearGradient><linearGradient id="kR" x1="4.388" y1="37.952" x2="4.388" y2="5.964" gradientUnits="userSpaceOnUse"><stop stop-color="#D2A160"/><stop offset=".9" stop-color="#0D0600"/><stop offset="1" stop-color="#0D0600"/></linearGradient><linearGradient id="kT" x1="24.052" y1="32.143" x2="24.052" y2="-.188" gradientUnits="userSpaceOnUse"><stop stop-color="#D2A160"/><stop offset=".9" stop-color="#0D0600"/><stop offset="1" stop-color="#0D0600"/></linearGradient><linearGradient id="kV" x1="8.543" y1="35.4" x2="8.543" y2="3.168" gradientUnits="userSpaceOnUse"><stop stop-color="#D2A160"/><stop offset=".9" stop-color="#0D0600"/><stop offset="1" stop-color="#0D0600"/></linearGradient></defs></svg><svg fill="none" viewBox="0 0 36 36" id="menu" xmlns="http://www.w3.org/2000/svg"><g stroke="#fff" stroke-width="1.5" stroke-linecap="round" stroke-linejoin="round"><path d="M4.5 7.5h27M4.5 15h21M4.5 22.5h27M4.5 30h21"/></g></svg><svg fill="none" viewBox="0 0 72 155" id="menu-bg" xmlns="http://www.w3.org/2000/svg"><g filter="url(#ma)"><path d="m0 0 63.644 27.714a5 5 0 0 1 3.003 4.508l1.3 85.281a5 5 0 0 1-3.214 4.746L0 147V0Z" fill="#15151C"/></g><defs><filter id="ma" x="-4" y="0" width="75.947" height="155" filterUnits="userSpaceOnUse" color-interpolation-filters="sRGB"><feFlood flood-opacity="0" result="BackgroundImageFix"/><feColorMatrix in="SourceAlpha" values="0 0 0 0 0 0 0 0 0 0 0 0 0 0 0 0 0 0 127 0" result="hardAlpha"/><feOffset dy="4"/><feGaussianBlur stdDeviation="2"/><feComposite in2="hardAlpha" operator="out"/><feColorMatrix values="0 0 0 0 0 0 0 0 0 0 0 0 0 0 0 0 0 0 0.25 0"/><feBlend in2="BackgroundImageFix" result="effect1_dropShadow_400_5621"/><feBlend in="SourceGraphic" in2="effect1_dropShadow_400_5621" result="shape"/></filter></defs></svg><svg fill="none" viewBox="0 0 117 48" id="panthers1" xmlns="http://www.w3.org/2000/svg"><path d="M.52 0h115.567v47.327H.52V0Z" fill="#F9001B"/><path d="m17.832 18.597 1.032-6.383h.982c2.062 0 3.436.933 3.043 3.143-.343 2.405-2.405 3.24-4.467 3.24h-.59ZM4.232 41.23h13.453c8.936 0 12.619-5.99 13.355-10.556.786-4.96-1.326-8.003-6.186-8.396v-.098c4.222 0 7.462-3.24 8.1-7.414C34.231 6.764 27.75 4.211 21.86 4.211H10.075l-5.843 37.02Zm11.293-8.003 1.13-7.119h.785c2.307 0 4.026 1.03 3.633 3.535-.393 2.504-2.504 3.584-4.714 3.584h-.834ZM30.314 41.237l5.244-33.222h8.988l-4.01 25.38h6.742l-1.234 7.842h-15.73ZM52.669 8.015h16.699l-1.234 7.843h-7.71l-.705 4.627h6.917l-1.278 7.842h-6.917l-.793 5.067h7.71l-1.233 7.843h-16.7L52.67 8.015ZM67.113 30.046c.97 1.85 2.82 3.7 5.111 3.7 1.234 0 2.776-.748 2.996-2.202.132-.794-.044-1.366-.44-1.85-.309-.486-.75-.883-1.278-1.279-1.542-1.366-2.864-2.643-3.79-4.23-.837-1.542-1.277-3.392-.88-5.815.616-3.878 4.185-10.927 11.851-10.927 2.159 0 4.406.66 6.124 1.674l-1.586 10.09c-.793-1.674-2.643-3.57-4.714-3.57-1.057 0-2.467.75-2.644 2.028-.132.705.177 1.321.573 1.85.397.529 1.014.97 1.41 1.366 1.674 1.322 2.996 2.555 3.79 4.053.792 1.499 1.1 3.26.704 5.772-.969 6.169-6.08 11.104-12.336 11.104-2.292 0-4.538-.485-6.522-1.367l1.631-10.397ZM99.099 41.237l-3.173-15.245h.044-.088L93.46 41.237H84.47l5.243-33.222h8.988L96.499 22.16l-.132.088.044-.088h.132l7.138-14.144h9.473l-9.693 16.038 5.287 17.184h-9.65Z" fill="#fff"/></svg><svg fill="none" viewBox="0 0 161 33" id="panthers2" xmlns="http://www.w3.org/2000/svg"><g fill-rule="evenodd" clip-rule="evenodd"><path d="M15.76 2.427a51.7 51.7 0 0 0-2.696.504c-.592.125-1.183.241-1.767.388-.538.135-1.09.255-1.619.422-.51.157-1.014.329-1.513.517a9.705 9.705 0 0 0-2.692 1.57 8.19 8.19 0 0 0-1.33 1.365 9.643 9.643 0 0 0-.714 1.146c-.204.38-.344.83-.349 1.267-.007 1.283.813 2.357 1.756 3.155.31.26.64.5.975.73.992.68 2.073 1.279 3.17 1.8a92.734 92.734 0 0 0 3.428 1.54c1.091.461 2.206.852 3.332 1.224l.975.318c1.02.337 2.063.648 3.075 1.013.63.227 1.303.439 1.933.722.654.294 1.334.587 1.91 1.01.39.275.718.625.968 1.03.243.4.394.858.405 1.325a2.21 2.21 0 0 1-.36 1.264c-.632.983-1.734 1.654-2.796 2.1a45.876 45.876 0 0 1-4.868 1.725c-.943.275-1.886.547-2.835.793-.954.246-1.926.505-2.89.745-.96.24-1.92.457-2.885.664-.552.117-1.109.233-1.658.347-.33.065-.654.135-.985.206-.69.15-1.38.297-2.072.444-.788.173-1.577.34-2.365.512-.23.05-.458.11-.687.16-.204.048-.967.224-.4.19.788-.043 2.892-.226 7.389-.824 1.63-.267 3.266-.497 4.898-.762a87.581 87.581 0 0 0 6.06-1.19 51.974 51.974 0 0 0 1.714-.433c.377-.104.75-.212 1.12-.327 1.576-.485 4.105-1.342 4.704-1.601 2.287-.995 3.712-1.744 4.455-3.527.253-.633.373-1.341.295-2.02a4.57 4.57 0 0 0-.615-1.79c-.314-.516-.742-.957-1.19-1.364-.834-.755-1.77-1.364-2.77-1.88-.282-.148-.57-.287-.86-.418a25.784 25.784 0 0 0-2.657-1.052c-1.373-.466-2.767-.883-4.146-1.33a29.347 29.347 0 0 1-2.31-.844 17.95 17.95 0 0 1-.945-.424 14.8 14.8 0 0 1-1.074-.575c-.432-.26-1.14-.706-.943-1.313.138-.432.612-.6 1-.756a9.238 9.238 0 0 1 1.112-.342c1.14-.291 2.304-.487 3.455-.73.339-.071.676-.145 1.013-.222.898-.21 1.823-.365 2.68-.703.734-.287 1.677-.745 1.951-1.546.395-1.165-.053-2.426-.696-3.41a34.19 34.19 0 0 0-.718-1.044c-.338-.47-.712-.91-1.077-1.358-.165-.203-.366-.187-.535-.135-.225.076-.84.791-5.757 1.724Z" fill="#C00"/><path d="m91.132 12.643.066-.154.078-.132.067-.121.066-.105.046-.102.05-.077.038-.075.05-.046.119-.207.07-.124.084-.122.18-.301.11-.162.112-.169.028-.028.039-.01.084.03.042.027.057.066.112.16.117.215.13.294.137.35.151.424.028.074.05.124.063.16.088.207.01.039.018.047.029.094.02.075.018.077v.056l.01.057-.01.017v.076l-.056.075-.038.047-.096.038-.127.039-.158.019h-.1l-.093.008-.937.075h-.18l-.14.01h-.148l-.112.01-.117-.01h-.218l-.105-.018-.067-.02-.056-.036-.033-.048-.027-.067.014-.064.013-.088.05-.093.07-.122.064-.104.056-.094.057-.076.042-.075.039-.057.017-.056.029-.027Zm-5.998 4.45s.135.035.135.037c.51.145.76.485.37.93-.123.143-.222.302-.322.457l-.084.141a.966.966 0 0 0-.16.433l.006.087c.024.227.208.47.32.666.235.4.482.755.757 1.122.041.06.643-.926.682-.982.215-.296.465-.557.687-.847.277-.362.58-.706.981-.938.402-.233.862-.325 1.324-.373.457-.051.914-.072 1.368-.096.936-.05 1.865-.153 2.794-.244.36-.035.89-.123 1.214.052.314.169.553.461.796.712.291.304.577.615.851.933.328.375.62.777.982 1.125.228.221.465.417.725.604l.134.086c.46.227.784-.072.883-.534.141-.683-.25-1.347-.57-1.922a12.63 12.63 0 0 1-.485-.964c-.127-.268-.254-.682-.029-.94.177-.196.538-.206.778-.269.284-.075.563-.16.848-.217.57-.117 1.136-.268 1.717-.34.324-.04.855-.277 1.133.004.366.363.018 1.048-.123 1.437-.229.65-.461 1.321-.534 2.008-.064.626.09 1.298.492 1.797.295.368.792.684 1.256.418.37-.215.64-.671.806-1.05.31-.723.524-1.474.77-2.219.222-.67.452-1.339.705-2.002.186-.482.4-.957.587-1.439.12-.313.285-.604.416-.913.105-.26.141-.599.4-.763.317-.196.707.372.859.57.289.371.546.758.81 1.145.291.417.555.97 1.027 1.207.813.414 1.541-.552 1.999-1.071.317-.354.637-.719.964-1.074.348-.38.704-.758 1.049-1.138.225-.243.52-.72.89-.728.32-.005.394.34.422.589.142 1.188.194 2.395.373 3.586.07.443.158.883.236 1.323l.112.622c.057.295.117.59.18.885.137.61.282 1.22.468 1.817.165.505.376 1.052.8 1.407.502.421 1.424.28 1.748-.308.066-.123.095-.273.123-.411.056-.293.028-.599.004-.893-.085-1.047-.38-2.071-.398-3.128-.004-.437.032-.87.066-1.304.074-1.013.205-2.023.26-3.038.072-1.24.184-2.553-.178-3.763a4.198 4.198 0 0 0-.434-.994 4.03 4.03 0 0 0-.587-.768 3.213 3.213 0 0 0-.791-.616 2.442 2.442 0 0 0-.968-.287c-.77-.038-1.569.385-2.172.826-.514.375-.978.803-1.418 1.26-.781.82-1.566 1.668-2.259 2.568-.201.262-.444.736-.848.686-.478-.063-.733-.775-.88-1.15a17.512 17.512 0 0 0-.472-1.049c-.217-.438-.439-.872-.646-1.316-.173-.367-.349-.75-.617-1.059-.306-.35-.7-.52-1.136-.663-.309-.1-.75-.227-1.052-.048-.405.24-.327.84-.352 1.23-.025.348-.063.685-.095 1.033-.088.839-.14 1.703-.331 2.526-.084.365-.207.825-.525 1.06-.246.18-.556.156-.84.168-.233.01-.468.003-.705-.004-.535-.011-1.069-.033-1.604-.02-.457.015-.918.043-1.379.06-.409.017-.82.057-1.232.057-.46.026-1.024.1-1.457-.102-.34-.161-.524-.526-.676-.85-.218-.46-.495-.892-.756-1.33-.236-.39-.464-.784-.704-1.171-.344-.559-.686-1.114-1.038-1.667a27.69 27.69 0 0 0-.714-1.083c-.2-.288-.455-.676-.807-.796a.543.543 0 0 0-.706.416c-.046.205.003.415-.04.62a3.172 3.172 0 0 1-.224.635c-.18.41-.419.792-.662 1.167-.816 1.255-1.425 2.648-2.153 3.953-.138.243-.282.482-.42.725-.186.34-.308.622-.717.73-.367.096-.76.047-1.13.137-.456.113-.591.503-.668.925-.064.358-.074.723-.13 1.083-.043.26-.106.554-.079.817Zm-49.895 7.35c-.376.012-.75.082-1.122.06-.436-.024-.711-.286-.872-.669-.19-.457-.3-.975-.416-1.455-.105-.454-.19-.9-.14-1.364.03-.252.07-.436.277-.61.328-.268.785-.094 1.13-.285.31-.172.412-.546.44-.87.049-.547-.01-1.132-.038-1.68-.085-1.408.01-2.844-.17-4.243-.039-.323-.144-.694-.507-.79-.718-.189-.725-.892-.77-1.5-.028-.38-.032-.828.123-1.186.207-.49.76-.744 1.246-.892.471-.144.95-.276 1.428-.405.486-.13.99-.201 1.485-.285.51-.085 1.021-.158 1.535-.237.5-.077 1-.145 1.506-.199.471-.053.946-.11 1.421-.138a76.679 76.679 0 0 1 1.676-.086c.5-.021.998-.01 1.495-.008.497.004.989.025 1.482.04.507.018 1.02.06 1.52.127.728.098 1.421.223 2.048.628.65.425 1.084 1.296.44 1.94-.651.651-1.7.543-2.544.543-.692.002-1.385.014-2.076.037-.666.021-1.331.089-2 .13-.62.038-1.235.082-1.857.13-.64.048-1.285.109-1.926.172-.51.048-1.023.097-1.526.189-.423.076-.919.151-1.243.457-.24.228-.25.608-.151.906.193.574 1.074.428 1.538.417 1.056-.031 2.1-.204 3.153-.273.485-.033.968-.05 1.45-.078a16.521 16.521 0 0 1 1.752-.026 9.933 9.933 0 0 1 1.52.186c.616.127 1.19.36 1.756.62.725.248.61 1.154.49 1.737-.064.305-.166.574-.445.745-.633.386-1.53.289-2.238.307-.696.02-1.396.08-2.089.143-1.094.103-2.189.21-3.28.345-.67.083-1.337.198-2.005.268-.452.048-1.043.003-1.412.317l-.067.058-.049.027-.035.066-.043.087c-.049.278-.338 1.194-.049 1.414l.06.027h.095c.366.002.728-.019 1.094-.035.556-.024 1.112-.046 1.672-.092 1.07-.086 2.14-.173 3.21-.265.696-.061 1.414-.1 2.117-.162 1.054-.09 2.11-.154 3.168-.192.64-.025 1.256-.015 1.857-.278.697-.307 1.275-.845 1.957-1.195.862-.44 1.745-.833 2.618-1.248 1.07-.51 2.115-1.096 3.203-1.569.837-.362 1.678-.722 2.516-1.084.405-.174.82-.337 1.206-.556.268-.154.96-.49.785-.906-.091-.215-.369-.246-.573-.27-.802-.097-2.815.051-4.047.239-1.996.344-2.274.603-2.83.06-.422-.448-.316-1.078-.253-1.63.063-.57.339-1.43.532-1.644.577-.747 2.48-.834 3.367-.899.458-.032.922-.045 1.383-.05.648-.005 1.292.038 1.936.038.558.023 1.115.061 1.671.115.634.063 1.327.078 1.943.273.2.065.4.13.591.22.637.293 1.217.677 1.65 1.226.258.325.426.699.51 1.1.043.193.071.383.043.58-.022.144-.064.432-.155.547l-.038.048c-.089.192-.258.364-.412.5-.754.655-1.851.893-2.76 1.263-.45.184-.893.396-1.337.596-1.246.562-2.48 1.145-3.751 1.655-1.045.422-2.087.855-3.09 1.371-.275.143-.675.346-.841.623-.165.291.194.29.426.295.253.008.51-.007.768-.026.77-.061 1.54-.134 2.315-.217.788-.088 1.584-.157 2.373-.256.742-.094 1.484-.189 2.223-.27.8-.08 1.603-.119 2.407-.116.813 0 1.604.01 2.407.143l.12.019.21.01c.339 0 .694-.045.866-.38.282-.543.444-1.198.648-1.773a167.213 167.213 0 0 1 .915-2.54c.31-.84.612-1.683.949-2.511.134-.336.275-.668.384-1.014.081-.258.12-.521.243-.768.204-.396.574-.652.989-.363.335.233.563.638.757.989.2.37.373.738.467 1.15.096.416-.006.785-.133 1.183-.13.408-.3.813-.408 1.228-.236.892.65 1.612 1.333 2.018.616.368 1.324.618 1.985.893.496.207.992.425 1.517.527.313.06.71.122.989-.074.45-.323.587-.955.739-1.452.183-.612.319-1.24.457-1.863.12-.517.2-1.04.257-1.568a25.4 25.4 0 0 0 .11-1.248c.026-.54-.015-1.062-.023-1.6 0-.348.064-.798.31-1.07.317-.358.867-.174 1.134.167.007.007.098.124.098.124.163.27.281.568.372.87.159.543.248 1.1.304 1.66.05.462.08.925.098 1.39.056 1.6-.056 3.204-.275 4.79-.119.855-.309 1.687-.492 2.529-.105.462-.187.938-.387 1.373a3.3 3.3 0 0 1-.531.794 1.621 1.621 0 0 1-.342.289c-.44.273-1.014.262-1.513.213-.696-.064-1.365-.241-2.02-.48-.412-.144-.817-.31-1.214-.493-.405-.191-.813-.383-1.203-.602-.394-.22-.776-.462-1.144-.723a6.99 6.99 0 0 1-.995-.821c-.265-.268-.462-.612-.708-.896-.264-.299-.468-.4-.64.013-.106.268-.162.548-.226.83-.105.492-.253.98-.408 1.46-.147.475-.785 1.792-1.478 1.179-.225-.199-.387-.454-.725-.45-.344.005-.672.144-1.007.216-.352.08-.717.12-1.076.192-.68.137-1.359.294-2.034.428-.45.086-.9.149-1.348.226-.432.073-.87.128-1.305.193-.45.066-.898.137-1.345.19-.703.086-1.404.17-2.105.243-.562.073-1.121.128-1.681.192-.468.05-.932.1-1.4.145-.782.08-1.566.137-2.35.168-1.187.042-2.415.111-3.584-.122-.26-.05-.647-.081-.844-.273-.14-.135-.028-.367-.134-.526l-.017-.028-.046-.049-.043-.029-.045-.02h-.095l-.05.02-.056.02-.049.038-.1.067-.062.074-.05.086-.027.096c-.254.808-1.112 1.112-1.893 1.211l-12.497 1.457Zm116.666-6.271c-1.64.116-3.186.39-4.85.234-.538-.052-1.464-.096-1.918-.39-1.33-.865 3.33-2.407 3.903-2.609 1.615-.57 4.87-1.498 4.87-1.498s3.058-.75 3.15-2.378c.112-1.974-1.944-2.867-3.516-3.361a16.771 16.771 0 0 0-1.964-.32c-.449-.041-.9-.068-1.351-.08-.848-.03-1.675.052-2.52.154-.865.102-2.705.156-2.973 1.23-.134.547-.76 1.675-.236 2.17.556.527 1.461.308 2.144.242.943-.091 1.875-.266 2.814-.358.694-.068 1.598-.219 2.168.284.7.624-1.158 1.215-1.528 1.371-1.402.59-2.87 1.015-4.278 1.594-1.32.542-2.643 1.064-3.931 1.672-.591.278-1.143.62-1.699.954l-.268-.18-1.622.17-1.626.132c-1.087.089-2.189.12-3.279.17-.546.019-1.401.04-1.831-.361-.938-.88-.415-2.101.204-2.953.679-.926 1.633-1.614 2.612-2.197a9.466 9.466 0 0 1 2.125-.93c.5-.15 1.018-.274 1.538-.35.074.143.158.285.239.425.042.08 1.257-.424 1.373-.484.372-.191.893-.575.904-1.04.018-.564-.475-1.128-.922-1.41-.5-.313-1.066-.418-1.653-.423-.638-.009-1.278.03-1.905.112a9.877 9.877 0 0 0-3.364 1.126 10.099 10.099 0 0 0-2.388 1.83c-.326.34-.615.714-.86 1.116-.314.51-.542 1.075-.726 1.644-.495 1.573-.344 3.532.375 5.017.492 1.02 1.256 1.905 2.234 2.499 1.232.749 2.79.996 4.202.728a8.483 8.483 0 0 0 1.66-.482c.577-.23 1.141-.401 1.679-.709.105-.056 1.256-.707 1.322-.62.181.232.286.515.479.735.187.214.423.409.648.576.476.352 1.014.491 1.594.56a42.09 42.09 0 0 0 4.393.278c1.167.015 2.35-.064 3.511-.171.754-.069 1.506-.167 2.255-.257 1.908-.231 3.485-.65 5.55-1.53a5.734 5.734 0 0 0 1.953-1.469 4.646 4.646 0 0 0-.711-.349c-1.502-.597-3.216-.62-4.814-.418-.736.091-1.47.163-2.206.227-.32.029-.64.053-.96.077Zm-25.453 1.686a1.908 1.908 0 0 0-.095-.767c-.215-.557-.81-1.122-1.401-1.23-.536-.094-1.179.007-1.616.345-.235.184-.492.482-.615.758-.272.607-.243 1.507.155 2.044.672.91 2.094.91 2.885.172.38-.352.648-.799.687-1.322Z" fill="#fff"/></g></svg><svg fill="none" viewBox="0 0 102 48" id="panthers3" xmlns="http://www.w3.org/2000/svg"><mask id="qa" style="mask-type:luminance" maskUnits="userSpaceOnUse" x="0" y="0" width="102" height="48"><path d="M.324 0v47.443h101.212V0H.324Z" fill="#fff"/></mask><g mask="url(#qa)"><path d="M.324 47.443h101.212V0H.324v47.443Z" fill="#ED1C24"/><path d="m19.887 25.843 6.499-.034-2.105-12.094h-.084l-4.31 12.128ZM17.404 5.821l15.452.004 7.154 36.778-11.779.06-1.215-7.976-9.473.049-2.517 7.994-11.192.057 13.57-36.966ZM43.499 10.76l9.175.029-1.153 12.792h.073c1.031-1.745 3.384-3.197 5.968-3.189 4.878.016 6.4 2.936 6.021 7.139L62.225 42.6l-9.176-.028 1.127-12.488c.112-1.249.265-2.955-1.336-2.96-1.64-.005-1.793 1.7-1.905 2.95L49.81 42.561l-9.175-.027 2.864-31.773ZM77.41 33.111l-.911-.003c-1.894-.005-4.097.196-4.3 2.444-.135 1.499.54 2.083 1.96 2.087 1.893.006 3.023-1.99 3.19-3.861l.061-.666Zm-10.151-11.44c2.81-.865 4.483-1.235 8.049-1.224 5.244.016 11.518 1.118 10.805 9.028l-1.188 13.194-8.521-.025.283-3.122-.074-.001c-1.496 2.452-3.932 3.61-6.517 3.603-3.532-.011-6.789-1.853-6.38-6.39.602-6.66 5.963-7.977 10.515-7.963 1.273.004 2.712.217 3.543.303.216-2.79-2.27-3.13-4.562-3.137-2.185-.007-4.585.777-6.502 1.812l.549-6.077ZM96.769 4.12c-8.866-5.557-7.24 31.27-6.276 31.123.963-.147.844-3.6 2.646-2.18 1.803 1.419 11.101-24.248 3.63-28.942ZM93.303 38.467c-5.12-1.114-9.35 6.631-3.555 6.83 3.205.11 11.105-5.189 3.555-6.83Z" fill="#231F20"/><path d="m18.866 25.007 6.498-.035-2.104-12.094h-.084l-4.31 12.129ZM16.382 4.985l15.453.003 7.153 36.778-11.779.06-1.215-7.976-9.473.049-2.517 7.995-11.191.057 13.57-36.966ZM42.475 9.924l9.176.028-1.154 12.792h.073c1.032-1.745 3.385-3.197 5.97-3.189 4.877.016 6.4 2.936 6.02 7.14l-1.359 15.068-9.175-.028 1.127-12.488c.112-1.249.265-2.955-1.336-2.96-1.64-.005-1.793 1.7-1.906 2.95l-1.125 12.487-9.175-.027 2.864-31.773ZM76.388 32.275l-.91-.004c-1.894-.005-4.097.196-4.3 2.444-.135 1.499.54 2.083 1.96 2.087 1.893.006 3.023-1.99 3.19-3.861l.06-.666Zm-10.15-11.44c2.81-.866 4.482-1.235 8.049-1.225 5.244.016 11.518 1.118 10.805 9.028l-1.188 13.194-8.521-.025.282-3.122-.073-.001c-1.496 2.452-3.933 3.61-6.517 3.603-3.533-.011-6.79-1.853-6.38-6.39.602-6.66 5.962-7.977 10.515-7.963 1.272.004 2.711.217 3.543.303.215-2.79-2.27-3.13-4.563-3.137-2.184-.007-4.584.777-6.501 1.812l.549-6.077ZM95.745 3.284c-8.865-5.557-7.24 31.27-6.276 31.122.964-.146.845-3.6 2.647-2.18 1.803 1.42 11.101-24.247 3.629-28.942ZM92.283 37.63c-5.118-1.114-9.349 6.631-3.555 6.831 3.206.11 11.106-5.19 3.555-6.83Z" fill="#fff"/><path d="m14.207 42.171 2.528-8.004 9.008-.038 1.225 7.977 12.356-.062-7.261-37.335-15.878-.003L2.41 42.232l11.797-.06Zm2.371-36.908 15.029.004 7.037 36.22-11.204.06-1.209-7.977-9.917.051-2.52 7.993-10.588.058L16.578 5.263Z" fill="#231F20"/><path d="m25.037 24.677-5.771.053 3.888-10.931 1.883 10.878Zm.66.573-2.202-12.652-.516.003-4.508 12.687 7.226-.038ZM49.041 42.004l1.149-12.741c.137-1.532.345-2.7 1.626-2.697.354 0 .612.095.787.288.442.484.348 1.53.272 2.368l-1.154 12.79 9.736.03 1.381-15.323c.227-2.513-.236-4.422-1.374-5.672-1.064-1.168-2.72-1.764-4.923-1.77-2.167-.007-4.38 1.024-5.684 2.584l.003-.031 1.097-12.156-9.736-.03-2.914 32.331 9.734.029Zm-6.31-31.8 8.612.027L50.22 22.72l-.028.305.538-.002.08-.136c1.067-1.804 3.422-3.058 5.73-3.052 2.04.007 3.557.541 4.511 1.589 1.03 1.13 1.444 2.895 1.232 5.246l-1.334 14.815-8.612-.028 1.094-12.184c.086-.948.191-2.128-.415-2.794-.283-.31-.685-.468-1.198-.47-1.895-.005-2.069 1.925-2.184 3.202l-1.11 12.235-8.6-.026 2.807-31.216ZM65.822 27.158c2.105-1.137 4.425-1.785 6.367-1.779 1.337.004 2.973.12 3.769.982.355.385.529.891.528 1.542.001.03-.01.022-.01.022l-.335-.039c-.814-.096-1.927-.228-2.93-.231-6.668-.02-10.3 2.745-10.794 8.217-.174 1.935.279 3.51 1.345 4.681 1.177 1.291 3.063 2.006 5.312 2.013 2.516.008 4.735-1.06 6.22-2.96l.007.013-.224 2.467 9.082.026 1.211-13.45c.248-2.76-.331-4.936-1.726-6.466-2.322-2.55-6.452-2.856-9.356-2.865-3.676-.01-5.377.388-8.133 1.237l-.179.055-.565 6.264-.046.518.457-.247Zm.715-6.115c2.7-.833 4.15-1.165 7.749-1.154 2.799.008 6.772.296 8.946 2.683 1.284 1.41 1.817 3.442 1.582 6.04L83.65 41.554l-7.968-.025.263-2.818.027-.3-.535-.007-.082.136c-1.35 2.212-3.639 3.477-6.278 3.47-2.09-.007-3.832-.658-4.901-1.831-.957-1.052-1.361-2.483-1.202-4.256.463-5.134 3.908-7.728 10.237-7.71.97.004 2.065.134 2.865.229l.65.074.286.032c-.003 0 .02-.288.02-.288.074-.954-.15-1.72-.663-2.276-.937-1.015-2.637-1.157-4.177-1.162-1.889-.006-4.11.575-6.169 1.604l-.012.005.492-5.379.035-.008ZM96.45 22.618c-1.733 6.05-3.653 9.36-4.164 9.385a.026.026 0 0 1 .007.005.029.029 0 0 0-.013-.004l.006-.001c-.437-.342-.82-.462-1.17-.366-.582.158-.847.843-1.104 1.504-.125.32-.272.699-.426.881 0 0-.013-.026-.026-.078-.684-2.686-1.558-25.735 2.927-30.237.881-.885 1.9-.946 3.113-.186 3.95 2.483 3.03 11.493.85 19.097Zm-.554-19.57c-1.366-.856-2.587-.822-3.63.1C89.562 5.54 88.72 13.525 88.49 19.8c-.258 7.02.208 13.715.636 14.629.123.263.313.265.388.253.53-.08.767-.692 1.018-1.339.197-.508.42-1.084.731-1.169.168-.045.397.046.683.27.168.134.38.154.598.058 1.744-.77 5.682-11.313 6.27-19.389.375-5.15-.634-8.63-2.918-10.065ZM95.163 40.053c-.229 1.827-4.295 4.202-6.425 4.13-1.224-.043-2.042-.44-2.366-1.149-.38-.826-.054-2.068.828-3.163 1.014-1.26 2.867-2.438 5.024-1.969 1.424.31 3.09.934 2.939 2.15Zm-2.82-2.696c-2.406-.523-4.459.775-5.577 2.164-1.03 1.277-1.374 2.713-.901 3.746.291.637 1.023 1.41 2.854 1.472 2.223.077 6.713-2.343 6.997-4.617.112-.902-.381-2.114-3.374-2.765Z" fill="#231F20"/><path d="M76.051 32.916c-.16 1.797-1.212 3.613-2.912 3.607-.675-.002-1.13-.142-1.391-.427-.253-.278-.349-.722-.291-1.356.164-1.826 1.726-2.196 4.02-2.19l.606.003v.049l-.032.314Zm.339-.92-.911-.003c-1.407-.005-4.334-.012-4.578 2.697-.072.798.07 1.381.434 1.782.372.407.962.607 1.803.61 2.035.006 3.285-2.066 3.469-4.116l.06-.666.027-.303-.304-.001Z" fill="#231F20"/></g></svg><svg fill="none" viewBox="0 0 130 35" id="panthers4" xmlns="http://www.w3.org/2000/svg"><path d="M12.746 3.78h2.828a9.59 9.59 0 0 1 5.086.64 8.948 8.948 0 0 1 4.069 5.395c.422 1.182.422 1.182 1.439.763h.794v-9.36H.341V2.87h1.092a3.195 3.195 0 0 1 2.48 1.158c1.018 1.625 1.191 3.448 1.191 12.93 0 10.074-.223 12.537-1.19 13.793a2.675 2.675 0 0 1-2.06 1.084c-1.513.271-1.513.247-1.513.912a.978.978 0 0 0 0 .69h16.795a1.543 1.543 0 0 0 0-1.405 8.607 8.607 0 0 0-1.24-.246 8.336 8.336 0 0 1-1.34-.271 4.44 4.44 0 0 1-1.442-1.769 4.405 4.405 0 0 1-.369-2.246c-.248-1.625-.372-4.605-.372-7.069v-1.945h.992a13.492 13.492 0 0 1 3.672.394 4.574 4.574 0 0 1 1.433 1.389c.369.562.608 1.197.7 1.862l.224.764h1.513V11.981H19.52l-.223 1.06a4.365 4.365 0 0 1-.74 1.892 4.403 4.403 0 0 1-1.518 1.359 4.17 4.17 0 0 1-1.81.123h-2.854v-2.66c0-2.759.149-8.572.248-9.483l.124-.493ZM128.85 23.312a9 9 0 0 0-5.136-3.867 12.433 12.433 0 0 1-4.44-2.463 2.456 2.456 0 0 1-.72-2.192c.002-.776.314-1.52.869-2.069a3.023 3.023 0 0 1 2.977-.813 6.26 6.26 0 0 1 2.838 1.715 6.2 6.2 0 0 1 1.553 2.916c.397 1.108.446 1.108 1.166.813l.446-.173v-6.133l-.322-.147a19.31 19.31 0 0 0-7.617-1.035 8.966 8.966 0 0 0-5.954 2.463 6.773 6.773 0 0 0-2.158 5.32 5.818 5.818 0 0 0 1.687 4.04 10.09 10.09 0 0 0 4.218 2.463c3.845 1.502 4.961 2.463 4.961 4.211a3.232 3.232 0 0 1-.671 2.045 3.277 3.277 0 0 1-1.81 1.182 6.166 6.166 0 0 1-2.629 0 7.645 7.645 0 0 1-2.954-2.04 7.558 7.558 0 0 1-1.685-3.157l-.323-.788h-.447a2 2 0 0 0-.62.148h-.248v6.995h.422a25.73 25.73 0 0 0 5.16 1.133h2.481a9.792 9.792 0 0 0 3.2-.296 7.739 7.739 0 0 0 3.588-1.69 7.659 7.659 0 0 0 2.267-3.236 5.686 5.686 0 0 0 .447-2.217 6.105 6.105 0 0 0-.546-3.128Zm-23.37-12.734a11.506 11.506 0 0 0-9.353.222 10.878 10.878 0 0 0-3.558 2.764 10.787 10.787 0 0 0-2.123 3.96 13.063 13.063 0 0 0-.67 4.926c-.017.908.058 1.816.224 2.71a10.911 10.911 0 0 0 3.06 5.794 11.042 11.042 0 0 0 5.846 3.023c1.441.18 2.9.18 4.341 0a11.962 11.962 0 0 0 4.218-1.6 7.429 7.429 0 0 0 2.63-2.464 1.23 1.23 0 0 0-.596-.764c-.283.102-.55.243-.794.42a7.134 7.134 0 0 1-4.168 1.157 6.665 6.665 0 0 1-2.876-.444 6.625 6.625 0 0 1-2.408-1.625 5.888 5.888 0 0 1-1.265-1.675 11.387 11.387 0 0 1-1.216-4.926v-.96h13.744v-.493c.031-.492.031-.986 0-1.478a9.794 9.794 0 0 0-1.358-4.947 9.883 9.883 0 0 0-3.678-3.6ZM98.559 19.1h-1.737v-1.453c.57-3.719 1.985-5.936 3.721-5.936 1.737 0 2.481 2.192 2.804 6.207v1.133h-1.489l-3.3.05ZM62.884 9.766a5.241 5.241 0 0 0-2.48.517 8.281 8.281 0 0 0-3.846 3.818l-.322.59V9.767h-.125c-.297 0-9.476 1.822-9.774 1.945-.298.123-.199.148-.199.591 0 .444 0 .518.199.542l.967.197a1.796 1.796 0 0 1 1.39.715c.62.812.744 2.241.744 8.325a47.22 47.22 0 0 1-.347 8.201c-.084.41-.293.785-.6 1.072a2.042 2.042 0 0 1-1.112.53l-.844.172h-.322v.69a.978.978 0 0 0 0 .714H60.08v-.714a1.786 1.786 0 0 0 0-.715 13.965 13.965 0 0 1-2.481-.32 2.472 2.472 0 0 1-1.042-1.029c-.235-.44-.33-.94-.273-1.434-.198-1.428-.298-5.616-.248-8.818.05-3.201 0-3.398.273-3.62a4.487 4.487 0 0 1 2.902-.911 6.512 6.512 0 0 1 2.829.714c.303.167.629.291.967.37 0 0 2.481-5.961 2.481-6.232a2.928 2.928 0 0 0-2.605-.985ZM46.164 20.11a10.999 10.999 0 0 0-1.485-5 11.093 11.093 0 0 0-3.626-3.768 12.972 12.972 0 0 0-11.61-.32 11.154 11.154 0 0 0-5.434 6.403 16.34 16.34 0 0 0 0 9.459 10.305 10.305 0 0 0 2.655 4.458 10.101 10.101 0 0 0 5.73 2.758c1.387.115 2.782.115 4.168 0a13.21 13.21 0 0 0 1.514-.32 11.052 11.052 0 0 0 5.237-3.23 10.929 10.929 0 0 0 2.677-5.514c.247-1.63.305-3.283.173-4.926ZM35.842 32.425c-2.48.74-4.342-1.65-4.962-6.674a45.84 45.84 0 0 1 0-7.907c.496-4.04 1.762-6.083 3.721-6.083a2.498 2.498 0 0 1 2.084.91c1.663 1.651 2.481 4.927 2.481 9.853a18.133 18.133 0 0 1-1.29 8.177 3.766 3.766 0 0 1-2.034 1.601v.123Zm44.655-22.167c-.7-.09-1.409-.09-2.109 0a9.435 9.435 0 0 0-3.894.838l-.77.32V6.07a36.461 36.461 0 0 0 0-5.419c-.297 0-9.774 1.798-9.923 1.872a.76.76 0 0 0 0 .567c0 .517 0 .492 1.116.739.314.07.615.186.893.344.485.453.807 1.05.918 1.7.283 1.874.374 3.772.273 5.665v21.625l.67.148c.993.222 3.796.69 4.714.788 1.833.145 3.674.145 5.507 0a11.285 11.285 0 0 0 5.609-2.18 11.168 11.168 0 0 0 3.67-4.74c.456-1.21.773-2.465.942-3.745.148-1.733.09-3.477-.173-5.197a9.453 9.453 0 0 0-2.455-5.154 9.568 9.568 0 0 0-4.988-2.826Zm-6.5 21.749c0-.32-.248-11.109-.198-15.419v-3.374l.72-.173c.485-.069.978-.069 1.463 0a2.495 2.495 0 0 1 1.538.345 7.408 7.408 0 0 1 2.25 2.443 7.35 7.35 0 0 1 .95 3.173c.181 1.793.181 3.6 0 5.394a11.802 11.802 0 0 1-2.877 7.069c-.488.46-1.1.768-1.762.887a4.45 4.45 0 0 1-1.513 0c-.472 0-.472-.148-.472-.345h-.099Z" fill="#33629A"/></svg><svg fill="none" viewBox="0 0 16 16" id="phone" xmlns="http://www.w3.org/2000/svg"><g clip-path="url(#ta)"><path d="M14.667 11.28v2a1.332 1.332 0 0 1-1.453 1.333 13.193 13.193 0 0 1-5.754-2.046 13 13 0 0 1-4-4 13.193 13.193 0 0 1-2.046-5.78A1.333 1.333 0 0 1 2.74 1.333h2A1.333 1.333 0 0 1 6.074 2.48a8.56 8.56 0 0 0 .466 1.873 1.333 1.333 0 0 1-.3 1.407l-.846.847a10.666 10.666 0 0 0 4 4l.846-.847a1.333 1.333 0 0 1 1.407-.3 8.56 8.56 0 0 0 1.873.467 1.334 1.334 0 0 1 1.147 1.353Z" stroke="#DA3743" stroke-linecap="round" stroke-linejoin="round"/></g><defs><clipPath id="ta"><path fill="#fff" d="M0 0h16v16H0z"/></clipPath></defs></svg><svg fill="none" viewBox="0 0 23 23" id="phone-circle" xmlns="http://www.w3.org/2000/svg"><path d="M11.5 1.438c5.548 0 10.063 4.514 10.063 10.062 0 5.548-4.515 10.063-10.063 10.063-5.548 0-10.063-4.515-10.063-10.063 0-5.548 4.515-10.063 10.063-10.063ZM11.5 0C5.15 0 0 5.15 0 11.5S5.15 23 11.5 23 23 17.85 23 11.5 17.85 0 11.5 0Zm6.411 15.345-.064-.197c-.152-.451-.652-.923-1.112-1.05l-1.7-.464c-.46-.125-1.118.043-1.456.382l-.615.614a6.53 6.53 0 0 1-4.592-4.593l.615-.615c.337-.337.506-.994.38-1.455l-.463-1.7c-.125-.46-.6-.96-1.051-1.112l-.194-.065c-.453-.151-1.1.002-1.437.34l-.921.92c-.164.164-.27.631-.27.633a10.88 10.88 0 0 0 3.181 7.805 10.869 10.869 0 0 0 7.779 3.18c.015 0 .497-.103.661-.267l.92-.921c.338-.336.49-.983.34-1.435Z" fill="#DA3743"/></svg><svg fill="none" viewBox="0 0 94 94" id="play" xmlns="http://www.w3.org/2000/svg"><circle cx="46.999" cy="46.836" r="46.373" fill="#DA3743" fill-opacity=".75"/><path d="M59.365 47.995 40.816 59.202V36.788l18.55 11.207Z" fill="#fff"/></svg><svg fill="none" viewBox="0 0 244 22" id="skybar" xmlns="http://www.w3.org/2000/svg"><g fill="#D4AF64"><path d="M2.876 5.094c0-2.258 1.95-4.14 4.584-4.14 3.079 0 5.165 2.703 6.944 6.671l.342-.068-.992-5.2C12.181 1.571 9.89.647 7.94.647c-4.037 0-6.91 2.258-6.91 5.337 0 6.944 12.246 4.925 12.246 10.844 0 2.497-1.984 4.31-4.72 4.31-3.387 0-6.021-2.805-7.766-7.32l-.342.068.992 5.2s2.634 2.394 6.808 2.394c4.173 0 6.876-2.326 6.876-5.576 0-7.115-12.247-5.2-12.247-10.776v-.034ZM52.512 10.705h-1.745c-.513 0-.753-.65-.342-.992l11.357-8.074c.205-.17.48-.273.719-.273V.99h-5.508v.376c.684 0 1.026.82.547 1.334l-9.03 7.218c-.343.308-.924.068-.924-.41v-5.85c0-.616.273-1.198.684-1.608.41-.41.992-.684 1.608-.684V.99h-6.671v.376a2.292 2.292 0 0 1 2.292 2.292V18.4a2.292 2.292 0 0 1-2.292 2.293v.376h6.67v-.377a2.292 2.292 0 0 1-2.291-2.292v-5.918c0-.82.65-1.47 1.47-1.47.377 0 .719.136.993.376l8.483 8.005s.24.342.24.547c0 .376-.274.753-.719.753v.376h5.508v-.377c-.274 0-.513-.102-.718-.273l-10.366-9.715h.035ZM103.722 1.366c.89 0 1.437.992.958 1.744l-4.002 6.192a1.125 1.125 0 0 1-.924.513c-.137 0-.24 0-.342-.102-.103-.103-.205-.137-.274-.24L95.033 3.11c-.479-.752.069-1.744.958-1.744V.99h-6.944v.376c1.334 0 2.566.684 3.318 1.813l5.234 8.073s.103.24.103.41v6.774a2.292 2.292 0 0 1-2.292 2.292v.376h6.67v-.376a2.292 2.292 0 0 1-2.292-2.292V11.97c0-.342.103-.718.308-.992l4.789-7.423a4.621 4.621 0 0 1 3.9-2.12v-.377h-5.029v.376l-.034-.068ZM147.577 10.739v-.103c1.916-.684 3.284-2.565 3.284-4.72A4.927 4.927 0 0 0 145.935.99H135.57v.376c.65 0 1.198.273 1.642.684.411.41.684.992.684 1.642v14.744a2.292 2.292 0 0 1-2.291 2.292v.376h11.049a5.27 5.27 0 0 0 5.268-5.268c0-2.566-1.916-4.584-4.345-5.063v-.034Zm-7.628-9.373h4.242a4.585 4.585 0 0 1 0 9.168h-2.566a1.68 1.68 0 0 1-1.676-1.677V1.366Zm4.96 19.328h-4.96v-8.142a1.68 1.68 0 0 1 1.676-1.676h3.25a4.928 4.928 0 0 1 4.926 4.926 4.905 4.905 0 0 1-4.926 4.926l.034-.035ZM195.023 19.154 188.284.99h-4.413v.376c.957 0 1.642.787 1.642 1.642 0 .17 0 .376-.103.581l-5.679 15.463a2.512 2.512 0 0 1-2.36 1.642v.376h4.926v-.377s-.342 0-.479-.068c-.171-.034-.308-.137-.445-.205-.342-.24-.513-.616-.513-1.026 0-.308.137-.65.377-.89l6.67-6.67a1.148 1.148 0 0 1 1.882.41l2.189 5.884a1.915 1.915 0 0 1-1.813 2.6v.376h7.081v-.376a2.28 2.28 0 0 1-1.334-.41 2.38 2.38 0 0 1-.855-1.13l-.034-.034Zm-6.774-8.21-6.465 6.466a.515.515 0 0 1-.855-.548l5.268-14.333 2.463 6.602c.239.616.068 1.3-.376 1.779l-.035.034ZM241.374 19.565l-5.987-9.066h.445c2.634 0 4.755-2.155 4.755-4.789S238.398.99 235.764.99h-11.768v.376c.65 0 1.197.273 1.608.684.41.41.684.992.684 1.642v14.744a2.292 2.292 0 0 1-2.292 2.292v.376h6.705v-.376a2.292 2.292 0 0 1-2.292-2.292v-7.902h2.737c1.06 0 2.052.547 2.634 1.402l4.96 7.492c.376.547 0 1.3-.684 1.3v.376h5.542v-.376c-.856 0-1.677-.41-2.156-1.13l-.068-.033Zm-12.965-9.408V1.4h5.713c1.197 0 2.292.479 3.113 1.3a4.225 4.225 0 0 1 1.265 3.147c0 2.395-2.018 4.345-4.447 4.345h-5.678l.034-.035Z"/></g></svg><svg fill="none" viewBox="0 0 16 15" id="teenyicons_eye-outline" xmlns="http://www.w3.org/2000/svg"><path d="m.533 7.5-.495-.186a.471.471 0 0 0 0 .372L.533 7.5Zm14.934 0 .495.186a.471.471 0 0 0 0-.372l-.495.186ZM8 12c-2.468 0-4.202-1.152-5.337-2.334a9.353 9.353 0 0 1-1.545-2.164c-.03-.06-.058-.12-.085-.18l-.005-.007-.495.185-.495.186v.002l.004.004.027.063.084.173a10.35 10.35 0 0 0 1.717 2.406C3.136 11.653 5.135 13 8 13v-1ZM.533 7.5l.495.186.005-.008c.026-.061.054-.121.085-.18a9.353 9.353 0 0 1 1.545-2.164C3.797 4.152 5.532 3 8 3V2C5.135 2 3.135 3.348 1.87 4.666A10.35 10.35 0 0 0 .153 7.072a5.863 5.863 0 0 0-.111.236l-.003.004v.001H.037l.496.187ZM8 3c2.468 0 4.202 1.152 5.336 2.334.62.65 1.14 1.379 1.546 2.164.03.06.058.12.085.18l.005.007.495-.185.495-.186v-.002l-.004-.004a8.909 8.909 0 0 0-.444-.836 10.41 10.41 0 0 0-1.384-1.806C12.864 3.348 10.865 2 8 2v1Zm7.467 4.5c-.166-.061-.33-.123-.495-.186l-.003.008-.016.035-.07.145a9.351 9.351 0 0 1-1.546 2.164C12.202 10.848 10.467 12 8 12v1c2.865 0 4.865-1.348 6.13-2.665a10.347 10.347 0 0 0 1.717-2.407 5.99 5.99 0 0 0 .111-.236l.002-.004v-.001l.002-.001-.495-.186ZM8 9c-.424 0-.831-.158-1.131-.44A1.454 1.454 0 0 1 6.4 7.5H5.333c0 .663.281 1.299.781 1.768A2.76 2.76 0 0 0 8 10V9Zm1.6-1.5c0 .398-.169.78-.469 1.06-.3.282-.707.44-1.131.44v1a2.76 2.76 0 0 0 1.886-.732c.5-.47.78-1.105.78-1.768H9.6ZM8 6c.424 0 .831.158 1.131.44.3.28.469.662.469 1.06h1.067c0-.663-.281-1.299-.781-1.768A2.76 2.76 0 0 0 8 5v1Zm0-1a2.76 2.76 0 0 0-1.886.732 2.423 2.423 0 0 0-.78 1.768H6.4c0-.398.169-.78.469-1.06C7.169 6.157 7.576 6 8 6V5Z" fill="currentColor"/></svg><svg fill="none" viewBox="0 0 15 10" id="view" xmlns="http://www.w3.org/2000/svg"><g fill="#fff"><path d="M14.73 4.91C14.589 4.716 11.27.488 7.423.488 3.765.487.272 4.715.123 4.895a.555.555 0 0 0 0 .697C.271 5.772 3.765 10 7.422 10c3.657 0 7.155-4.228 7.298-4.434a.529.529 0 0 0 .01-.655ZM7.423 8.944c-2.58 0-5.259-2.7-6.141-3.7.882-.977 3.562-3.699 6.14-3.699 2.722 0 5.312 2.7 6.152 3.7-.867.961-3.509 3.699-6.151 3.699Z"/><path d="M7.422 2.601a2.642 2.642 0 1 0 0 5.285 2.642 2.642 0 0 0 0-5.285Zm0 4.228a1.585 1.585 0 1 1 0-3.17 1.585 1.585 0 0 1 0 3.17Z"/></g></svg><svg fill="none" viewBox="0 0 23 23" id="work" xmlns="http://www.w3.org/2000/svg"><path d="M14.95 10.35h-2.3v-4.6a1.15 1.15 0 0 0-2.3 0v5.75a1.15 1.15 0 0 0 1.15 1.15h3.45a1.15 1.15 0 0 0 0-2.3ZM11.5 0A11.5 11.5 0 1 0 23 11.5 11.513 11.513 0 0 0 11.5 0Zm0 20.7a9.2 9.2 0 1 1 9.2-9.2 9.21 9.21 0 0 1-9.2 9.2Z" fill="#DA3743"/></svg></svg>